<?xml version="1.0" standalone="no"?>
<!DOCTYPE svg PUBLIC "-//W3C//DTD SVG 1.1//EN" "http://www.w3.org/Graphics/SVG/1.1/DTD/svg11.dtd" >
<svg xmlns="http://www.w3.org/2000/svg">
<metadata>
This is a custom SVG webfont generated by Fontspring.
</metadata>
<defs>
<font id="AvalonBookOblique" horiz-adv-x="1030" >
<font-face units-per-em="2048" ascent="1536" descent="-512" />
<missing-glyph horiz-adv-x="512" />
<glyph unicode=" "  horiz-adv-x="512" />
<glyph unicode="&#x09;" horiz-adv-x="512" />
<glyph unicode="&#xa0;" horiz-adv-x="512" />
<glyph unicode="!" horiz-adv-x="460" d="M162 0l43 233h137l-43 -233h-137zM227 358l189 1014h137l-188 -1014h-138z" />
<glyph unicode="&#x22;" horiz-adv-x="489" d="M266 973l60 399h127l-88 -399h-99zM485 973l60 399h127l-88 -399h-99z" />
<glyph unicode="#" d="M156 477l28 94h207l76 228h-207l31 96h205l114 350h97l-115 -350h227l115 350h96l-115 -350h213l-30 -96h-213l-76 -228h213l-29 -94h-213l-114 -350h-97l115 350h-227l-115 -350h-96l116 350h-206zM487 571h226l75 228h-225z" />
<glyph unicode="$" d="M168 395q0 2 3 12l5 15h125q-3 -24 -3 -46q0 -65 24 -106q57 -104 188 -104q106 0 190 71.5t105 176.5q5 25 5 48q0 77 -52 132q-47 51 -166 80q-172 45 -227 133q-41 63 -42 147q0 33 7 70q23 125 114 213t220 113l28 155h137l-28 -151q129 -23 192 -115q50 -73 51 -175 q0 -26 -4 -54h-129q3 22 3 41q0 72 -41 121q-52 62 -148 62.5t-169 -62t-91 -162.5q-4 -21 -4 -41q0 -55 31 -92q25 -31 56.5 -47.5t110.5 -36.5q166 -47 226 -119q65 -73 65 -181q0 -38 -8 -79q-27 -141 -135.5 -243.5t-245.5 -115.5l-35 -184h-137l33 182 q-133 27 -205 123q-55 73 -54 162q0 28 5 57z" />
<glyph unicode="%" horiz-adv-x="1773" d="M272 1051q25 139 148 242.5t264 103.5t225 -104q64 -79 64 -180q0 -32 -6 -66q-27 -143 -149 -247t-263 -104q-145 0 -227 104q-62 78 -62 181q-1 34 6 70zM379 1049q-5 -28 -6 -54q0 -72 43 -126q57 -73 157 -72q102 0 184.5 73.5t102.5 180.5q4 24 5 47q0 71 -44 126 q-57 73 -155 72q-96 0 -182.5 -73.5t-104.5 -173.5zM524 0l871 1372h106l-870 -1372h-107zM1057 330q27 139 150.5 242.5t262.5 103.5q141 0 226 -104q64 -79 63 -180q0 -32 -6 -66q-27 -143 -149.5 -247t-264.5 -104q-143 0 -226 104q-63 78 -63 182q1 33 7 69zM1165 328 q-5 -28 -5 -55q0 -71 41 -125q56 -73 157 -72q102 0 184 73.5t103 180.5q5 25 4 48q0 70 -42 125q-56 73 -155 72q-96 0 -182.5 -73.5t-104.5 -173.5z" />
<glyph unicode="&#x26;" horiz-adv-x="1382" d="M150 397q49 262 393 406q-53 70 -66 90q-38 65 -38 140q0 29 5 59q23 125 136.5 215t249 90t214.5 -95q61 -73 62 -167q0 -29 -6 -60q-20 -102 -105.5 -185t-222.5 -128l213 -256l270 387h156l-342 -483l283 -340l-117 -95l-256 308q-215 -307 -475 -308q-178 0 -282 124 q-80 96 -80 221q1 37 8 77zM287 387q-6 -28 -6 -54q0 -81 53 -146q70 -85 184 -85q141 0 266 138q45 47 111 141l-272 324l-21 -13q-18 -6 -50 -21.5t-42 -19.5q-86 -39 -147.5 -110.5t-75.5 -153.5zM582 1092q-3 -16 -3 -31q0 -33 13 -63q18 -42 80 -115q2 -2 8 -9.5 t12 -11.5l13 4q106 33 176.5 93.5t83.5 127.5q3 16 3 33q0 52 -37 94q-48 55 -126 55.5t-143.5 -51.5t-79.5 -126z" />
<glyph unicode="'" horiz-adv-x="270" d="M266 973l60 399h127l-88 -399h-99z" />
<glyph unicode="(" horiz-adv-x="710" d="M172 512q76 412 432 725q88 76 152.5 112.5t152.5 63.5l-22 -131q-193 -102 -324 -262q-203 -240 -254 -508q-17 -90 -16 -174q0 -219 110 -406q66 -109 195 -198l-23 -131q-193 70 -317 301q-105 190 -105 413q0 94 19 195z" />
<glyph unicode=")" horiz-adv-x="710" d="M-12 -397l22 131q193 102 324 262q207 248 254 508q17 90 16 174q0 219 -110 405q-70 113 -195 201l23 129q190 -68 317 -301q105 -190 105 -413q0 -95 -19 -195q-74 -410 -434 -725q-86 -76 -150.5 -112.5t-152.5 -63.5z" />
<glyph unicode="*" horiz-adv-x="806" d="M324 1126l53 103l188 -70l39 213h109l-45 -215l215 70l14 -105l-215 -61l94 -170l-100 -66l-90 176l-156 -174l-76 64l162 172z" />
<glyph unicode="+" d="M205 625l22 123h365l65 354h123l-65 -354h364l-22 -123h-365l-65 -355h-123l65 355h-364z" />
<glyph unicode="," horiz-adv-x="405" d="M4 -125l232 358h137l-232 -358h-137z" />
<glyph unicode="-" horiz-adv-x="479" d="M84 459l22 123h480l-23 -123h-479z" />
<glyph unicode="." horiz-adv-x="405" d="M135 0l43 233h137l-43 -233h-137z" />
<glyph unicode="/" horiz-adv-x="790" d="M-84 -356l899 1728h127l-903 -1728h-123z" />
<glyph unicode="0" d="M162 496l76 409q39 203 170 332q164 160 364 160q193 0 291 -140q70 -100 70 -237q0 -54 -11 -115l-75 -409q-41 -221 -156 -344q-164 -176 -383 -177q-115 0 -201 53.5t-131 151.5q-29 67 -29 164q1 69 15 152zM303 518q-17 -91 -17 -159q0 -86 27 -134 q68 -127 217 -127q168 0 285 150q66 84 98 270l68 356q13 72 13 130q0 90 -31 145t-90.5 90t-122.5 35q-70 0 -149 -41t-132 -107q-68 -90 -98 -252z" />
<glyph unicode="1" d="M500 1249l22 123h373l-254 -1372h-137l231 1249h-235z" />
<glyph unicode="2" d="M61 0l23 123l567 465q152 125 195 168q119 119 137 227q23 119 -49 205t-193 86q-80 0 -159.5 -43t-130.5 -113q-47 -63 -72 -188h-135l2 18q37 199 184.5 324t341.5 125q176 0 278.5 -122t69.5 -296q-20 -109 -93 -205t-236 -227l-523 -424h688l-22 -123h-873z" />
<glyph unicode="3" d="M139 430h135q-3 -35 -3 -66q0 -82 24 -131q68 -135 217 -135q125 0 232.5 92.5t129.5 217.5q6 31 6 59q0 71 -35 132q-50 85 -147 110q-43 10 -157 12l22 121q18 -2 45 -2q115 0 197 59t100 156q4 24 4 45q0 65 -37 111q-49 62 -141 62.5t-161.5 -67t-90.5 -176.5h-135 q33 162 148.5 264.5t267.5 102.5q145 0 226 -102q61 -76 61 -179q0 -34 -7 -72q-16 -80 -58 -139t-130 -119q170 -100 170 -283q0 -41 -8 -87q-33 -180 -187.5 -310.5t-334.5 -130.5q-186 0 -286 129q-75 97 -75 233q0 44 8 93z" />
<glyph unicode="4" d="M70 252l22 123l852 997h164l-186 -997h125l-23 -123h-125l-45 -252h-137l45 252h-692zM250 375h534l150 807z" />
<glyph unicode="5" d="M119 430h135q-1 -18 -1 -34q0 -124 66 -206q76 -92 207 -92q137 0 253 103.5t143 251.5q8 40 7 76q0 99 -57 177q-78 105 -215 105q-158 0 -309 -156l-100 39l250 678h618l-22 -123h-508l-142 -381q133 66 248 66q188 0 296 -141q80 -105 80 -243q0 -47 -9 -97 q-35 -199 -197 -338.5t-354 -139.5q-137 0 -236.5 73t-136.5 200q-17 60 -17 146q0 18 1 36z" />
<glyph unicode="6" d="M129 459q18 98 66.5 179t175.5 228l434 506h158l-408 -471q84 33 160 33q178 0 283 -142q79 -107 80 -243q0 -45 -9 -92q-37 -199 -202 -340.5t-357 -141.5q-197 0 -307 142q-83 106 -83 245q0 47 9 97zM266 463q-7 -39 -7 -75q0 -104 57 -183q77 -106 216 -107 q137 0 255 104.5t145 252.5q7 37 7 70q0 101 -59 180q-79 104 -214 104q-137 0 -255 -102.5t-145 -243.5z" />
<glyph unicode="7" d="M221 0l797 1249h-651l22 123h793l-23 -123l-792 -1249h-146z" />
<glyph unicode="8" d="M152 399q20 119 105 222.5t196 144.5q-55 39 -78 72q-39 61 -40 138q0 32 7 66q29 150 152.5 252.5t277.5 102.5t240 -105q65 -78 64 -183q0 -35 -7 -73q-35 -188 -213 -270q100 -51 148 -149q32 -66 31 -140q0 -36 -7 -74q-33 -176 -186.5 -302t-335.5 -126 q-178 0 -283 125q-80 95 -79 219q0 38 8 80zM287 393q-5 -30 -6 -57q0 -86 54 -152q71 -86 193 -86q127 0 233.5 88t129.5 213q5 29 5 56q0 87 -55 154q-73 87 -198 87q-123 0 -228 -89t-128 -214zM481 1053q-5 -24 -4 -46q0 -65 40 -115q54 -67 151 -67q90 0 170 66.5 t98 159.5q4 22 4 42q0 66 -41 115q-53 66 -147.5 66t-174.5 -65.5t-96 -155.5z" />
<glyph unicode="9" d="M213 915q37 199 202 340.5t357 141.5q197 0 307 -142q83 -106 83 -245q0 -46 -9 -97q-18 -100 -64.5 -179t-177.5 -228l-434 -506h-155l403 471q-84 -33 -158 -33q-178 0 -283 143q-79 107 -80 242q0 44 9 92zM352 918q-7 -37 -7 -72q0 -101 58 -178q78 -104 213 -105 q137 0 255 102.5t145 243.5q7 39 7 75q0 104 -57 183q-77 106 -216 107q-137 0 -254 -104.5t-144 -251.5z" />
<glyph unicode=":" horiz-adv-x="405" d="M135 0l43 233h137l-43 -233h-137zM279 782l43 234h137l-43 -234h-137z" />
<glyph unicode=";" horiz-adv-x="405" d="M4 -125l232 358h137l-232 -358h-137zM336 782l43 234h137l-43 -234h-137z" />
<glyph unicode="&#x3c;" d="M186 635l21 115l971 411l-25 -131l-815 -338l688 -340l-22 -129z" />
<glyph unicode="=" d="M182 502l25 123h850l-23 -123h-852zM227 750l25 122h850l-23 -122h-852z" />
<glyph unicode="&#x3e;" d="M111 223l24 131l813 338l-688 338l25 131l813 -411l-21 -115z" />
<glyph unicode="?" horiz-adv-x="960" d="M205 944l6 37q33 170 184.5 293t329.5 123t277 -119q75 -89 75 -210q0 -40 -8 -83q-16 -86 -65.5 -153.5t-155.5 -153.5q-113 -88 -168 -161t-78 -159h-137l6 29q31 172 258 348q113 88 152 136.5t51 117.5q5 27 5 53q0 80 -53 142q-71 82 -190 82q-162 0 -280 -142 q-55 -66 -78 -180h-131zM399 0l43 233h138l-43 -233h-138z" />
<glyph unicode="@" horiz-adv-x="1560" d="M195 532q55 299 299.5 505t547.5 206q281 0 435 -174q118 -133 117 -318q0 -57 -11 -118q-37 -195 -166 -342.5t-264 -147.5q-63 0 -97 39q-27 31 -27 79q0 11 1 24q-121 -150 -285 -150q-127 0 -190 94q-45 66 -45 159q0 38 8 81q33 174 161 297t279 123q170 0 201 -166 l53 141l97 -2l-166 -440q-31 -76 -33 -96q-3 -14 -3 -27q0 -27 12 -45q17 -27 57 -27q94 0 191 124t126 280q10 54 10 104q0 159 -100 271q-131 147 -375 147q-262 0 -475 -180t-262 -443q-12 -67 -12 -128q0 -176 100 -308q143 -182 440 -182q223 0 459 100l12 -88 q-242 -102 -489 -102q-334 0 -496 203q-80 96 -109 230q-15 68 -16 139q1 68 15 138zM627 473q-7 -33 -7 -63q0 -64 30 -110q44 -67 134 -67q104 0 192.5 98.5t117.5 243.5q6 32 5 60q0 59 -27 98q-40 57 -124 58q-109 0 -202.5 -93.5t-118.5 -224.5z" />
<glyph unicode="A" horiz-adv-x="1349" d="M10 0l842 1372h154l335 -1372h-149l-115 463h-639l-284 -463h-144zM514 586h535l-148 631z" />
<glyph unicode="B" horiz-adv-x="1095" d="M147 0l254 1372h344q205 0 302 -90q89 -81 89 -202q0 -35 -8 -72q-14 -86 -62 -150.5t-140 -126.5q98 -43 142 -133q30 -62 30 -134q0 -34 -6 -71q-39 -205 -220 -313q-78 -47 -156.5 -63.5t-221.5 -16.5h-347zM307 123h193q176 0 264 37q70 29 123 95.5t67 137.5 q4 23 5 45q0 51 -23 97q-33 66 -100 92q-78 31 -263 30h-167zM428 780h172q164 0 246 41q53 27 94 80t51 111q4 23 5 44q0 80 -62 134q-72 59 -234 59h-184z" />
<glyph unicode="C" horiz-adv-x="1478" d="M201 686q55 299 301 505t545 206q252 0 419 -156q115 -109 142 -219h-154q-57 117 -172 184.5t-258 67.5q-231 0 -437 -176t-251 -414q-43 -233 98 -409.5t371 -176.5q186 0 366 117q88 59 166 145h154q-129 -178 -318.5 -281.5t-386.5 -103.5q-299 0 -469.5 207 t-115.5 504z" />
<glyph unicode="D" horiz-adv-x="1380" d="M147 0l254 1372h394q276 0 430 -112q127 -92 183 -248q36 -98 36 -204q0 -61 -12 -124q-33 -174 -148 -329.5t-278 -248.5q-186 -106 -457 -106h-402zM307 123h199q182 0 293.5 28.5t212.5 102.5q236 168 284 434q10 55 10 106q0 85 -27 159q-44 120 -151 198 q-135 98 -413 98h-199z" />
<glyph unicode="E" horiz-adv-x="997" d="M147 0l254 1372h752l-23 -123h-614l-92 -493h594l-23 -123h-594l-94 -510h615l-23 -123h-752z" />
<glyph unicode="F" horiz-adv-x="901" d="M147 0l254 1372h695l-23 -123h-557l-92 -497h537l-25 -123h-537l-114 -629h-138z" />
<glyph unicode="G" horiz-adv-x="1603" d="M201 686q53 295 306 503t558 208q254 0 422 -152q131 -115 151 -237h-155q-47 121 -167 193.5t-269 72.5q-248 0 -456 -173t-253 -415t100.5 -415t395.5 -173q190 0 371 118t257 292h-766l25 123h932q-76 -279 -319.5 -467.5t-528.5 -188.5q-301 0 -479 210t-125 501z " />
<glyph unicode="H" horiz-adv-x="1284" d="M147 0l254 1372h138l-113 -604h713l112 604h138l-254 -1372h-138l119 645h-713l-118 -645h-138z" />
<glyph unicode="I" horiz-adv-x="434" d="M147 0l254 1372h138l-254 -1372h-138z" />
<glyph unicode="J" horiz-adv-x="868" d="M59 326h136q-10 -100 45 -164t151 -64q72 0 135.5 39t98.5 105q25 46 47 164l180 966h137l-180 -966q-33 -176 -92 -254q-61 -82 -155.5 -129.5t-196.5 -47.5q-156 0 -241 97.5t-65 253.5z" />
<glyph unicode="K" horiz-adv-x="1114" d="M147 0l254 1372h138l-148 -788l780 788h177l-668 -670l414 -702h-172l-351 594l-217 -217l-69 -377h-138z" />
<glyph unicode="L" horiz-adv-x="890" d="M147 0l254 1372h138l-232 -1249h570l-23 -123h-707z" />
<glyph unicode="M" horiz-adv-x="1720" d="M147 0l254 1372h211l283 -1167l717 1167h213l-254 -1372h-137l225 1221l-744 -1221h-116l-289 1221l-225 -1221h-138z" />
<glyph unicode="N" horiz-adv-x="1388" d="M147 0l254 1372h187l559 -1139l211 1139h137l-254 -1372h-137l-596 1208l-223 -1208h-138z" />
<glyph unicode="O" horiz-adv-x="1599" d="M201 694q35 186 164 349t314 258.5t380 95.5q299 0 475 -209q134 -159 134 -367q0 -65 -13 -135q-53 -291 -306 -501t-552 -210q-303 0 -478 210q-132 159 -132 370q1 67 14 139zM338 690q-11 -60 -11 -115q0 -173 106 -304q140 -173 386 -173q240 0 445.5 173t251.5 413 q11 59 10 114q0 170 -106 302q-140 174 -384 174q-240 0 -446.5 -173t-251.5 -411z" />
<glyph unicode="P" horiz-adv-x="1107" d="M147 0l254 1372h383q233 0 340 -80q72 -53 101 -140q17 -51 16 -107q0 -40 -8 -84q-35 -199 -205 -312q-141 -94 -362 -94h-279l-102 -555h-138zM410 678h258q172 0 266 55q133 78 164 230q6 29 5 55q0 51 -21 95q-32 67 -101 99q-49 23 -95 30t-171 7h-199z" />
<glyph unicode="Q" horiz-adv-x="1624" d="M199 682q57 303 308 509t566.5 206t488.5 -206q130 -155 130 -368q0 -71 -15 -147q-57 -291 -325 -506q86 -68 168 -68q16 0 28 2l-24 -129q-100 0 -163 27t-122 92q-197 -119 -434 -119q-305 0 -482 207q-136 159 -137 369q1 63 13 131zM328 518q156 45 299 45 q297 0 495 -162q78 -66 150 -139q225 186 268 418q11 60 11 115q0 174 -107 306q-141 173 -391 173q-254 0 -463 -174t-254 -424q-10 -52 -10 -108q0 -25 2 -50zM365 401q31 -94 122 -182q137 -121 347 -121q176 0 319 90q-14 14 -27 21q-23 23 -67 63q-180 168 -475 168 q-113 0 -219 -39z" />
<glyph unicode="R" horiz-adv-x="1163" d="M147 0l254 1372h349q205 0 301 -39q117 -49 171 -157.5t29 -245.5q-33 -172 -169 -290t-316 -128l293 -512h-172l-350 623h55q133 0 193.5 9t121.5 40q80 39 135.5 109.5t71.5 154.5q14 80 -13.5 150.5t-86.5 111.5q-82 51 -258 51h-240l-231 -1249h-138z" />
<glyph unicode="S" horiz-adv-x="950" d="M100 385h148l-2 -39q0 -89 33 -145q29 -47 82 -75t116 -28q115 0 212 81t118 194q5 25 5 49q0 84 -62 147q-51 53 -197 93q-102 29 -152.5 53t-85.5 67q-57 70 -56 169q0 36 7 77q29 158 159 263.5t296 105.5q162 0 251 -107q67 -81 67 -190q0 -35 -7 -74h-143q2 20 2 38 q0 85 -46 141q-56 69 -159 69q-100 0 -182 -70.5t-101 -171.5q-5 -26 -5 -49q0 -65 42 -109q45 -45 189 -86q117 -35 156.5 -53t78.5 -57q89 -89 89 -221q0 -38 -7 -78q-31 -166 -176 -285t-319 -119q-182 0 -280 114q-76 89 -76 221q-1 36 5 75z" />
<glyph unicode="T" horiz-adv-x="817" d="M256 1249l23 123h768l-23 -123h-315l-232 -1249h-137l231 1249h-315z" />
<glyph unicode="U" horiz-adv-x="1204" d="M229 516l160 856h137l-159 -856q-12 -64 -12 -119q0 -107 44 -179q68 -110 221.5 -109.5t262 110t143.5 297.5l160 856h137l-160 -856q-41 -231 -168 -366q-168 -174 -399 -175q-109 0 -198 46.5t-134 128.5q-50 84 -50 212q0 70 15 154z" />
<glyph unicode="V" horiz-adv-x="1261" d="M250 1372h151l261 -1200l708 1200h150l-824 -1372h-135z" />
<glyph unicode="W" horiz-adv-x="1802" d="M285 1372h141l113 -1196l553 1196h129l106 -1194l559 1194h142l-648 -1372h-176l-96 1124l-508 -1124h-178z" />
<glyph unicode="X" horiz-adv-x="1120" d="M10 0l596 700l-315 672h160l264 -549l465 549h157l-565 -672l340 -700h-162l-278 586l-500 -586h-162z" />
<glyph unicode="Y" horiz-adv-x="1101" d="M256 1372h152l249 -770l545 770h150l-652 -913l-84 -459h-137l84 459z" />
<glyph unicode="Z" horiz-adv-x="954" d="M51 0l23 123l882 1126h-653l23 123h809l-23 -123l-883 -1126h695l-23 -123h-850z" />
<glyph unicode="[" horiz-adv-x="710" d="M162 115l145 782q23 125 71 211t140 164q125 111 258 141l-24 -133q-258 -96 -312 -381l-141 -760q-29 -160 7 -248t161 -155l-25 -133q-141 41 -221 153q-98 144 -59 359z" />
<glyph unicode="\" horiz-adv-x="790" d="M356 1372h127l256 -1728h-123z" />
<glyph unicode="]" horiz-adv-x="710" d="M123 -397l24 133q258 98 312 381l141 760q13 71 13 127q0 71 -20 120q-36 88 -161 156l25 133q143 -41 219 -153q53 -76 67 -159q6 -34 6 -74q0 -57 -12 -126l-145 -782q-23 -125 -71 -211t-140 -164q-125 -110 -258 -141z" />
<glyph unicode="^" d="M199 762l485 614h170l256 -614h-143l-217 510l-408 -510h-143z" />
<glyph unicode="_" horiz-adv-x="1024" d="M0 -141h1024v-121h-1024v121z" />
<glyph unicode="`" d="M510 1409l90 86l268 -270l-86 -82z" />
<glyph unicode="a" horiz-adv-x="1280" d="M162 510q41 223 228.5 376.5t416.5 153.5q254 0 360 -204l33 180h131l-186 -1016h-131l33 178q-186 -203 -439 -203q-227 0 -357 156q-99 118 -99 276q0 50 10 103zM293 514q-8 -43 -8 -83q0 -122 74 -215q99 -124 270 -124q164 0 305 122t172 292q8 45 8 86 q0 120 -71 210q-95 122 -261 122t-312 -122t-177 -288z" />
<glyph unicode="b" horiz-adv-x="1280" d="M135 0l254 1372h137l-98 -530q170 199 428 198q227 0 358 -154q100 -118 100 -273q0 -49 -9 -101q-41 -221 -229.5 -379t-409.5 -158q-127 0 -226.5 53.5t-142.5 145.5l-31 -174h-131zM358 514q-8 -48 -8 -90q0 -123 70 -209q98 -123 268 -123t311.5 122t173.5 298 q8 43 9 83q0 119 -73 209q-97 120 -267 120q-174 0 -312.5 -118t-171.5 -292z" />
<glyph unicode="c" horiz-adv-x="1173" d="M162 506q41 221 230.5 377.5t414.5 156.5q172 0 291 -90t153 -241h-153q-41 102 -124 158.5t-192 56.5q-172 0 -313 -121t-174 -293q-33 -176 63.5 -297t270.5 -121q109 0 201 48t190 157h154q-66 -92 -119.5 -143.5t-132.5 -96.5q-150 -82 -304 -82q-233 0 -365 154 t-91 377z" />
<glyph unicode="d" horiz-adv-x="1275" d="M160 508q41 223 229.5 377.5t415.5 154.5q242 0 362 -186l97 518h131l-254 -1372h-123l33 182q-102 -98 -179 -141q-121 -66 -268 -66q-225 0 -354 156q-99 120 -99 278q0 48 9 99zM293 518q-8 -44 -8 -85q0 -122 72 -216q97 -125 268 -125q166 0 310 124t175 294 q8 43 8 82q0 120 -75 211q-99 121 -269 121q-164 0 -307 -121t-174 -285z" />
<glyph unicode="e" horiz-adv-x="1198" d="M162 508q41 219 225 375.5t404 156.5q141 0 249.5 -71.5t157.5 -198.5q27 -65 27 -162q0 -66 -13 -147h-921q-4 -26 -4 -52q0 -117 79 -207q95 -110 246 -110q113 0 228.5 68.5t175.5 171.5h143q-84 -158 -242.5 -257.5t-322.5 -99.5q-219 0 -346 156q-96 118 -96 273 q0 50 10 104zM315 578h781q-8 158 -96.5 252t-231.5 94t-270.5 -97t-182.5 -249z" />
<glyph unicode="f" horiz-adv-x="577" d="M176 0l166 899h-158l21 117h157q27 104 55.5 158.5t84.5 99.5q115 92 295 92h20l-22 -125q-8 2 -21 2q-129 0 -205 -69q-53 -47 -75 -158h258l-21 -117h-258l-166 -899h-131z" />
<glyph unicode="g" horiz-adv-x="1259" d="M98 -27h135q35 -94 78 -149q84 -106 252 -107q164 0 288 104.5t157 266.5l22 113q-66 -102 -185.5 -164t-252.5 -62q-219 0 -345 156q-96 119 -96 274q0 48 9 99q41 219 224 377.5t396 158.5q262 0 367 -209l33 185h131l-164 -893q-23 -125 -55.5 -191.5t-102.5 -138.5 q-88 -88 -211 -140t-248 -52q-109 0 -204 45t-154 125q-58 75 -74 202zM293 518q-9 -48 -9 -91q0 -123 68 -213q92 -122 262 -122q164 0 302.5 123t170.5 297q7 41 8 79q0 120 -73 212q-96 121 -264 121q-160 0 -296 -119t-169 -287z" />
<glyph unicode="h" horiz-adv-x="1155" d="M135 0l254 1372h131l-90 -487q61 72 153.5 113.5t184.5 41.5q106 0 193.5 -44t134.5 -122q72 -119 34 -317l-102 -557h-131l102 557q31 156 -26 250q-74 117 -228 117q-156 0 -278 -129q-68 -72 -98 -238l-103 -557h-131z" />
<glyph unicode="i" horiz-adv-x="399" d="M135 0l187 1016h131l-187 -1016h-131zM346 1139l43 233h131l-43 -233h-131z" />
<glyph unicode="j" horiz-adv-x="399" d="M-139 -356l24 133q115 6 173.5 71.5t86.5 221.5l174 946h132l-175 -946q-29 -147 -68.5 -222t-121.5 -133q-98 -65 -225 -71zM344 1139l43 233h131l-43 -233h-131z" />
<glyph unicode="k" horiz-adv-x="948" d="M135 0l254 1372h131l-182 -977l592 621h166l-494 -512l328 -504h-168l-260 401l-201 -206l-35 -195h-131z" />
<glyph unicode="l" horiz-adv-x="399" d="M135 0l254 1372h131l-254 -1372h-131z" />
<glyph unicode="m" horiz-adv-x="1765" d="M135 0l187 1016h131l-21 -119q104 143 299 143q133 0 230 -77q41 -33 83 -117q59 88 163 141t216 53q88 0 165 -43t122 -114q70 -113 39 -281l-111 -602h-131l109 590q27 143 -25 225q-68 109 -194 109q-141 0 -250 -119q-59 -70 -86 -215l-109 -590h-131l111 604 q27 137 -35.5 228.5t-183.5 91.5q-150 0 -250 -123q-59 -74 -82 -197l-111 -604h-135z" />
<glyph unicode="n" horiz-adv-x="1155" d="M135 0l187 1016h131l-23 -131q168 156 342 155q106 0 192.5 -44t131.5 -122q72 -123 34 -317l-102 -557h-131l102 557q31 160 -26 250q-72 117 -223 117q-156 0 -275 -129q-68 -74 -98 -238l-103 -557h-139z" />
<glyph unicode="o" horiz-adv-x="1200" d="M164 514q39 213 226.5 369.5t402.5 156.5q217 0 344 -157q96 -119 96 -273q0 -49 -10 -102q-41 -217 -226.5 -375t-402.5 -158q-221 0 -346 157q-94 118 -94 275q0 51 10 107zM295 510q-8 -45 -9 -87q0 -120 70 -210q94 -121 262 -121t305.5 122t170.5 300q8 43 7 82 q0 115 -67 201q-102 127 -262 127q-164 0 -305 -122t-172 -292z" />
<glyph unicode="p" horiz-adv-x="1280" d="M68 -356l254 1372h131l-31 -174q76 92 195.5 145t246.5 53q221 0 350 -157q98 -120 98 -276q0 -50 -9 -103q-41 -219 -229.5 -374t-416.5 -155q-254 0 -354 199l-98 -530h-137zM358 514q-9 -49 -8 -92q0 -131 78 -219q94 -111 260 -111q170 0 310.5 120t172.5 292 q8 45 9 86q0 121 -72 212q-96 122 -268 122q-170 0 -309.5 -119t-172.5 -291z" />
<glyph unicode="q" horiz-adv-x="1271" d="M162 506q41 219 228.5 376.5t408.5 157.5q129 0 228 -53t140 -145l31 174h125l-254 -1372h-131l98 530q-170 -199 -428 -199q-225 0 -356 156q-100 119 -100 274q0 49 10 101zM293 504q-8 -43 -8 -84q0 -119 72 -208q97 -120 268 -120q172 0 310 118t171 292q8 48 8 91 q0 125 -70 210q-102 121 -266 121q-170 0 -311 -122t-174 -298z" />
<glyph unicode="r" horiz-adv-x="581" d="M135 0l187 1016h124l-26 -146q102 160 328 170l-27 -137q-113 -10 -197 -69q-68 -49 -100.5 -103.5t-48.5 -138.5l-109 -592h-131z" />
<glyph unicode="s" horiz-adv-x="772" d="M104 299h138q-14 -94 27.5 -150.5t123.5 -56.5q72 0 135.5 54.5t77.5 127.5q14 70 -23.5 114t-140.5 81q-127 45 -174 96q-66 72 -45 185q23 121 124.5 205.5t221.5 84.5q117 0 183.5 -78.5t50.5 -197.5h-139q8 72 -26 116t-97 44q-59 0 -115.5 -46.5t-67.5 -105.5 q-14 -72 41 -117q27 -23 109 -53q150 -51 203 -119.5t32 -179.5q-27 -143 -133 -235.5t-248 -92.5q-139 0 -212 90.5t-46 233.5z" />
<glyph unicode="t" horiz-adv-x="540" d="M129 899l21 117h212l68 356h131l-67 -356h241l-20 -117h-242l-166 -899h-131l166 899h-213z" />
<glyph unicode="u" horiz-adv-x="1150" d="M211 457l102 559h131l-102 -559q-11 -59 -11 -108q0 -74 25 -126q66 -131 232 -131q160 0 276 129q76 84 105 236l102 559h131l-186 -1016h-123l29 156q-143 -180 -377 -181q-221 0 -309 162q-39 69 -40 175q0 66 15 145z" />
<glyph unicode="v" horiz-adv-x="999" d="M186 1016h140l198 -854l523 854h139l-615 -1016h-143z" />
<glyph unicode="w" horiz-adv-x="1538" d="M207 1016h135l166 -850l366 727h115l101 -727l481 850h133l-574 -1016h-147l-90 676l-340 -676h-147z" />
<glyph unicode="x" horiz-adv-x="888" d="M20 0l441 516l-254 500h155l195 -391l338 391h160l-441 -500l254 -516h-155l-197 406l-340 -406h-156z" />
<glyph unicode="y" horiz-adv-x="962" d="M162 -356l237 389l-213 983h150l174 -809l494 809h145l-842 -1372h-145z" />
<glyph unicode="z" horiz-adv-x="825" d="M43 0l20 117l709 782h-545l21 117h698l-22 -121l-701 -778h592l-20 -117h-752z" />
<glyph unicode="{" horiz-adv-x="710" d="M145 459l19 102q70 18 103.5 61.5t49.5 127.5l66 350q29 145 107.5 211.5t226.5 66.5h43l-21 -110q-115 -4 -162 -41t-65 -144l-63 -342q-18 -98 -55.5 -148t-117.5 -87q66 -35 84 -89q9 -27 9.5 -65t-9.5 -86l-61 -325q-8 -44 -8 -77q0 -51 19 -75q32 -39 149 -41 l-21 -110q-104 0 -151 10t-78 39q-52 48 -52 150q0 47 11 106l59 321q8 44 8 76q0 35 -9 57q-18 44 -81 62z" />
<glyph unicode="|" d="M385 -344l320 1716h131l-320 -1716h-131z" />
<glyph unicode="}" horiz-adv-x="710" d="M137 -362l21 110q117 4 163 41t66 143l64 342q18 98 55 148.5t117 87.5q-66 37 -84 90q-9 27 -9.5 64t9.5 86l61 325q8 43 8 76q0 52 -20 76q-33 39 -150 41l21 110q104 0 152 -10t79 -39q51 -47 51 -151q0 -47 -10 -105l-59 -321q-8 -44 -8 -77q0 -35 9 -57 q17 -43 79 -61l-19 -102q-68 -18 -101.5 -61.5t-49.5 -127.5l-66 -348q-29 -147 -107.5 -213.5t-228.5 -66.5h-43z" />
<glyph unicode="~" horiz-adv-x="1372" d="M424 1257q86 125 158.5 177.5t160.5 52.5q78 0 220 -74q131 -70 192 -70q59 0 106.5 32t112.5 114l72 -47q-156 -223 -330 -223q-45 0 -93 18t-175 84q-76 41 -135 41q-104 0 -217 -156z" />
<glyph unicode="&#xa1;" horiz-adv-x="460" d="M94 -356l189 1018h137l-189 -1018h-137zM305 782l43 234h137l-43 -234h-137z" />
<glyph unicode="&#xa2;" d="M207 711q31 168 168 290.5t311 137.5l31 174h137l-31 -172q117 -18 194 -93t93 -188h-145q-27 72 -94.5 113t-161.5 41q-133 0 -241 -88t-130 -215q-5 -29 -5 -56q0 -92 59 -160q77 -89 208 -89q158 0 297 133h143q-49 -96 -155.5 -169t-220.5 -89l-31 -166h-137l30 166 q-100 8 -170 55q-88 57 -129 161q-27 69 -27 141q0 36 7 73z" />
<glyph unicode="&#xa3;" d="M55 0l23 123h258q94 82 119 215q16 90 -15 164q-14 35 -28.5 55.5t-65.5 71.5l-14 16h-205l23 123h114q-33 63 -12 176q35 182 186.5 317.5t325.5 135.5q160 0 263.5 -113t90.5 -274h-129q-2 113 -74.5 188.5t-175.5 75.5q-121 0 -222 -95.5t-128 -232.5 q-18 -100 19 -178h456l-22 -123h-326q106 -141 76 -309q-18 -96 -94 -213h61q158 0 250 70q109 84 131 215q8 43 6 90h133q6 -59 -4 -105q-35 -186 -205 -307q-125 -86 -329 -86h-486z" />
<glyph unicode="&#xa4;" horiz-adv-x="1224" d="M141 244l181 153q-55 98 -55 208q0 42 7 85q31 160 156 285l-123 149l88 74l121 -149q152 102 307 102q160 0 271 -102l182 153l61 -74l-182 -153q53 -94 53 -201q0 -41 -8 -84q-29 -158 -153 -293l120 -147l-88 -74l-118 148q-145 -100 -312 -101q-158 0 -266 101 l-182 -154zM399 690q-8 -38 -7 -74q0 -99 59 -174q80 -102 221 -102t259 101.5t146 246.5q7 35 7 67q0 99 -62 177q-82 102 -221 102q-137 0 -256 -102.5t-146 -241.5z" />
<glyph unicode="&#xa5;" d="M199 442l20 117h309l-65 213h-246l23 117h188l-147 483h151l201 -702l473 702h149l-331 -483h192l-22 -117h-250l-146 -213h316l-21 -117h-331l-82 -442h-138l82 442h-325z" />
<glyph unicode="&#xa6;" d="M385 -344l123 659h131l-123 -659h-131zM578 692l127 680h131l-127 -680h-131z" />
<glyph unicode="&#xa7;" d="M158 119h131q-3 -23 -3 -45q0 -86 46 -143q57 -71 164 -70q94 0 166.5 58t89.5 144q3 15 2 29q0 40 -22 70q-30 41 -120 92l-307 176q-51 29 -75 83q-16 38 -16 79q0 18 3 37q33 164 219 282q-46 55 -46 134q0 26 5 55q23 125 131.5 211t241.5 86q131 0 213 -79 q68 -66 68 -155q0 -18 -2 -37h-132l2 18q0 52 -43 88q-49 42 -129 42q-84 0 -146 -50t-77 -130q-3 -15 -3 -29q0 -78 87 -127l250 -135q104 -57 143 -120q28 -46 29 -103q0 -21 -4 -43q-14 -74 -69.5 -148t-129.5 -117q62 -64 63 -154q0 -25 -5 -52q-27 -139 -143.5 -233.5 t-266.5 -94.5q-164 0 -252 106q-69 83 -69 204q1 34 6 71zM352 651q-2 -13 -2 -26q0 -72 80 -115l318 -174q53 31 93 82t50 102q3 14 3 28q0 80 -95 132l-295 164q-57 -33 -99.5 -85.5t-52.5 -107.5z" />
<glyph unicode="&#xa8;" d="M532 1174l43 233h132l-43 -233h-132zM799 1174l43 233h131l-43 -233h-131z" />
<glyph unicode="&#xa9;" horiz-adv-x="1613" d="M223 694q35 186 162 349t309.5 258.5t370.5 95.5q293 0 464 -209q129 -158 129 -364q0 -67 -13 -138q-53 -291 -301 -501t-541 -210q-297 0 -466 210q-127 158 -127 367q-1 68 13 142zM289 692q-13 -69 -13 -132q0 -190 115 -335q154 -193 422 -192q262 0 488.5 192.5 t275.5 458.5q13 67 13 129q0 188 -116 333q-155 194 -419 193q-262 0 -489.5 -192.5t-276.5 -454.5zM483 700q33 178 188.5 302t348.5 124q131 0 234.5 -67.5t127.5 -167.5h-108q-37 70 -108.5 109.5t-161.5 39.5q-143 0 -269.5 -102t-150.5 -240q-5 -29 -6 -56 q0 -99 69 -179q88 -102 232 -103q180 0 327 154h113q-86 -113 -206 -176.5t-249 -63.5q-193 0 -303 124q-85 96 -85 224q0 37 7 78z" />
<glyph unicode="&#xaa;" horiz-adv-x="841" d="M213 856q25 133 144.5 226.5t267.5 93.5q154 0 223 -107l18 92h97l-115 -612h-96l18 92q-113 -106 -266 -106q-145 0 -231 94q-66 73 -66 169q0 28 6 58zM309 858q-4 -23 -4 -45q0 -72 47 -126q61 -71 166 -71q100 0 186.5 71t104.5 167q4 23 4 45q0 70 -45 124 q-59 71 -161.5 71t-191 -71t-106.5 -165z" />
<glyph unicode="&#xab;" horiz-adv-x="833" d="M186 522l279 369l98 -57l-231 -312l114 -313l-118 -59zM510 522l276 369l99 -57l-232 -312l115 -313l-119 -59z" />
<glyph unicode="&#xac;" d="M147 428l23 121h893l-100 -549h-132l78 428h-762z" />
<glyph unicode="&#xad;" horiz-adv-x="479" d="M84 459l22 123h480l-23 -123h-479z" />
<glyph unicode="&#xae;" horiz-adv-x="1613" d="M223 694q35 186 162 349t309.5 258.5t370.5 95.5q293 0 464 -209q129 -158 129 -364q0 -67 -13 -138q-53 -291 -301 -501t-541 -210q-297 0 -466 210q-127 158 -127 367q-1 68 13 142zM289 692q-13 -69 -13 -132q0 -190 115 -335q154 -193 422 -192q262 0 488.5 192.5 t275.5 458.5q13 67 13 129q0 188 -116 333q-155 194 -419 193q-262 0 -489.5 -192.5t-276.5 -454.5zM602 289l152 823h227q129 0 193 -22q76 -29 112 -96q26 -46 26 -100q0 -24 -5 -50q-18 -100 -103.5 -171t-195.5 -81l190 -303h-127l-233 381h51q125 0 194 28 q102 47 123 150q3 14 3 27q0 29 -12 57q-17 41 -52 63q-51 31 -164 31h-143l-136 -737h-100z" />
<glyph unicode="&#xaf;" d="M440 1217l21 114h598l-21 -114h-598z" />
<glyph unicode="&#xb0;" horiz-adv-x="778" d="M319 1108q20 106 115.5 185t206.5 79q113 0 179 -78q51 -60 51 -138q0 -24 -5 -50q-23 -111 -117 -189.5t-206 -78.5q-115 0 -179 78q-49 60 -49 140q-1 25 4 52zM408 1108q-4 -19 -4 -37q0 -54 33 -95q44 -54 122 -54q76 0 140.5 54t78.5 130q3 18 4 35q0 53 -34 94 q-45 53 -121 53t-140.5 -53t-78.5 -127z" />
<glyph unicode="&#xb1;" d="M100 55l25 123h850l-23 -123h-852zM205 625l22 123h365l65 354h123l-65 -354h364l-22 -123h-365l-65 -355h-123l65 355h-364z" />
<glyph unicode="&#xb2;" horiz-adv-x="684" d="M150 549l16 82l356 276q117 90 155 134t48 96q12 66 -32 114.5t-118 48.5q-104 0 -176 -88q-29 -37 -41 -106q-2 -2 0 -8h-100l2 14q23 121 117 197.5t221 76.5q115 0 181.5 -73.5t45.5 -179.5q-12 -66 -58 -123.5t-151 -137.5l-309 -237h422l-16 -86h-563z" />
<glyph unicode="&#xb3;" horiz-adv-x="684" d="M199 817h100q-2 -22 -2 -40q0 -51 16 -79q43 -78 131 -77q76 0 140.5 52t79.5 124q2 14 2 28q0 43 -24 80q-32 49 -89 64q-31 6 -104 6l16 86q14 -2 33 -2q72 0 120 32.5t58 88.5q3 13 2 25q0 36 -23 62q-31 34 -86 33.5t-96 -38t-51 -101.5l-2 -4h-98q23 102 95 165.5 t173 63.5q96 0 149 -62q41 -48 41 -112q0 -20 -4 -41q-18 -90 -112 -149q57 -33 85 -92q19 -41 19 -87q0 -20 -4 -42q-20 -109 -118.5 -187.5t-215.5 -78.5q-74 0 -132 35.5t-85 95.5q-18 43 -18 98q0 25 4 53z" />
<glyph unicode="&#xb4;" d="M612 1225l371 270l57 -86l-370 -266z" />
<glyph unicode="&#xb5;" horiz-adv-x="1150" d="M59 -356l254 1372h131l-102 -559q-11 -59 -11 -108q0 -74 25 -126q66 -131 232 -131q160 0 276 129q76 84 105 236l102 559h131l-186 -1016h-123l29 156q-143 -180 -377 -181q-176 0 -273 109l-82 -440h-131z" />
<glyph unicode="&#xb6;" d="M240 1004q18 100 75.5 183t137.5 128q102 57 264 57h477l-20 -104h-119l-273 -1473h-114l272 1473h-168l-272 -1473h-115l158 850q-102 0 -156 23q-92 37 -131 126q-25 56 -25 125q1 41 9 85z" />
<glyph unicode="&#xb7;" horiz-adv-x="405" d="M209 403l43 234h137l-43 -234h-137z" />
<glyph unicode="&#xb8;" d="M342 -285l84 11q0 -27 21.5 -45.5t50.5 -18.5q35 0 62.5 24.5t33.5 61.5q2 11 2 21q0 26 -15 44q-22 26 -59 25q-41 0 -84 -41l-49 31l109 172h67l-67 -113q33 14 63 15q63 0 96 -41q24 -30 24 -73q0 -16 -3 -34q-12 -72 -69.5 -121t-129.5 -49q-131 0 -137 131z" />
<glyph unicode="&#xb9;" horiz-adv-x="684" d="M418 1286l16 86h250l-154 -823h-100l137 737h-149z" />
<glyph unicode="&#xba;" horiz-adv-x="790" d="M213 860q25 129 143.5 223.5t255.5 94.5q139 0 224 -96q65 -74 65 -168q0 -28 -6 -58q-25 -131 -143.5 -226t-255.5 -95q-143 0 -226 95q-63 73 -63 170q0 29 6 60zM309 858q-4 -25 -4 -47q0 -72 44 -125q58 -70 160.5 -70t186.5 71t103 173q4 23 4 45q0 68 -44 121 q-58 70 -158.5 70t-187 -71t-104.5 -167z" />
<glyph unicode="&#xbb;" horiz-adv-x="833" d="M139 209l234 313l-117 312l119 57l143 -369l-280 -372zM463 209l233 313l-116 312l118 57l142 -369l-279 -372z" />
<glyph unicode="&#xbc;" horiz-adv-x="1705" d="M418 1286l16 86h250l-154 -823h-100l137 737h-149zM492 0l872 1372h106l-872 -1372h-106zM1077 147l15 82l534 594h113l-109 -590h78l-16 -86h-78l-27 -147h-100l26 147h-436zM1212 233h318l82 449z" />
<glyph unicode="&#xbd;" horiz-adv-x="1705" d="M418 1286l16 86h250l-154 -823h-100l137 737h-149zM492 0l872 1372h106l-872 -1372h-106zM1073 0l14 82l357 276q115 90 155.5 134.5t49.5 95.5q3 14 2 28q0 50 -35 89q-45 49 -117 49q-109 0 -176 -88q-33 -45 -43 -109v-8h-100l4 16q23 121 116 198t220 77 q113 0 180 -75q53 -59 53 -136q0 -21 -4 -43q-12 -66 -59.5 -125.5t-149.5 -136.5l-311 -238h422l-15 -86h-563z" />
<glyph unicode="&#xbe;" horiz-adv-x="1705" d="M199 817h100q-2 -22 -2 -40q0 -51 16 -79q43 -78 131 -77q76 0 140.5 52t79.5 124q2 14 2 28q0 43 -24 80q-32 49 -89 64q-31 6 -104 6l16 86q14 -2 33 -2q72 0 120 32.5t58 88.5q3 13 2 25q0 36 -23 62q-31 34 -86 33.5t-96 -38t-51 -101.5l-2 -4h-98q23 102 95 165.5 t173 63.5q96 0 149 -62q41 -48 41 -112q0 -20 -4 -41q-18 -90 -112 -149q57 -33 85 -92q19 -41 19 -87q0 -20 -4 -42q-20 -109 -118.5 -187.5t-215.5 -78.5q-74 0 -132 35.5t-85 95.5q-18 43 -18 98q0 25 4 53zM492 0l870 1372h106l-872 -1372h-104zM1075 147l15 82l534 594 h113l-109 -590h80l-16 -86h-80l-27 -147h-100l26 147h-436zM1210 233h318l82 449z" />
<glyph unicode="&#xbf;" horiz-adv-x="960" d="M78 31q16 86 65.5 153.5t155.5 153.5q113 88 168 160.5t78 158.5h137q-31 -199 -264 -376q-113 -88 -152 -136.5t-51 -117.5q-5 -27 -5 -53q0 -80 53 -142q71 -82 190 -82q160 0 278 141q53 61 80 181h129q0 -10 -2 -22.5t-2 -14.5q-33 -170 -184.5 -293t-329.5 -123 t-278 119q-75 89 -74 210q0 40 8 83zM567 782l43 234h138l-43 -234h-138z" />
<glyph unicode="&#xc0;" horiz-adv-x="1349" d="M10 0l842 1372h154l335 -1372h-149l-115 463h-639l-284 -463h-144zM514 586h535l-148 631zM713 1702l78 102l317 -217l-78 -98z" />
<glyph unicode="&#xc1;" horiz-adv-x="1349" d="M10 0l842 1372h154l335 -1372h-149l-115 463h-639l-284 -463h-144zM514 586h535l-148 631zM827 1587l400 217l41 -102l-400 -213z" />
<glyph unicode="&#xc2;" horiz-adv-x="1349" d="M10 0l842 1372h154l335 -1372h-149l-115 463h-639l-284 -463h-144zM514 586h535l-148 631zM625 1509l311 234h125l221 -234h-166l-133 138l-188 -138h-170z" />
<glyph unicode="&#xc3;" horiz-adv-x="1349" d="M10 0l842 1372h154l335 -1372h-149l-115 463h-639l-284 -463h-144zM514 586h535l-148 631zM676 1618q92 106 198 106q35 0 58.5 -8t105.5 -47q51 -27 78 -27q61 0 123 74l51 -82q-88 -104 -200 -104q-37 0 -63 9t-107 50q-37 18 -70 19q-57 0 -123 -72z" />
<glyph unicode="&#xc4;" horiz-adv-x="1349" d="M10 0l842 1372h154l335 -1372h-149l-115 463h-639l-284 -463h-144zM514 586h535l-148 631zM748 1509l43 234h137l-43 -234h-137zM1022 1509l43 234h137l-43 -234h-137z" />
<glyph unicode="&#xc5;" horiz-adv-x="1349" d="M10 0l842 1372h154l335 -1372h-149l-115 463h-639l-284 -463h-144zM514 586h535l-148 631zM793 1677q14 78 82.5 134.5t146.5 56.5q80 0 125 -57q34 -43 34 -99q0 -18 -3 -37q-14 -78 -81 -135t-147 -57t-126 56q-35 43 -35 101q1 18 4 37zM889 1677q-2 -11 -2 -22 q0 -29 16 -50q23 -30 64 -30q39 0 72.5 29.5t41.5 70.5q2 11 2 21q0 28 -17 50q-24 30 -62.5 30t-72.5 -30t-42 -69z" />
<glyph unicode="&#xc6;" horiz-adv-x="1779" d="M-35 0l1209 1372h763l-22 -123h-588l-92 -493h567l-22 -123h-568l-94 -510h588l-23 -123h-725l86 465h-505l-410 -465h-164zM649 588h418l113 610z" />
<glyph unicode="&#xc7;" horiz-adv-x="1478" d="M199 684q55 297 302 504t546 207q252 0 419 -156q115 -104 142 -217h-154q-57 115 -172 182.5t-258 67.5q-231 0 -437 -176t-251 -412q-10 -54 -10 -104q0 -168 109 -304q142 -176 372 -176q188 0 364 117q78 51 166 143h154q-119 -170 -313.5 -277.5t-384.5 -107.5 l-62 -102q49 14 66 14q63 0 95 -44q23 -32 23 -76q0 -17 -4 -37q-14 -76 -73.5 -126t-132.5 -50q-133 0 -144 139l88 12q6 -35 20.5 -49t47.5 -14q37 0 65.5 24.5t36.5 61.5q1 9 2 16q0 27 -16 48q-20 28 -57 28q-39 0 -84 -43l-50 30l107 173q-279 31 -426 229 q-109 147 -110 338q1 66 14 137z" />
<glyph unicode="&#xc8;" horiz-adv-x="997" d="M147 0l254 1372h752l-23 -123h-614l-92 -493h594l-23 -123h-594l-94 -510h615l-23 -123h-752zM582 1702l77 102l318 -217l-78 -98z" />
<glyph unicode="&#xc9;" horiz-adv-x="997" d="M147 0l254 1372h752l-23 -123h-614l-92 -493h594l-23 -123h-594l-94 -510h615l-23 -123h-752zM690 1587l400 217l40 -102l-399 -213z" />
<glyph unicode="&#xca;" horiz-adv-x="997" d="M147 0l254 1372h752l-23 -123h-614l-92 -493h594l-23 -123h-594l-94 -510h615l-23 -123h-752zM479 1509l312 234h124l222 -234h-166l-133 138l-189 -138h-170z" />
<glyph unicode="&#xcb;" horiz-adv-x="997" d="M147 0l254 1372h752l-23 -123h-614l-92 -493h594l-23 -123h-594l-94 -510h615l-23 -123h-752zM610 1509l43 234h138l-43 -234h-138zM885 1509l43 234h137l-43 -234h-137z" />
<glyph unicode="&#xcc;" horiz-adv-x="434" d="M147 0l254 1372h138l-254 -1372h-138zM254 1702l78 102l317 -217l-78 -98z" />
<glyph unicode="&#xcd;" horiz-adv-x="434" d="M147 0l254 1372h138l-254 -1372h-138zM369 1587l399 217l41 -102l-399 -213z" />
<glyph unicode="&#xce;" horiz-adv-x="434" d="M147 0l254 1372h138l-254 -1372h-138zM203 1509l274 234h123l186 -234h-163l-101 138l-153 -138h-166z" />
<glyph unicode="&#xcf;" horiz-adv-x="434" d="M150 0l253 1372h138l-254 -1372h-137zM317 1509l43 234h132l-43 -234h-132zM543 1509l43 234h131l-43 -234h-131z" />
<glyph unicode="&#xd0;" horiz-adv-x="1380" d="M119 649l22 123h148l112 600h394q279 0 432 -112q127 -92 183 -248q36 -98 36 -204q0 -61 -12 -124q-33 -174 -148 -329.5t-278 -248.5q-186 -106 -459 -106h-402l119 649h-147zM307 123h199q184 0 295.5 28.5t212.5 102.5q233 168 284 436q10 57 11 110q0 219 -181 351 q-137 98 -413 98h-199l-90 -477h416l-23 -123h-416z" />
<glyph unicode="&#xd1;" horiz-adv-x="1388" d="M147 0l254 1372h187l559 -1139l211 1139h137l-254 -1372h-137l-596 1208l-223 -1208h-138zM686 1618q92 106 199 106q35 0 58.5 -8t105.5 -47q51 -27 77 -27q61 0 123 74l51 -82q-88 -104 -200 -104q-37 0 -62.5 9t-107.5 50q-37 18 -70 19q-57 0 -123 -72z" />
<glyph unicode="&#xd2;" horiz-adv-x="1599" d="M201 694q35 186 164 349t314 258.5t380 95.5q299 0 475 -209q134 -159 134 -367q0 -65 -13 -135q-53 -291 -306 -501t-552 -210q-303 0 -478 210q-132 159 -132 370q1 67 14 139zM338 690q-11 -60 -11 -115q0 -173 106 -304q140 -173 386 -173q240 0 445.5 173t251.5 413 q11 59 10 114q0 170 -106 302q-140 174 -384 174q-240 0 -446.5 -173t-251.5 -411zM846 1702l78 102l317 -217l-78 -98z" />
<glyph unicode="&#xd3;" horiz-adv-x="1599" d="M201 694q35 186 164 349t314 258.5t380 95.5q299 0 475 -209q134 -159 134 -367q0 -65 -13 -135q-53 -291 -306 -501t-552 -210q-303 0 -478 210q-132 159 -132 370q1 67 14 139zM338 690q-11 -60 -11 -115q0 -173 106 -304q140 -173 386 -173q240 0 445.5 173t251.5 413 q11 59 10 114q0 170 -106 302q-140 174 -384 174q-240 0 -446.5 -173t-251.5 -411zM952 1587l400 217l41 -102l-400 -213z" />
<glyph unicode="&#xd4;" horiz-adv-x="1599" d="M201 694q35 186 164 349t314 258.5t380 95.5q299 0 475 -209q134 -159 134 -367q0 -65 -13 -135q-53 -291 -306 -501t-552 -210q-303 0 -478 210q-132 159 -132 370q1 67 14 139zM338 690q-11 -60 -11 -115q0 -173 106 -304q140 -173 386 -173q240 0 445.5 173t251.5 413 q11 59 10 114q0 170 -106 302q-140 174 -384 174q-240 0 -446.5 -173t-251.5 -411zM750 1509l311 234h125l221 -234h-166l-133 138l-188 -138h-170z" />
<glyph unicode="&#xd5;" horiz-adv-x="1599" d="M201 694q35 186 164 349t314 258.5t380 95.5q299 0 475 -209q134 -159 134 -367q0 -65 -13 -135q-53 -291 -306 -501t-552 -210q-303 0 -478 210q-132 159 -132 370q1 67 14 139zM338 690q-11 -60 -11 -115q0 -173 106 -304q140 -173 386 -173q240 0 445.5 173t251.5 413 q11 59 10 114q0 170 -106 302q-140 174 -384 174q-240 0 -446.5 -173t-251.5 -411zM807 1618q92 106 199 106q35 0 58 -8t105 -47q51 -27 78 -27q61 0 123 74l51 -82q-88 -104 -200 -104q-37 0 -62.5 9t-107.5 50q-37 18 -70 19q-57 0 -123 -72z" />
<glyph unicode="&#xd6;" horiz-adv-x="1599" d="M201 694q35 186 164 349t314 258.5t380 95.5q299 0 475 -209q134 -159 134 -367q0 -65 -13 -135q-53 -291 -306 -501t-552 -210q-303 0 -478 210q-132 159 -132 370q1 67 14 139zM338 690q-11 -60 -11 -115q0 -173 106 -304q140 -173 386 -173q240 0 445.5 173t251.5 413 q11 59 10 114q0 170 -106 302q-140 174 -384 174q-240 0 -446.5 -173t-251.5 -411zM872 1509l43 234h138l-43 -234h-138zM1147 1509l43 234h137l-43 -234h-137z" />
<glyph unicode="&#xd7;" d="M223 406l334 280l-229 283l100 82l227 -281l334 281l68 -84l-332 -281l227 -280l-98 -84l-229 280l-332 -280z" />
<glyph unicode="&#xd8;" horiz-adv-x="1599" d="M162 -47l188 201q-162 172 -162 400q0 64 13 132q53 293 306 502t552 209q195 0 356 -105l193 201l84 -72l-185 -202q161 -170 161 -398q0 -65 -13 -135q-53 -293 -307 -502t-553 -209q-195 0 -355 103l-186 -199zM336 684q-10 -56 -10 -109q0 -184 123 -319l872 934 q-131 84 -285 84q-244 0 -449.5 -174t-250.5 -416zM537 180q127 -82 280 -82q242 0 447.5 173t251.5 413q11 57 10 111q0 178 -119 319z" />
<glyph unicode="&#xd9;" horiz-adv-x="1204" d="M229 516l160 856h137l-159 -856q-12 -64 -12 -119q0 -107 44 -179q68 -110 221.5 -109.5t262 110t143.5 297.5l160 856h137l-160 -856q-41 -231 -168 -366q-168 -174 -399 -175q-109 0 -198 46.5t-134 128.5q-50 84 -50 212q0 70 15 154zM641 1702l78 102l317 -217 l-78 -98z" />
<glyph unicode="&#xda;" horiz-adv-x="1204" d="M229 516l160 856h137l-159 -856q-12 -64 -12 -119q0 -107 44 -179q68 -110 221.5 -109.5t262 110t143.5 297.5l160 856h137l-160 -856q-41 -231 -168 -366q-168 -174 -399 -175q-109 0 -198 46.5t-134 128.5q-50 84 -50 212q0 70 15 154zM768 1587l399 217l41 -102 l-399 -213z" />
<glyph unicode="&#xdb;" horiz-adv-x="1204" d="M229 516l160 856h137l-159 -856q-12 -64 -12 -119q0 -107 44 -179q68 -110 221.5 -109.5t262 110t143.5 297.5l160 856h137l-160 -856q-41 -231 -168 -366q-168 -174 -399 -175q-109 0 -198 46.5t-134 128.5q-50 84 -50 212q0 70 15 154zM553 1509l311 234h125l221 -234 h-166l-133 138l-188 -138h-170z" />
<glyph unicode="&#xdc;" horiz-adv-x="1204" d="M229 516l160 856h137l-159 -856q-12 -64 -12 -119q0 -107 44 -179q68 -110 221.5 -109.5t262 110t143.5 297.5l160 856h137l-160 -856q-41 -231 -168 -366q-168 -174 -399 -175q-109 0 -198 46.5t-134 128.5q-50 84 -50 212q0 70 15 154zM676 1509l43 234h137l-43 -234 h-137zM950 1509l43 234h137l-43 -234h-137z" />
<glyph unicode="&#xdd;" horiz-adv-x="1101" d="M256 1372h152l249 -770l545 770h150l-652 -913l-84 -459h-137l84 459zM729 1587l399 217l41 -102l-399 -213z" />
<glyph unicode="&#xde;" horiz-adv-x="1107" d="M147 0l254 1372h138l-41 -213h245q233 0 342 -80q72 -53 101 -140q17 -51 17 -107q0 -40 -9 -82q-35 -199 -205 -312q-139 -96 -364 -96h-279l-61 -342h-138zM371 465h258q172 0 264 53q137 78 164 232q6 29 5 56q0 51 -20 95q-31 68 -100 100q-47 23 -93 29t-175 6h-199 z" />
<glyph unicode="&#xdf;" horiz-adv-x="1062" d="M127 0l164 893q43 229 131 334q63 76 159.5 123t190.5 47q156 0 247 -115q69 -87 69 -201q0 -36 -7 -73q-37 -190 -209 -285q195 -72 196 -264q0 -41 -9 -88q-33 -174 -164 -281q-139 -115 -297 -115q-129 0 -223 84q-59 53 -80 144l-37 -203h-131zM334 377h90 q-5 -32 -6 -61q0 -80 42 -141q56 -83 158 -83q106 0 196.5 79t111.5 187q5 28 5 54q0 48 -18 90q-27 63 -88 94q-72 39 -209 39q-35 0 -67 -2l22 125q129 0 205 37q68 35 115 95t61 132q5 27 6 52q0 74 -46 130q-60 76 -162 76q-63 0 -126 -33t-102 -90q-59 -82 -94 -264z " />
<glyph unicode="&#xe0;" horiz-adv-x="1280" d="M162 510q41 223 228.5 376.5t416.5 153.5q254 0 360 -204l33 180h131l-186 -1016h-131l33 178q-186 -203 -439 -203q-227 0 -357 156q-99 118 -99 276q0 50 10 103zM293 514q-8 -43 -8 -83q0 -122 74 -215q99 -124 270 -124q164 0 305 122t172 292q8 45 8 86 q0 120 -71 210q-95 122 -261 122t-312 -122t-177 -288zM629 1409l90 86l268 -270l-86 -82z" />
<glyph unicode="&#xe1;" horiz-adv-x="1280" d="M162 510q41 223 228.5 376.5t416.5 153.5q254 0 360 -204l33 180h131l-186 -1016h-131l33 178q-186 -203 -439 -203q-227 0 -357 156q-99 118 -99 276q0 50 10 103zM293 514q-8 -43 -8 -83q0 -122 74 -215q99 -124 270 -124q164 0 305 122t172 292q8 45 8 86 q0 120 -71 210q-95 122 -261 122t-312 -122t-177 -288zM711 1225l370 270l58 -86l-371 -266z" />
<glyph unicode="&#xe2;" horiz-adv-x="1280" d="M162 510q41 223 228.5 376.5t416.5 153.5q254 0 360 -204l33 180h131l-186 -1016h-131l33 178q-186 -203 -439 -203q-227 0 -357 156q-99 118 -99 276q0 50 10 103zM293 514q-8 -43 -8 -83q0 -122 74 -215q99 -124 270 -124q164 0 305 122t172 292q8 45 8 86 q0 120 -71 210q-95 122 -261 122t-312 -122t-177 -288zM539 1167l290 252h123l193 -252h-156l-117 156l-174 -156h-159z" />
<glyph unicode="&#xe3;" horiz-adv-x="1280" d="M162 510q41 223 228.5 376.5t416.5 153.5q254 0 360 -204l33 180h131l-186 -1016h-131l33 178q-186 -203 -439 -203q-227 0 -357 156q-99 118 -99 276q0 50 10 103zM293 514q-8 -43 -8 -83q0 -122 74 -215q99 -124 270 -124q164 0 305 122t172 292q8 45 8 86 q0 120 -71 210q-95 122 -261 122t-312 -122t-177 -288zM563 1274q92 98 199 98q66 0 156 -51q45 -25 77 -25q53 0 117 72l51 -80q-49 -55 -93 -77.5t-107 -22.5q-33 0 -58.5 9t-103.5 48q-35 18 -62 19q-57 0 -125 -70z" />
<glyph unicode="&#xe4;" horiz-adv-x="1280" d="M162 510q41 223 228.5 376.5t416.5 153.5q254 0 360 -204l33 180h131l-186 -1016h-131l33 178q-186 -203 -439 -203q-227 0 -357 156q-99 118 -99 276q0 50 10 103zM293 514q-8 -43 -8 -83q0 -122 74 -215q99 -124 270 -124q164 0 305 122t172 292q8 45 8 86 q0 120 -71 210q-95 122 -261 122t-312 -122t-177 -288zM639 1174l43 233h131l-43 -233h-131zM905 1174l43 233h131l-43 -233h-131z" />
<glyph unicode="&#xe5;" horiz-adv-x="1280" d="M162 510q41 223 228.5 376.5t416.5 153.5q254 0 360 -204l33 180h131l-186 -1016h-131l33 178q-186 -203 -439 -203q-227 0 -357 156q-99 118 -99 276q0 50 10 103zM293 514q-8 -43 -8 -83q0 -122 74 -215q99 -124 270 -124q164 0 305 122t172 292q8 45 8 86 q0 120 -71 210q-95 122 -261 122t-312 -122t-177 -288zM684 1343q16 78 83 134.5t144 56.5q80 0 126 -56q35 -43 35 -100q0 -18 -3 -37q-16 -78 -82.5 -135t-146.5 -57t-125 56q-34 43 -34 100q0 18 3 38zM776 1343q-2 -12 -2 -22q0 -31 18 -53q24 -31 64.5 -31t76.5 30.5 t44 73.5q2 11 2 21q0 30 -18 53q-25 31 -66 31t-76 -31t-43 -72z" />
<glyph unicode="&#xe6;" horiz-adv-x="2142" d="M162 506q39 205 217 366q190 168 434 168q254 0 361 -196l30 172h131l-30 -172q74 88 193.5 142t236.5 54q156 0 274.5 -92t153.5 -237q10 -41 10 -96q0 -68 -16 -156h-918q-2 -20 -2 -40q0 -128 82 -220q94 -106 244 -107q111 0 223 68.5t172 171.5h143 q-78 -154 -237.5 -255.5t-323.5 -101.5q-231 0 -362 189l-29 -164h-131l29 164q-193 -188 -435 -189q-262 0 -387 189q-72 113 -72 248q1 46 9 94zM293 502q-7 -40 -7 -78q0 -120 74 -212q98 -120 267 -120q170 0 312 119t173 287q8 47 9 89q0 123 -70 214q-94 123 -269 123 q-170 0 -313 -124t-176 -298zM1268 575h768v19q0 139 -85 231q-91 98 -237 99q-143 0 -270 -98.5t-176 -250.5z" />
<glyph unicode="&#xe7;" horiz-adv-x="1173" d="M162 506q41 221 230.5 377.5t414.5 156.5q172 0 291 -90t153 -241h-153q-41 102 -124 158.5t-192 56.5q-172 0 -313 -121t-174 -293q-8 -45 -8 -86q0 -121 71 -211q96 -121 271 -121q109 0 201 48t190 157h154q-100 -154 -248 -239t-316 -85l-47 -82q33 14 62 15 q63 0 96 -41q25 -31 25 -77q0 -14 -3 -30q-14 -74 -71.5 -124t-128.5 -50q-63 0 -99 36t-38 99l83 11q2 -29 22.5 -48.5t49.5 -19.5q33 0 60.5 25.5t35.5 64.5q2 11 3 21q0 26 -16 44q-22 26 -58 25q-41 0 -82 -41l-51 31l92 145q-209 35 -315 180q-78 107 -78 247 q0 49 10 102z" />
<glyph unicode="&#xe8;" horiz-adv-x="1198" d="M162 508q41 219 225 375.5t404 156.5q141 0 249.5 -71.5t157.5 -198.5q27 -65 27 -162q0 -66 -13 -147h-921q-4 -26 -4 -52q0 -117 79 -207q95 -110 246 -110q113 0 228.5 68.5t175.5 171.5h143q-84 -158 -242.5 -257.5t-322.5 -99.5q-219 0 -346 156q-96 118 -96 273 q0 50 10 104zM315 578h781q-8 158 -96.5 252t-231.5 94t-270.5 -97t-182.5 -249zM600 1409l90 86l268 -270l-86 -82z" />
<glyph unicode="&#xe9;" horiz-adv-x="1198" d="M162 508q41 219 225 375.5t404 156.5q141 0 249.5 -71.5t157.5 -198.5q27 -65 27 -162q0 -66 -13 -147h-921q-4 -26 -4 -52q0 -117 79 -207q95 -110 246 -110q113 0 228.5 68.5t175.5 171.5h143q-84 -158 -242.5 -257.5t-322.5 -99.5q-219 0 -346 156q-96 118 -96 273 q0 50 10 104zM315 578h781q-8 158 -96.5 252t-231.5 94t-270.5 -97t-182.5 -249zM696 1225l371 270l57 -86l-370 -266z" />
<glyph unicode="&#xea;" horiz-adv-x="1198" d="M162 508q41 219 225 375.5t404 156.5q141 0 249.5 -71.5t157.5 -198.5q27 -65 27 -162q0 -66 -13 -147h-921q-4 -26 -4 -52q0 -117 79 -207q95 -110 246 -110q113 0 228.5 68.5t175.5 171.5h143q-84 -158 -242.5 -257.5t-322.5 -99.5q-219 0 -346 156q-96 118 -96 273 q0 50 10 104zM315 578h781q-8 158 -96.5 252t-231.5 94t-270.5 -97t-182.5 -249zM512 1167l291 252h123l192 -252h-155l-117 156l-174 -156h-160z" />
<glyph unicode="&#xeb;" horiz-adv-x="1198" d="M162 508q41 219 225 375.5t404 156.5q141 0 249.5 -71.5t157.5 -198.5q27 -65 27 -162q0 -66 -13 -147h-921q-4 -26 -4 -52q0 -117 79 -207q95 -110 246 -110q113 0 228.5 68.5t175.5 171.5h143q-84 -158 -242.5 -257.5t-322.5 -99.5q-219 0 -346 156q-96 118 -96 273 q0 50 10 104zM315 578h781q-8 158 -96.5 252t-231.5 94t-270.5 -97t-182.5 -249zM623 1174l43 233h131l-43 -233h-131zM889 1174l43 233h131l-43 -233h-131z" />
<glyph unicode="&#xec;" horiz-adv-x="399" d="M135 0l187 1016h131l-187 -1016h-131zM209 1409l90 86l254 -270l-86 -82z" />
<glyph unicode="&#xed;" horiz-adv-x="399" d="M135 0l187 1016h131l-187 -1016h-131zM297 1225l356 270l58 -86l-357 -266z" />
<glyph unicode="&#xee;" horiz-adv-x="399" d="M133 1167l270 252h123l170 -252h-155l-95 156l-153 -156h-160zM135 0l187 1016h131l-187 -1016h-131z" />
<glyph unicode="&#xef;" horiz-adv-x="399" d="M133 0l186 1016h132l-187 -1016h-131zM238 1174l43 233h122l-43 -233h-122zM471 1174l43 233h123l-43 -233h-123z" />
<glyph unicode="&#xf0;" horiz-adv-x="1200" d="M162 506q41 219 226 376.5t398 157.5q59 0 134 -20l-99 154l-153 -82l-39 82l141 79l-88 117l102 72l97 -129l159 84l39 -86l-139 -76l113 -184q109 -178 123 -213q56 -126 55 -241q0 -45 -8 -89q-39 -217 -226.5 -375t-400.5 -158q-221 0 -348 156q-96 118 -96 272 q0 50 10 103zM295 510q-8 -45 -9 -87q0 -120 70 -210q94 -121 262 -121t305.5 122t170.5 300q8 43 7 82q0 115 -67 201q-102 127 -262 127q-164 0 -305 -122t-172 -292z" />
<glyph unicode="&#xf1;" horiz-adv-x="1155" d="M135 0l187 1016h131l-23 -131q168 156 342 155q106 0 192.5 -44t131.5 -122q47 -81 47 -193q0 -58 -13 -124l-102 -557h-131l102 557q11 56 11 103q0 88 -37 147q-72 117 -223 117q-156 0 -275 -129q-68 -74 -98 -238l-103 -557h-139zM528 1274q92 98 199 98 q66 0 156 -51q47 -25 78 -25q53 0 116 72l51 -80q-49 -55 -93 -77.5t-107 -22.5q-33 0 -58.5 9t-103.5 48q-35 18 -61 19q-57 0 -125 -70z" />
<glyph unicode="&#xf2;" horiz-adv-x="1200" d="M164 514q39 213 226.5 369.5t402.5 156.5q217 0 344 -157q96 -119 96 -273q0 -49 -10 -102q-41 -217 -226.5 -375t-402.5 -158q-221 0 -346 157q-94 118 -94 275q0 51 10 107zM295 510q-8 -45 -9 -87q0 -120 70 -210q94 -121 262 -121t305.5 122t170.5 300q8 43 7 82 q0 115 -67 201q-102 127 -262 127q-164 0 -305 -122t-172 -292zM602 1409l90 86l269 -270l-87 -82z" />
<glyph unicode="&#xf3;" horiz-adv-x="1200" d="M164 514q39 213 226.5 369.5t402.5 156.5q217 0 344 -157q96 -119 96 -273q0 -49 -10 -102q-41 -217 -226.5 -375t-402.5 -158q-221 0 -346 157q-94 118 -94 275q0 51 10 107zM295 510q-8 -45 -9 -87q0 -120 70 -210q94 -121 262 -121t305.5 122t170.5 300q8 43 7 82 q0 115 -67 201q-102 127 -262 127q-164 0 -305 -122t-172 -292zM698 1225l371 270l57 -86l-370 -266z" />
<glyph unicode="&#xf4;" horiz-adv-x="1200" d="M164 514q39 213 226.5 369.5t402.5 156.5q217 0 344 -157q96 -119 96 -273q0 -49 -10 -102q-41 -217 -226.5 -375t-402.5 -158q-221 0 -346 157q-94 118 -94 275q0 51 10 107zM295 510q-8 -45 -9 -87q0 -120 70 -210q94 -121 262 -121t305.5 122t170.5 300q8 43 7 82 q0 115 -67 201q-102 127 -262 127q-164 0 -305 -122t-172 -292zM512 1167l291 252h123l192 -252h-155l-117 156l-174 -156h-160z" />
<glyph unicode="&#xf5;" horiz-adv-x="1200" d="M164 514q39 213 226.5 369.5t402.5 156.5q217 0 344 -157q96 -119 96 -273q0 -49 -10 -102q-41 -217 -226.5 -375t-402.5 -158q-221 0 -346 157q-94 118 -94 275q0 51 10 107zM295 510q-8 -45 -9 -87q0 -120 70 -210q94 -121 262 -121t305.5 122t170.5 300q8 43 7 82 q0 115 -67 201q-102 127 -262 127q-164 0 -305 -122t-172 -292zM551 1274q92 98 199 98q66 0 155 -51q45 -25 78 -25q53 0 117 72l51 -80q-49 -55 -93 -77.5t-108 -22.5q-33 0 -58.5 9t-103.5 48q-35 18 -61 19q-57 0 -125 -70z" />
<glyph unicode="&#xf6;" horiz-adv-x="1200" d="M164 514q39 213 226.5 369.5t402.5 156.5q217 0 344 -157q96 -119 96 -273q0 -49 -10 -102q-41 -217 -226.5 -375t-402.5 -158q-221 0 -346 157q-94 118 -94 275q0 51 10 107zM295 510q-8 -45 -9 -87q0 -120 70 -210q94 -121 262 -121t305.5 122t170.5 300q8 43 7 82 q0 115 -67 201q-102 127 -262 127q-164 0 -305 -122t-172 -292zM618 1174l44 233h131l-43 -233h-132zM885 1174l43 233h131l-43 -233h-131z" />
<glyph unicode="&#xf7;" d="M205 625l24 123h850l-22 -123h-852zM504 276l37 193h123l-35 -193h-125zM621 905l36 193h123l-37 -193h-122z" />
<glyph unicode="&#xf8;" horiz-adv-x="1200" d="M117 -27l139 148q-103 133 -103 292q0 46 9 95q41 217 227 374.5t404 157.5q141 0 262 -79l153 165l74 -67l-154 -166q104 -143 105 -297q0 -43 -8 -86q-41 -217 -227.5 -376t-401.5 -159q-166 0 -264 82l-144 -153zM293 504q-8 -42 -8 -81q0 -112 65 -204l613 643 q-72 61 -193 62q-164 0 -304 -124t-173 -296zM422 152q82 -59 196 -60q168 0 305.5 122t170.5 298q8 44 7 84q0 117 -67 199z" />
<glyph unicode="&#xf9;" horiz-adv-x="1150" d="M211 457l102 559h131l-102 -559q-11 -59 -11 -108q0 -74 25 -126q66 -131 232 -131q160 0 276 129q76 84 105 236l102 559h131l-186 -1016h-123l29 156q-143 -180 -377 -181q-221 0 -309 162q-39 69 -40 175q0 66 15 145zM584 1409l90 86l268 -270l-86 -82z" />
<glyph unicode="&#xfa;" horiz-adv-x="1150" d="M211 457l102 559h131l-102 -559q-11 -59 -11 -108q0 -74 25 -126q66 -131 232 -131q160 0 276 129q76 84 105 236l102 559h131l-186 -1016h-123l29 156q-143 -180 -377 -181q-221 0 -309 162q-39 69 -40 175q0 66 15 145zM672 1225l370 270l58 -86l-371 -266z" />
<glyph unicode="&#xfb;" horiz-adv-x="1150" d="M211 457l102 559h131l-102 -559q-11 -59 -11 -108q0 -74 25 -126q66 -131 232 -131q160 0 276 129q76 84 105 236l102 559h131l-186 -1016h-123l29 156q-143 -180 -377 -181q-221 0 -309 162q-39 69 -40 175q0 66 15 145zM487 1167l291 252h123l193 -252h-156l-117 156 l-174 -156h-160z" />
<glyph unicode="&#xfc;" horiz-adv-x="1150" d="M211 457l102 559h131l-102 -559q-11 -59 -11 -108q0 -74 25 -126q66 -131 232 -131q160 0 276 129q76 84 105 236l102 559h131l-186 -1016h-123l29 156q-143 -180 -377 -181q-221 0 -309 162q-39 69 -40 175q0 66 15 145zM590 1174l43 233h131l-43 -233h-131zM856 1174 l43 233h131l-43 -233h-131z" />
<glyph unicode="&#xfd;" horiz-adv-x="962" d="M162 -356l237 389l-213 983h150l174 -809l494 809h145l-842 -1372h-145zM600 1225l371 270l57 -86l-371 -266z" />
<glyph unicode="&#xfe;" horiz-adv-x="1280" d="M68 -356l321 1728h131l-98 -530q76 92 195.5 145t246.5 53q221 0 350 -157q98 -120 98 -276q0 -50 -9 -103q-41 -219 -229.5 -374t-416.5 -155q-254 0 -354 199l-98 -530h-137zM358 514q-9 -49 -8 -92q0 -131 78 -219q94 -111 260 -111q170 0 310.5 120t172.5 292 q8 45 9 86q0 121 -72 212q-96 122 -268 122q-170 0 -309.5 -119t-172.5 -291z" />
<glyph unicode="&#xff;" horiz-adv-x="962" d="M162 -356l237 389l-213 983h150l174 -809l494 809h145l-842 -1372h-145zM500 1174l43 233h131l-43 -233h-131zM766 1174l43 233h131l-43 -233h-131z" />
<glyph unicode="&#x152;" horiz-adv-x="2203" d="M199 688q55 297 302 503t548 206q188 0 338.5 -83t197.5 -214l51 272h727l-22 -123h-590l-92 -495h569l-22 -123h-570l-94 -508h590l-23 -123h-727l52 279q-43 -55 -76 -86t-94 -70q-227 -147 -463 -148q-313 0 -487 205q-130 154 -130 363q1 70 15 145zM338 696 q-12 -65 -12 -125q0 -172 100 -300q135 -173 381 -173q248 0 452.5 173t251.5 419q11 59 11 114q0 171 -106 300q-140 170 -384 170t-446.5 -168t-247.5 -410z" />
<glyph unicode="&#x153;" horiz-adv-x="2105" d="M162 506q39 217 226 375.5t400 158.5q281 0 414 -286q82 131 219.5 208.5t282.5 77.5q221 0 343 -158q90 -117 90 -275q0 -55 -11 -115l-6 -37h-908q-4 -27 -3 -54q0 -119 77 -204q94 -104 248 -105q113 0 219.5 63.5t175.5 172.5h139q-72 -150 -231.5 -251.5 t-325.5 -101.5q-143 0 -262 81t-143 196q-94 -129 -233.5 -203t-282.5 -74q-213 0 -341 158q-97 119 -97 272q0 49 10 101zM293 508q-7 -41 -8 -80q0 -120 72 -213q95 -123 259 -123t302.5 119t168.5 285q8 45 9 86q0 120 -70 215q-94 127 -258 127q-162 0 -302 -124 t-173 -292zM1235 571h768q1 12 1 24q0 131 -86 225q-93 103 -232 104q-174 0 -326 -152q-72 -72 -125 -201z" />
<glyph unicode="&#x178;" horiz-adv-x="1101" d="M256 1372h152l249 -770l545 770h150l-652 -913l-84 -459h-137l84 459zM623 1509l43 234h137l-43 -234h-137zM897 1509l43 234h137l-43 -234h-137z" />
<glyph unicode="&#x2c6;" d="M428 1167l291 252h123l192 -252h-155l-117 156l-174 -156h-160z" />
<glyph unicode="&#x2dc;" d="M451 1274q92 98 198 98q66 0 156 -51q47 -25 78 -25q53 0 116 72l52 -80q-49 -55 -93.5 -77.5t-107.5 -22.5q-33 0 -58.5 9t-103.5 48q-35 18 -61 19q-57 0 -125 -70z" />
<glyph unicode="&#x2013;" d="M180 459l23 123h837l-22 -123h-838z" />
<glyph unicode="&#x2014;" horiz-adv-x="1503" d="M84 459l22 123h1504l-23 -123h-1503z" />
<glyph unicode="&#x2018;" horiz-adv-x="464" d="M336 1372h137l96 -356h-137z" />
<glyph unicode="&#x2019;" horiz-adv-x="464" d="M268 1016l232 356h137l-231 -356h-138z" />
<glyph unicode="&#x201a;" horiz-adv-x="659" d="M141 -125l232 358h137l-231 -358h-138z" />
<glyph unicode="&#x201c;" horiz-adv-x="739" d="M268 1016l232 356h137l-231 -356h-138zM543 1016l231 356h137l-231 -356h-137z" />
<glyph unicode="&#x201d;" horiz-adv-x="739" d="M268 1016l232 356h137l-231 -356h-138zM543 1016l231 356h137l-231 -356h-137z" />
<glyph unicode="&#x201e;" horiz-adv-x="739" d="M57 -125l232 358h137l-231 -358h-138zM332 -125l231 358h137l-231 -358h-137z" />
<glyph unicode="&#x2022;" horiz-adv-x="1372" d="M532 696q23 121 122.5 204t219.5 83q115 0 183 -85q52 -65 52 -149q0 -25 -5 -53q-23 -117 -122 -200.5t-216 -83.5q-119 0 -187 84q-52 63 -52 145q-1 26 5 55z" />
<glyph unicode="&#x2026;" horiz-adv-x="1218" d="M135 0l43 233h137l-43 -233h-137zM541 0l43 233h137l-43 -233h-137zM948 0l43 233h137l-43 -233h-137z" />
<glyph unicode="&#x2039;" horiz-adv-x="512" d="M186 522l279 369l98 -57l-231 -312l114 -313l-118 -59z" />
<glyph unicode="&#x203a;" horiz-adv-x="512" d="M139 209l234 313l-117 312l119 57l143 -369l-280 -372z" />
<glyph unicode="&#x20ac;" horiz-adv-x="1105" d="M115 504l69 119h119l23 127h-166l69 118h121q41 219 189.5 374t378.5 155q129 0 221 -53.5t131 -120.5l-80 -133q-33 78 -105.5 131t-189.5 53q-113 0 -204 -65.5t-138 -153.5t-66 -187h578l-70 -118h-532l-23 -127h482l-70 -119h-432q-10 -61 -10 -113q0 -88 28 -149 q70 -141 240 -142q86 0 180 37t139 96l-30 -161q-37 -33 -119 -65t-195 -32q-127 0 -225 59.5t-137 184.5q-19 61 -19 145q0 63 11 140h-168z" />
<glyph unicode="&#x2122;" horiz-adv-x="1607" d="M279 1290l16 82h481l-16 -82h-191l-129 -700h-98l129 700h-192zM702 590l146 782h141l178 -645l422 645h142l-146 -782h-98l123 659l-426 -659h-82l-178 659l-123 -659h-99z" />
<glyph unicode="&#xe000;" horiz-adv-x="1014" d="M0 1015h1015v-1015h-1015v1015z" />
<glyph unicode="&#xfb01;" horiz-adv-x="976" d="M176 0l166 899h-158l21 117h157q27 104 55.5 158.5t84.5 99.5q115 92 295 92h20l-22 -125q-8 2 -21 2q-129 0 -205 -69q-53 -47 -75 -158h258l-21 -117h-258l-166 -899h-131zM711 0l186 1016h131l-186 -1016h-131zM922 1139l43 233h131l-43 -233h-131z" />
<glyph unicode="&#xfb02;" horiz-adv-x="976" d="M176 0l166 899h-158l21 117h157q27 104 55.5 158.5t84.5 99.5q115 92 295 92h20l-22 -125q-8 2 -21 2q-129 0 -205 -69q-53 -47 -75 -158h258l-21 -117h-258l-166 -899h-131zM711 0l254 1372h131l-254 -1372h-131z" />
<glyph unicode="&#xfb03;" horiz-adv-x="1511" d="M176 0l166 899h-158l21 117h157q27 104 55.5 158.5t84.5 99.5q115 92 295 92h20l-22 -125q-8 2 -21 2q-129 0 -205 -69q-53 -47 -75 -158h403q27 104 55.5 158.5t83.5 99.5q115 92 297 92h21l-23 -125q-8 2 -20 2q-127 0 -207 -69q-53 -47 -76 -158h260l-20 -117h-260 l-166 -899h-131l166 899h-404l-166 -899h-131zM1247 0l187 1016h131l-187 -1016h-131zM1458 1139l43 233h131l-43 -233h-131z" />
<glyph unicode="&#xfb04;" horiz-adv-x="1511" d="M176 0l166 899h-158l21 117h157q27 104 55.5 158.5t84.5 99.5q115 92 295 92h20l-22 -125q-8 2 -21 2q-129 0 -205 -69q-53 -47 -75 -158h403q27 104 55.5 158.5t83.5 99.5q115 92 297 92h21l-23 -125q-8 2 -20 2q-127 0 -207 -69q-53 -47 -76 -158h260l-20 -117h-260 l-166 -899h-131l166 899h-404l-166 -899h-131zM1247 0l254 1372h131l-254 -1372h-131z" />
</font>
</defs>
</svg>
