<?xml version="1.0" standalone="no"?>
<!DOCTYPE svg PUBLIC "-//W3C//DTD SVG 1.1//EN" "http://www.w3.org/Graphics/SVG/1.1/DTD/svg11.dtd" >
<svg xmlns="http://www.w3.org/2000/svg">
<metadata>
This is a custom SVG webfont generated by Fontspring.
</metadata>
<defs>
<font id="AvalonMediumOblique" horiz-adv-x="503" >
<font-face units-per-em="1000" ascent="750" descent="-250" />
<missing-glyph horiz-adv-x="251" />
<glyph unicode=" "  horiz-adv-x="251" />
<glyph unicode="&#x09;" horiz-adv-x="251" />
<glyph unicode="&#xa0;" horiz-adv-x="251" />
<glyph unicode="!" horiz-adv-x="241" d="M104 165l94 505h94l-94 -505h-94zM74 0l20 111h94l-20 -111h-94z" />
<glyph unicode="&#x22;" horiz-adv-x="251" d="M242 468l31 202h68l-45 -202h-54zM128 468l31 202h68l-45 -202h-54z" />
<glyph unicode="#" d="M114 62l54 165h-94l19 59h94l32 98h-94l19 60h94l53 164h61l-53 -164h97l53 164h60l-53 -164h97l-19 -60h-97l-32 -98h97l-19 -59h-97l-55 -165h-60l54 165h-97l-54 -165h-60zM248 286h97l31 98h-97z" />
<glyph unicode="$" d="M185 -74l18 100q-64 14 -96.5 64.5t-20.5 117.5h84q-5 -47 18 -74.5t67 -27.5q43 0 76 29.5t41 74.5q8 41 -14 64.5t-82 39.5q-41 10 -59 20t-32 29q-35 46 -22 116q11 60 53.5 105t101.5 60l19 102h86l-19 -101q56 -9 84.5 -52t20.5 -105h-85q1 76 -67 76q-37 0 -65 -24 t-35 -62q-8 -44 24 -65q12 -7 68 -23q67 -18 94 -56q37 -53 23 -125q-13 -68 -60 -117t-117 -66l-18 -100h-86z" />
<glyph unicode="%" horiz-adv-x="881" d="M272 340q-72 0 -114 51t-29 122q13 70 73.5 120t132.5 50q74 0 116 -50t28 -122q-13 -70 -74 -120.5t-133 -50.5zM272 0l404 670h57l-403 -670h-58zM284 409q41 0 77 30t43 72q8 43 -15.5 73t-66.5 30q-41 0 -76 -30t-43 -72t16 -72.5t65 -30.5zM525 160q13 70 74 120 t133 50q74 0 116 -50t28 -122q-13 -70 -74.5 -120.5t-132.5 -50.5q-73 0 -115 51t-29 122zM600 159q-8 -43 16 -73t66 -30q41 0 76 30t42 72q8 43 -15 73t-66 30q-41 0 -76.5 -30t-42.5 -72z" />
<glyph unicode="&#x26;" horiz-adv-x="630" d="M68 187q12 65 56.5 117t107.5 74q-30 41 -38 67.5t-1 66.5q13 73 71.5 122.5t129.5 49.5t109.5 -49.5t25.5 -122.5q-20 -107 -142 -161l72 -87l102 148h109l-154 -221l110 -139l-78 -65l-95 117q-103 -117 -217 -117q-86 0 -135 58t-33 142zM331 419q57 29 77 47.5 t25 48.5q6 30 -10.5 51t-46.5 21q-31 0 -55.5 -22t-30.5 -54q-4 -23 2 -37t39 -55zM165 187q-8 -44 17.5 -74t71.5 -30q81 0 146 89l-116 139q-56 -28 -83.5 -57t-35.5 -67z" />
<glyph unicode="'" horiz-adv-x="137" d="M128 468l31 202h68l-45 -202h-54z" />
<glyph unicode="(" horiz-adv-x="327" d="M123 -49q-35 62 -46 142.5t4 161.5q26 139 123.5 263.5t227.5 185.5l-20 -109q-95 -73 -137 -126q-76 -98 -97 -213q-25 -132 26 -238q12 -26 28.5 -47t56.5 -63l-20 -109q-87 49 -146 152z" />
<glyph unicode=")" horiz-adv-x="327" d="M7 -92q91 69 137 126q76 96 97 213q25 130 -25 237q-21 45 -86 111l20 109q86 -48 146 -152q35 -61 46 -142t-4 -162q-25 -139 -122.5 -263.5t-228.5 -185.5z" />
<glyph unicode="*" horiz-adv-x="440" d="M208 341l-45 37l98 105l-118 38l31 61l115 -43l23 131h64l-26 -130l130 42l9 -61l-132 -38l60 -105l-59 -37l-55 107z" />
<glyph unicode="+" d="M236 124l33 174h-174l13 74h174l33 174h74l-33 -174h174l-13 -74h-174l-33 -174h-74z" />
<glyph unicode="," horiz-adv-x="214" d="M60 0l20 111h94l-19 -101q-19 -106 -117 -125l11 56q36 13 43 51q0 1 0.5 3.5t0.5 4.5h-33z" />
<glyph unicode="-" horiz-adv-x="253" d="M39 211l17 94h253l-17 -94h-253z" />
<glyph unicode="." horiz-adv-x="214" d="M60 0l20 111h94l-20 -111h-94z" />
<glyph unicode="/" horiz-adv-x="405" d="M40 -168h-82l442 838h82z" />
<glyph unicode="0" d="M92 72q-20 32 -23 64t7 86l43 234q18 96 85 157q77 71 176 71t150 -76q40 -60 24 -145l-46 -248q-10 -55 -29 -90.5t-55 -67.5q-79 -71 -176 -71q-106 0 -156 86zM181 113q30 -41 86 -41q55 0 102 47q34 34 45 96l46 248q11 61 -12 95q-28 40 -85 40q-61 0 -105 -46 q-33 -33 -44 -89l-46 -248q-12 -65 13 -102z" />
<glyph unicode="1" d="M226 0l108 584h-99l16 86h193l-124 -670h-94z" />
<glyph unicode="2" d="M39 0l14 79l314 268q73 63 84 123q10 53 -17 90.5t-74 37.5q-70 0 -117 -68q-14 -21 -19.5 -35.5t-12.5 -53.5h-94q14 75 43 118q37 58 94 91.5t118 33.5q88 0 138.5 -64t33.5 -154q-10 -51 -38.5 -93.5t-89.5 -94.5l-223 -192h281l-15 -86h-420z" />
<glyph unicode="3" d="M159 128q12 -25 38 -40t58 -15q49 0 91 36.5t52 87.5t-20 85.5t-83 34.5h-34l18 94h32q45 0 73 23q35 28 43 71q7 39 -14.5 65.5t-59.5 26.5q-79 0 -107 -94h-94q16 64 56 107q70 73 165 73q77 0 119 -54t27 -135q-8 -41 -25 -67t-60 -60q79 -58 59 -167 q-16 -88 -92 -150.5t-167 -62.5q-88 0 -139.5 61.5t-35.5 148.5h93q-5 -42 7 -69z" />
<glyph unicode="4" d="M30 105l17 92l394 473h94l-89 -479h71l-16 -86h-71l-19 -105h-94l19 105h-306zM154 191h198l60 322z" />
<glyph unicode="5" d="M174 116q33 -43 88 -43t102.5 43.5t58.5 103.5q13 67 -18.5 111.5t-90.5 44.5q-67 0 -126 -69l-77 18l120 345h306l-16 -86h-228l-53 -148q45 26 98 26q95 0 147 -67.5t33 -167.5q-19 -102 -97.5 -171t-175.5 -69q-93 0 -144.5 59.5t-43.5 155.5h94q1 -58 23 -86z" />
<glyph unicode="6" d="M61 222q14 75 79 154l242 294h112l-183 -220q25 4 41 4q91 0 140.5 -65t32.5 -161q-19 -102 -98 -171.5t-177 -69.5q-96 0 -151.5 69t-37.5 166zM155 222q-12 -63 20 -106t91 -43q56 0 104 42.5t59 102.5q11 62 -20 106t-87 44q-57 0 -107 -43t-60 -103z" />
<glyph unicode="7" d="M102 0l361 584h-291l16 86h389l-16 -86l-354 -584h-105z" />
<glyph unicode="8" d="M76 197q20 106 119 173q-45 55 -32 129q14 76 77.5 130t138.5 54q74 0 117 -54t29 -130q-14 -78 -83 -129q79 -60 59 -170q-17 -88 -90.5 -150.5t-161.5 -62.5q-89 0 -139 61t-34 149zM328 413q37 0 66.5 26t37.5 66q7 39 -13 65.5t-57 26.5q-36 0 -66 -27t-38 -65 q-7 -39 13 -65.5t57 -26.5zM169 193q-9 -49 19 -84.5t76 -35.5t90 36t51 85q10 50 -18 86.5t-77 36.5t-90 -36.5t-51 -87.5z" />
<glyph unicode="9" d="M133 0l182 220q-25 -4 -40 -4q-91 0 -141.5 65.5t-32.5 160.5q19 102 98 171.5t177 69.5q96 0 152 -68.5t38 -165.5q-14 -75 -80 -155l-242 -294h-111zM305 302q57 0 106.5 43t60.5 104q11 62 -21.5 105t-90.5 43q-56 0 -104 -42.5t-59 -102.5q-11 -62 20.5 -106 t87.5 -44z" />
<glyph unicode=":" horiz-adv-x="214" d="M132 392l21 111h94l-21 -111h-94zM60 0l20 111h94l-20 -111h-94z" />
<glyph unicode=";" horiz-adv-x="214" d="M132 392l21 111h94l-21 -111h-94zM60 0l20 111h94l-19 -101q-19 -106 -117 -125l11 56q36 13 43 51q0 1 0.5 3.5t0.5 4.5h-33z" />
<glyph unicode="&#x3c;" d="M89 300l15 80l475 210l-17 -93l-365 -157l306 -158l-17 -93z" />
<glyph unicode="=" d="M107 365l14 74h422l-14 -74h-422zM82 231l14 74h422l-14 -74h-422z" />
<glyph unicode="&#x3e;" d="M50 89l17 93l365 158l-306 157l17 93l396 -211l-15 -80z" />
<glyph unicode="?" horiz-adv-x="452" d="M195 172q25 118 143 210q39 31 54 50.5t20 44.5q8 46 -17.5 78.5t-70.5 32.5q-59 0 -100 -51q-15 -19 -27 -57h-96q19 76 67 125q76 78 175 78q82 0 130.5 -60t32.5 -143q-9 -49 -32.5 -82.5t-77.5 -75.5q-47 -36 -69 -67t-38 -83h-94zM164 0l20 111h94l-20 -111h-94z " />
<glyph unicode="@" horiz-adv-x="766" d="M151 9q-40 47 -54.5 113.5t-1.5 136.5q28 148 148.5 249.5t269.5 101.5q137 0 212 -84.5t52 -212.5q-17 -93 -80 -164.5t-128 -71.5q-30 0 -47.5 16t-17.5 44q-58 -66 -138 -66q-62 0 -93.5 45t-18.5 115q16 84 79 143.5t136 59.5t98 -66l20 53h59l-77 -204 q-15 -37 -16 -48q-4 -18 4 -30t24 -12q42 0 85.5 57t56.5 128q20 107 -41 176t-177 69q-126 0 -228.5 -86.5t-125.5 -212.5q-22 -123 44 -208q63 -84 204 -84q111 0 212 41l5 -53q-108 -41 -225 -41q-161 0 -240 96zM319 234q-9 -47 11 -76t61 -29q46 0 86.5 43.5 t51.5 104.5q8 45 -10 71.5t-56 26.5q-47 0 -90.5 -42t-53.5 -99z" />
<glyph unicode="A" horiz-adv-x="597" d="M0 0l379 670h87l131 -670h-103l-39 198h-241l-110 -198h-104zM266 288h172l-39 255z" />
<glyph unicode="B" horiz-adv-x="523" d="M67 0l124 670h174q100 0 143 -50q48 -52 32 -136q-13 -75 -84 -126q88 -60 69 -164q-18 -91 -94 -147q-64 -47 -164 -47h-200zM237 391h80q53 0 83 24q34 26 42 70q11 59 -31 83q-21 12 -65 12h-74zM181 90h106q63 0 101 37q33 30 39 67q10 50 -22 82q-25 25 -91 25h-94z " />
<glyph unicode="C" horiz-adv-x="710" d="M96 337q27 144 146 245t263 101q99 0 169.5 -47.5t104.5 -136.5h-118q-61 94 -171 94q-103 0 -189.5 -75t-106.5 -181t39.5 -183t159.5 -77q106 0 199 88h120q-63 -84 -152 -131t-185 -47q-141 0 -223.5 103t-55.5 247z" />
<glyph unicode="D" horiz-adv-x="661" d="M67 0l124 670h237q138 0 209 -90q79 -101 52 -248q-12 -66 -46 -128t-81 -106q-108 -98 -287 -98h-208zM181 90h79q134 0 216 56q93 66 115 186q20 108 -38 181q-54 67 -160 67h-121z" />
<glyph unicode="E" horiz-adv-x="471" d="M67 0l124 670h362l-17 -90h-264l-37 -197h264l-16 -90h-264l-38 -203h264l-16 -90h-362z" />
<glyph unicode="F" horiz-adv-x="432" d="M67 0l124 670h338l-17 -90h-240l-37 -201h240l-17 -90h-240l-53 -289h-98z" />
<glyph unicode="G" horiz-adv-x="754" d="M95 334q28 146 146 247.5t261 101.5q94 0 165.5 -48.5t101.5 -131.5h-113q-36 48 -75 69t-92 21q-103 0 -189.5 -76t-106.5 -183q-19 -105 40.5 -181t161.5 -76q88 0 169 60q54 39 93 107h-313l16 90h424q-22 -113 -100 -201q-62 -69 -143.5 -107.5t-166.5 -38.5 q-143 0 -224 101t-55 246z" />
<glyph unicode="H" horiz-adv-x="606" d="M67 0l124 670h98l-54 -289h276l54 289h98l-124 -670h-98l53 291h-276l-53 -291h-98z" />
<glyph unicode="I" horiz-adv-x="232" d="M67 0l124 670h98l-124 -670h-98z" />
<glyph unicode="J" horiz-adv-x="430" d="M24 133h101q11 -56 70 -56q40 0 71 29t39 75l91 489h98l-93 -498q-15 -80 -77 -132.5t-142 -52.5q-70 0 -114.5 41t-43.5 105z" />
<glyph unicode="K" horiz-adv-x="542" d="M67 0l124 670h98l-62 -332l319 332h120l-324 -333l200 -337h-120l-195 336l-62 -336h-98z" />
<glyph unicode="L" horiz-adv-x="414" d="M67 0l124 670h98l-108 -580h232l-16 -90h-330z" />
<glyph unicode="M" horiz-adv-x="845" d="M67 0l124 670h154l106 -513l297 513h154l-124 -670h-98l104 565l-332 -565h-59l-124 565l-104 -565h-98z" />
<glyph unicode="N" horiz-adv-x="667" d="M67 0l124 670h107l233 -510l95 510h98l-124 -670h-101l-238 518l-96 -518h-98z" />
<glyph unicode="O" horiz-adv-x="764" d="M96 335q26 145 146.5 246.5t265.5 101.5q148 0 230 -101.5t54 -251.5q-26 -140 -148 -241.5t-265 -101.5q-144 0 -227 102t-56 246zM234 149q57 -72 163 -72q104 0 188 72q41 35 70.5 85t38.5 98q18 102 -31 176q-58 85 -172 85q-113 0 -201 -85q-79 -76 -96 -173 q-10 -50 1 -100t39 -86z" />
<glyph unicode="P" horiz-adv-x="519" d="M67 0l124 670h233q87 0 132 -56t29 -144q-15 -81 -79 -139q-40 -37 -84.5 -52t-112.5 -15h-96l-48 -264h-98zM230 354h101q64 0 101 29q45 35 55 87q8 49 -20 82q-15 16 -35 22t-61 6h-99z" />
<glyph unicode="Q" horiz-adv-x="757" d="M96 337q27 146 145 246t264 100q144 0 226 -101.5t55 -246.5q-23 -118 -126 -234q37 -24 85 -24h8l-17 -90q-94 0 -158 52q-103 -52 -203 -52q-143 0 -224.5 102t-54.5 248zM190 266q54 21 131 21q80 0 153 -38q20 -10 57.5 -39t59.5 -50q80 83 97 175 q20 107 -38.5 182.5t-159.5 75.5q-103 0 -190 -76.5t-107 -186.5q-7 -33 -3 -64zM214 181q56 -104 182 -104q60 0 107 29q-104 91 -208 91q-45 0 -81 -16z" />
<glyph unicode="R" horiz-adv-x="552" d="M67 0l124 670h208q118 0 167 -56q52 -60 33 -159q-22 -115 -116 -170q-41 -25 -114 -36l142 -249h-123l-166 311l-57 -311h-98zM225 324h67q81 0 129 26q66 34 80 105q10 57 -24 91t-102 34h-103z" />
<glyph unicode="S" horiz-adv-x="462" d="M66 67q-18 29 -22 58t3 73h97q-4 -45 6 -71q10 -23 33 -36.5t52 -13.5q45 0 82 32t46 79q11 60 -37 87q-10 6 -76 30q-52 19 -68.5 28.5t-31.5 29.5q-36 49 -22 124q16 85 81 140.5t149 55.5q98 0 138 -84q20 -44 11 -102h-98q4 43 -16 69.5t-58 26.5q-36 0 -68 -27.5 t-39 -64.5q-8 -43 22 -68q15 -13 70 -30q51 -15 74.5 -28t40.5 -36q44 -58 29 -139q-17 -90 -88.5 -151.5t-159.5 -61.5q-49 0 -88.5 21t-61.5 59z" />
<glyph unicode="T" horiz-adv-x="377" d="M140 0l107 580h-129l17 90h355l-17 -90h-128l-107 -580h-98z" />
<glyph unicode="U" horiz-adv-x="570" d="M97 205l87 465h98l-84 -452q-12 -66 17 -104q29 -37 84 -37q57 0 101 38q23 20 33.5 41.5t18.5 61.5l84 452h98l-87 -465q-17 -92 -89 -151q-82 -67 -177 -67q-94 0 -147.5 63t-36.5 155z" />
<glyph unicode="V" horiz-adv-x="589" d="M265 0l-146 670h105l102 -502l287 502h104l-393 -670h-59z" />
<glyph unicode="W" horiz-adv-x="818" d="M200 0l-63 670h101l35 -505l225 505h71l36 -501l224 501h99l-311 -670h-86l-36 468l-209 -468h-86z" />
<glyph unicode="X" horiz-adv-x="567" d="M0 0l284 335l-160 335h116l119 -253l215 253h117l-287 -335l161 -335h-115l-121 255l-215 -255h-114z" />
<glyph unicode="Y" horiz-adv-x="513" d="M208 0l44 241l-128 429h110l88 -315l206 315h109l-287 -429l-44 -241h-98z" />
<glyph unicode="Z" horiz-adv-x="459" d="M23 0l16 90l382 490h-276l17 90h385l-17 -90l-380 -490h301l-16 -90h-412z" />
<glyph unicode="[" horiz-adv-x="327" d="M74 44l74 399q11 59 36 103t73 86q54 47 124 72l-20 -110q-53 -29 -80 -66.5t-38 -94.5l-66 -356q-15 -79 11 -121q17 -27 45 -48l-20 -109q-77 33 -115 100.5t-24 144.5z" />
<glyph unicode="\" horiz-adv-x="405" d="M301 -168l-130 838h82l130 -838h-82z" />
<glyph unicode="]" horiz-adv-x="327" d="M58 -92q53 30 80 67.5t38 94.5l66 355q15 80 -11 122q-17 27 -45 48l20 109q77 -33 115.5 -100.5t24.5 -144.5l-74 -399q-21 -111 -109 -189q-54 -47 -125 -72z" />
<glyph unicode="^" d="M83 356l231 317h123l113 -317h-100l-89 242l-178 -242h-100z" />
<glyph unicode="_" horiz-adv-x="500" d="M0 -59h500v-85h-500v85z" />
<glyph unicode="`" d="M387 560l-141 109l58 60l135 -114z" />
<glyph unicode="a" horiz-adv-x="625" d="M78 250q18 100 97 177q92 89 215 89q56 0 102.5 -24t63.5 -62l14 73h87l-93 -503h-87l14 79q-75 -92 -206 -92q-109 0 -168.5 75.5t-38.5 187.5zM172 250q-13 -73 27.5 -125t110.5 -52q71 0 131.5 51.5t73.5 122.5q14 77 -26 130t-113 53q-71 0 -131 -52.5t-73 -127.5z " />
<glyph unicode="b" horiz-adv-x="620" d="M60 0l124 670h95l-44 -237q79 85 189 85q107 0 168.5 -78.5t41.5 -188.5q-20 -111 -109.5 -187.5t-198.5 -76.5q-72 0 -124 35q-21 14 -42 49l-13 -71h-87zM199 254q-14 -76 25.5 -128.5t111.5 -52.5q70 0 130.5 53t73.5 126q14 74 -26 127t-111 53t-131 -52.5 t-73 -125.5z" />
<glyph unicode="c" horiz-adv-x="561" d="M78 252q21 111 109.5 187.5t197.5 76.5q86 0 147.5 -52t65.5 -129h-104q-20 51 -48.5 73t-75.5 22q-71 0 -127.5 -50.5t-70.5 -127.5q-13 -73 24.5 -126t103.5 -53q45 0 89 25.5t73 67.5h104q-43 -82 -118.5 -130.5t-161.5 -48.5q-109 0 -168.5 76.5t-39.5 188.5z" />
<glyph unicode="d" horiz-adv-x="619" d="M79 254q19 102 103 182q86 80 196 80q53 0 100 -22.5t67 -56.5l44 233h94l-124 -670h-87l13 71q-86 -85 -197 -85q-110 0 -170.5 77t-38.5 191zM172 252q-14 -75 26 -127.5t111 -52.5q74 0 135 53.5t75 129.5q14 75 -28 125t-118 50q-71 0 -129 -51t-72 -127z" />
<glyph unicode="e" horiz-adv-x="577" d="M78 252q21 112 111 190t197 78q105 0 165.5 -77t40.5 -185q-2 -18 -12 -48h-415q4 -62 42 -99.5t98 -37.5q93 0 158 85h95q-44 -79 -117.5 -125t-155.5 -46q-105 0 -166 78t-41 187zM178 282h326q8 62 -31.5 107t-103.5 45q-73 0 -133 -55q-37 -33 -58 -97z" />
<glyph unicode="f" horiz-adv-x="285" d="M74 0l77 417h-45l16 86h45l4 23q12 66 70 109q28 20 55.5 27.5t72.5 7.5h11l-16 -82q-41 -1 -59 -10q-34 -18 -40 -52l-4 -23h88l-16 -86h-88l-77 -417h-94z" />
<glyph unicode="g" horiz-adv-x="630" d="M42 -40h106q40 -72 130 -72q81 0 137.5 46.5t70.5 124.5l2 10q-87 -83 -190 -83q-109 0 -174 79.5t-45 187.5q10 51 42 102.5t78 88.5q87 72 200 72t165 -74l12 61h87l-83 -446q-20 -104 -91 -168q-46 -41 -107 -64t-125 -23q-93 0 -153 54q-27 25 -40 47t-22 57z M173 251q-14 -74 27.5 -126.5t112.5 -52.5q73 0 134.5 53.5t75.5 130.5q13 73 -28.5 123.5t-115.5 50.5q-71 0 -132 -52.5t-74 -126.5z" />
<glyph unicode="h" horiz-adv-x="560" d="M60 0l124 670h94l-41 -219q62 65 156 65q93 0 139 -55t29 -146l-58 -315h-94l52 284q13 68 -3 98q-24 48 -92 48q-61 0 -104 -39.5t-56 -106.5l-52 -284h-94z" />
<glyph unicode="i" horiz-adv-x="214" d="M163 559l21 111h94l-21 -111h-94zM60 0l93 503h94l-93 -503h-94z" />
<glyph unicode="j" horiz-adv-x="214" d="M163 559l21 111h94l-21 -111h-94zM62 15l91 488h94l-91 -488q-11 -61 -17.5 -81t-20.5 -41q-26 -38 -69 -62.5t-89 -27.5l18 98q29 3 45 16t23 30.5t16 67.5z" />
<glyph unicode="k" horiz-adv-x="477" d="M60 0l124 670h94l-76 -409l226 242h111l-226 -237l162 -266h-118l-155 259l-48 -259h-94z" />
<glyph unicode="l" horiz-adv-x="214" d="M60 0l124 670h94l-124 -670h-94z" />
<glyph unicode="m" horiz-adv-x="876" d="M60 0l93 503h87l-10 -54q67 68 158 68q52 0 91.5 -23.5t49.5 -60.5q69 83 181 83q94 0 138.5 -56t26.5 -153l-56 -307h-94l51 280q27 150 -91 150q-63 0 -102 -41q-32 -33 -46 -109l-51 -280h-94l51 280q9 47 9 65.5t-10 38.5q-22 47 -86 47q-58 0 -100 -39 q-37 -34 -51 -112l-51 -280h-94z" />
<glyph unicode="n" horiz-adv-x="562" d="M60 0l93 503h87l-10 -53q62 67 161 67q94 0 141 -57.5t30 -151.5l-57 -308h-94l50 274q13 72 -1 106q-10 23 -36 37t-60 14q-61 0 -103.5 -42t-55.5 -115l-50 -274h-95z" />
<glyph unicode="o" horiz-adv-x="606" d="M79 254q19 108 113 185t205 77q114 0 178.5 -77t44.5 -188q-10 -52 -43 -104t-80 -89q-88 -71 -197 -71q-112 0 -177 78.5t-44 188.5zM172 252q-14 -74 28.5 -126.5t115.5 -52.5q72 0 134 52.5t76 124.5q14 76 -28 128t-116 52q-73 0 -134.5 -52t-75.5 -126z" />
<glyph unicode="p" horiz-adv-x="619" d="M28 -168l125 671h87l-15 -77q81 90 196 90q111 0 171 -78t39 -194q-20 -109 -107.5 -183.5t-194.5 -74.5q-57 0 -101 23.5t-61 62.5l-45 -240h-94zM198 252q-13 -75 26.5 -127.5t110.5 -52.5q70 0 129 51.5t73 123.5q14 76 -26.5 129.5t-111.5 53.5q-70 0 -128.5 -52 t-72.5 -126z" />
<glyph unicode="q" horiz-adv-x="619" d="M78 252q21 111 110.5 187.5t198.5 76.5q53 0 98 -22t67 -58l13 67h87l-125 -671h-94l44 237q-83 -83 -185 -83q-111 0 -172.5 77t-41.5 189zM172 252q-14 -76 27 -128t115 -52q71 0 131 51.5t73 124.5q15 77 -26 129.5t-115 52.5q-73 0 -132 -51t-73 -127z" />
<glyph unicode="r" horiz-adv-x="290" d="M60 0l93 503h87l-9 -45q56 58 141 58l-18 -97q-65 -5 -101 -39.5t-49 -104.5l-50 -275h-94z" />
<glyph unicode="s" horiz-adv-x="401" d="M55 72q-13 36 -4 92h95q-11 -91 65 -91q33 0 57.5 18.5t29.5 47.5t-10 45.5t-63 33.5q-64 22 -87 45q-38 40 -28 97q13 68 66 112t121 44q67 0 102.5 -41t24.5 -106h-93q0 61 -52 61q-26 0 -47 -15.5t-25 -39.5t9 -37t57 -27q65 -22 93 -51q40 -48 28 -113t-72.5 -112.5 t-131.5 -47.5q-48 0 -84 22.5t-51 62.5z" />
<glyph unicode="t" horiz-adv-x="267" d="M73 0l77 417h-68l16 86h68l31 167h94l-31 -167h83l-16 -86h-83l-77 -417h-94z" />
<glyph unicode="u" horiz-adv-x="562" d="M93 195l57 308h94l-51 -274q-13 -71 1 -106q11 -23 36.5 -37t59.5 -14q61 0 103.5 42t55.5 115l51 274h94l-93 -503h-87l9 53q-59 -67 -160 -67q-94 0 -141 57.5t-29 151.5z" />
<glyph unicode="v" horiz-adv-x="458" d="M197 0l-106 503h101l65 -360l196 360h100l-289 -503h-67z" />
<glyph unicode="w" horiz-adv-x="713" d="M195 0l-94 503h101l51 -327l166 327h62l44 -327l172 327h101l-279 -503h-53l-47 338l-172 -338h-52z" />
<glyph unicode="x" horiz-adv-x="475" d="M5 0l221 258l-122 245h114l80 -166l140 166h114l-209 -245l128 -258h-111l-92 178l-153 -178h-110z" />
<glyph unicode="y" horiz-adv-x="498" d="M93 -168l106 178l-108 493h102l74 -391l225 391h101l-403 -671h-97z" />
<glyph unicode="z" horiz-adv-x="397" d="M20 0l13 73l305 344h-218l16 86h322l-18 -95l-288 -322h246l-15 -86h-363z" />
<glyph unicode="{" horiz-adv-x="327" d="M73 -30l29 158q8 43 0 64t-37 29l13 66q30 7 46 27.5t24 58.5l30 165q14 72 52.5 103.5t114.5 31.5h43l-14 -79q-59 0 -80 -14.5t-30 -63.5l-27 -149q-9 -48 -25.5 -72t-54.5 -44q29 -20 37 -45.5t-1 -72.5l-27 -145q-6 -38 -4.5 -48t12.5 -20q14 -12 61 -12h11l-14 -79 h-46q-74 0 -100.5 33t-12.5 108z" />
<glyph unicode="|" d="M172 -168l156 838h94l-156 -838h-94z" />
<glyph unicode="}" horiz-adv-x="327" d="M45 -92q60 0 80 14.5t29 63.5l28 149q9 48 25.5 72.5t53.5 43.5q-29 20 -37 45.5t1 72.5l27 145q9 53 -8 68q-14 12 -60 12h-11l14 79h45q74 0 100.5 -33t12.5 -108l-29 -159q-8 -43 0.5 -64t37.5 -28l-13 -66q-31 -7 -47 -27.5t-24 -58.5l-30 -165q-14 -72 -52.5 -103.5 t-114.5 -31.5h-42z" />
<glyph unicode="~" horiz-adv-x="670" d="M251 577l-46 35q33 49 49 67q52 58 117 58q34 0 104 -32q63 -29 88 -29q27 0 47 13t48 49l49 -32q-43 -64 -78 -88q-46 -32 -95 -32q-32 0 -133 47q-30 14 -55 14t-46 -16t-49 -54z" />
<glyph unicode="&#xa1;" horiz-adv-x="241" d="M146 392l21 111h94l-21 -111h-94zM42 -168l94 503h94l-94 -503h-94z" />
<glyph unicode="&#xa2;" d="M222 38l16 89q-65 15 -98 52q-61 67 -41 167q15 82 74.5 139.5t144.5 73.5l16 87h86l-16 -87q57 -12 96 -52t44 -92h-107q-16 54 -92 54q-56 0 -99.5 -36.5t-53.5 -91.5q-10 -53 21 -89.5t86 -36.5q66 0 109 49h106q-24 -49 -78.5 -88t-111.5 -49l-16 -89h-86z" />
<glyph unicode="&#xa3;" d="M38 0l15 86h116q29 38 37 79q17 88 -46 131h-97l16 86h31q-8 36 -2 75q18 95 94 161t169 66q83 0 134 -49.5t53 -131.5h-103q-12 50 -36 73t-66 23q-52 0 -95.5 -39.5t-53.5 -94.5q-10 -49 17 -83h198l-16 -86h-115q26 -56 12 -131q-7 -40 -26 -79h30q51 0 86.5 29.5 t45.5 80.5q4 23 -3 51h100q1 -26 -3 -50q-16 -91 -81 -144t-160 -53h-251z" />
<glyph unicode="&#xa4;" horiz-adv-x="598" d="M101 80l-35 43l89 75q-34 63 -21 140q14 75 72 135l-59 73l50 42l60 -73q73 47 146 47q77 0 128 -47l90 76l34 -43l-89 -75q34 -63 21 -136t-72 -138l60 -74l-51 -42l-60 72q-70 -46 -146 -46q-75 0 -128 46zM331 179q64 0 117 46t65 111q12 64 -24.5 110t-98.5 46 t-115.5 -46t-65.5 -109q-12 -66 23.5 -112t98.5 -46z" />
<glyph unicode="&#xa5;" d="M205 0l36 196h-147l14 78h141l-29 106h-112l14 78h76l-59 212h105l77 -295l186 295h106l-139 -212h76l-14 -78h-112l-69 -106h140l-14 -78h-146l-36 -196h-94z" />
<glyph unicode="&#xa6;" d="M265 331l63 339h94l-63 -339h-94zM172 -168l60 322h94l-60 -322h-94z" />
<glyph unicode="&#xa7;" d="M57 11h93q-5 -51 17 -78.5t69 -27.5q42 0 72 24.5t38 65.5q5 28 -9 49t-51 42l-122 70q-32 19 -43.5 29.5t-20.5 28.5q-20 39 -11 86q17 88 106 136q-24 49 -16 94q12 65 69 109t130 44q95 0 135 -75q17 -33 13 -92h-96q2 81 -69 81q-32 0 -58 -20.5t-31 -51.5 q-4 -23 5.5 -38.5t40.5 -33.5l110 -63q56 -32 75 -63.5t11 -77.5q-16 -81 -102 -136q39 -61 28 -114q-14 -79 -77 -129.5t-146 -50.5q-84 0 -128.5 53t-31.5 139zM215 238l142 -82q35 25 49.5 42t18.5 40q4 22 -7 37.5t-43 34.5l-133 75q-55 -33 -65 -78q-3 -20 7 -39 t31 -30z" />
<glyph unicode="&#xa8;" d="M391 583l20 111h91l-20 -111h-91zM236 583l20 111h91l-20 -111h-91z" />
<glyph unicode="&#xa9;" horiz-adv-x="788" d="M108 339q26 140 148.5 242t264.5 102q143 0 226.5 -102.5t57.5 -245.5q-27 -143 -148.5 -245.5t-264.5 -102.5q-146 0 -228.5 102.5t-55.5 249.5zM144 338q-25 -133 49.5 -226.5t204.5 -93.5q127 0 237 93.5t134 222.5q24 131 -51 224.5t-203 93.5q-127 0 -237 -93 t-134 -221zM236 343q16 86 92 147t168 61q131 0 178 -116h-82q-38 56 -106 56q-64 0 -117.5 -43.5t-64.5 -104.5t26 -105.5t99 -44.5q66 0 124 52h83q-86 -112 -219 -112q-90 0 -143.5 62t-37.5 148z" />
<glyph unicode="&#xaa;" horiz-adv-x="410" d="M238 260q-70 0 -109.5 46t-26.5 113q13 68 69.5 114t129.5 46q65 0 103 -44l6 36h62l-56 -303h-62l7 39q-44 -47 -123 -47zM254 317q43 0 79.5 29.5t44.5 70.5q8 44 -17 74.5t-70 30.5q-44 0 -79.5 -30t-43.5 -73q-8 -42 17.5 -72t68.5 -30z" />
<glyph unicode="&#xab;" horiz-adv-x="360" d="M227 210l18 94l147 123l-19 -103l-81 -66l56 -68l-19 -101zM182 89l-104 121l18 94l149 123l-19 -103l-80 -66l55 -68z" />
<glyph unicode="&#xac;" d="M67 181l16 88h436l-49 -269h-94l33 181h-342z" />
<glyph unicode="&#xad;" horiz-adv-x="253" d="M39 211l17 94h253l-17 -94h-253z" />
<glyph unicode="&#xae;" horiz-adv-x="788" d="M108 339q26 140 148.5 242t264.5 102q143 0 226.5 -102.5t57.5 -245.5q-27 -143 -148.5 -245.5t-264.5 -102.5q-146 0 -228.5 102.5t-55.5 249.5zM144 338q-25 -133 49.5 -226.5t204.5 -93.5q127 0 237 93.5t134 222.5q24 131 -51 224.5t-203 93.5q-127 0 -237 -93 t-134 -221zM292 141l74 402h134q74 0 108 -34t23 -96q-10 -52 -46.5 -84t-95.5 -40l92 -148h-85l-104 177l-32 -177h-68zM396 339h39q114 0 128 74q6 32 -15.5 51t-62.5 19h-62z" />
<glyph unicode="&#xaf;" d="M225 601l12 65h275l-12 -65h-275z" />
<glyph unicode="&#xb0;" horiz-adv-x="385" d="M267 401q-60 0 -94 41t-23 100q10 56 59.5 96.5t107.5 40.5q59 0 93.5 -40.5t23.5 -98.5q-11 -57 -60 -98t-107 -41zM276 453q37 0 68 25.5t38 61.5q6 36 -15.5 61.5t-58.5 25.5q-36 0 -67.5 -25.5t-37.5 -60.5q-7 -37 14.5 -62.5t58.5 -25.5z" />
<glyph unicode="&#xb1;" d="M236 124l33 174h-174l13 74h174l33 174h74l-33 -174h174l-13 -74h-174l-33 -174h-74zM40 0l13 74h422l-13 -74h-422z" />
<glyph unicode="&#xb2;" horiz-adv-x="333" d="M79 268l10 51l196 159q44 36 50 70q6 31 -9.5 52t-44.5 21q-43 0 -71 -39q-11 -17 -19 -54h-66q10 50 27 75q23 34 60 54.5t76 20.5q57 0 90 -38.5t23 -93.5q-11 -56 -80 -113l-132 -108h172l-11 -57h-271z" />
<glyph unicode="&#xb3;" horiz-adv-x="333" d="M206 260q-59 0 -92 38t-23 93h66q-5 -35 11.5 -54.5t50.5 -19.5q29 0 54.5 21t30.5 49q5 29 -12.5 48.5t-49.5 19.5h-25l11 62h24q27 0 45.5 14t22.5 39q4 22 -8.5 36.5t-35.5 14.5q-47 0 -64 -56h-66q11 45 37 68q45 45 106 45q50 0 77.5 -33t18.5 -82q-5 -24 -15.5 -40 t-34.5 -35q48 -33 35 -99q-10 -53 -58 -91t-106 -38z" />
<glyph unicode="&#xb4;" d="M323 560l-33 55l179 114l34 -60z" />
<glyph unicode="&#xb5;" d="M143 58l-42 -229h-94l121 654h94l-49 -267q-10 -51 -7 -78t20 -47q27 -32 74 -32q54 0 96 42q39 42 54 122l48 260h94l-89 -483h-94l13 75q-57 -87 -137 -87q-72 0 -102 70z" />
<glyph unicode="&#xb6;" d="M183 -100l77 415q-46 0 -72 11q-44 19 -63 62.5t-9 101.5q9 49 37 89.5t68 62.5q50 28 129 28h242l-11 -59h-46l-132 -711h-73l132 711h-74l-132 -711h-73z" />
<glyph unicode="&#xb7;" horiz-adv-x="214" d="M97 203l21 111h94l-21 -111h-94z" />
<glyph unicode="&#xb8;" d="M173 -81l49 81h45l-32 -55q7 1 18 1q34 0 52.5 -22t12.5 -55q-7 -39 -37.5 -65t-68.5 -26t-59.5 23.5t-16.5 57.5h50q7 -29 32 -29q17 0 29.5 11t15.5 27q3 15 -6 25t-25 10t-33 -13z" />
<glyph unicode="&#xb9;" horiz-adv-x="333" d="M196 268l64 345h-62l11 57h128l-75 -402h-66z" />
<glyph unicode="&#xba;" horiz-adv-x="398" d="M247 260q-72 0 -114.5 47.5t-29.5 114.5q12 65 71.5 111.5t131.5 46.5q73 0 115 -46.5t29 -113.5q-12 -65 -72 -112.5t-131 -47.5zM257 317q44 0 82 30t45 72q8 43 -18 73.5t-71 30.5t-82 -30t-45 -73q-7 -43 19 -73t70 -30z" />
<glyph unicode="&#xbb;" horiz-adv-x="361" d="M214 89l19 103l79 66l-54 68l19 101l100 -121l-17 -94zM63 89l19 103l79 66l-54 68l19 101l100 -121l-17 -94z" />
<glyph unicode="&#xbc;" horiz-adv-x="809" d="M236 0l404 670h56l-402 -670h-58zM196 268l64 345h-62l11 57h128l-75 -402h-66zM498 62l11 58l247 282h64l-52 -283h45l-11 -57h-45l-11 -62h-66l11 62h-193zM580 119h122l33 182z" />
<glyph unicode="&#xbd;" horiz-adv-x="809" d="M236 0l404 670h56l-402 -670h-58zM196 268l64 345h-62l11 57h128l-75 -402h-66zM505 0l9 51l196 159q44 36 50 70q6 31 -9.5 52t-44.5 21q-44 0 -70 -39q-12 -17 -19 -54h-66q8 48 26 75q23 34 60 54.5t76 20.5q57 0 90 -38.5t23 -93.5q-11 -58 -80 -114l-132 -107h172 l-10 -57h-271z" />
<glyph unicode="&#xbe;" horiz-adv-x="809" d="M206 260q-59 0 -92 38t-23 93h66q-5 -35 11.5 -54.5t50.5 -19.5q29 0 54.5 21t30.5 49q5 29 -12.5 48.5t-49.5 19.5h-25l11 62h24q27 0 45.5 14t22.5 39q4 22 -8.5 36.5t-35.5 14.5q-47 0 -64 -56h-66q11 45 37 68q45 45 106 45q50 0 77.5 -33t18.5 -82q-5 -24 -15.5 -40 t-34.5 -35q48 -33 35 -99q-10 -53 -58 -91t-106 -38zM236 0l404 670h56l-402 -670h-58zM498 62l11 58l246 282h64l-52 -283h45l-11 -57h-45l-11 -62h-66l11 62h-192zM580 119h121l33 182z" />
<glyph unicode="&#xbf;" horiz-adv-x="452" d="M265 392l21 111h94l-21 -111h-94zM38 23q9 49 32 82t78 76q47 36 68.5 67t37.5 83h94q-23 -116 -142 -210q-39 -31 -54.5 -50.5t-19.5 -43.5q-8 -47 17.5 -79.5t70.5 -32.5q59 0 100 51q15 19 27 57h96q-19 -77 -67 -126q-76 -78 -175 -78q-82 0 -130.5 60.5t-32.5 143.5 z" />
<glyph unicode="&#xc0;" horiz-adv-x="597" d="M446 724l-163 99l53 66l157 -103zM0 0l379 670h87l131 -670h-103l-39 198h-241l-110 -198h-104zM266 288h172l-39 255z" />
<glyph unicode="&#xc1;" horiz-adv-x="597" d="M423 724l-25 62l195 103l29 -66zM0 0l379 670h87l131 -670h-103l-39 198h-241l-110 -198h-104zM266 288h172l-39 255z" />
<glyph unicode="&#xc2;" horiz-adv-x="597" d="M266 739l151 128h91l102 -128h-103l-58 69l-79 -69h-104zM0 0l379 670h87l131 -670h-103l-39 198h-241l-110 -198h-104zM266 288h172l-39 255z" />
<glyph unicode="&#xc3;" horiz-adv-x="597" d="M328 740l-29 57l11 10l18 15q36 31 71 31q20 0 64 -18q33 -14 57 -14q15 0 28 6.5t44 30.5l28 -58q-56 -55 -109 -55q-33 0 -79 22q-24 10 -34 10q-25 0 -60 -29q-2 -2 -10 -8zM0 0l379 670h87l131 -670h-103l-39 198h-241l-110 -198h-104zM266 288h172l-39 255z" />
<glyph unicode="&#xc4;" horiz-adv-x="597" d="M473 747l21 111h94l-21 -111h-94zM312 747l21 111h94l-21 -111h-94zM0 0l379 670h87l131 -670h-103l-39 198h-241l-110 -198h-104zM266 288h172l-39 255z" />
<glyph unicode="&#xc5;" horiz-adv-x="597" d="M431 717q-40 0 -62.5 28t-15.5 68t40.5 67.5t74.5 27.5q38 0 61 -28.5t15 -66.5q-7 -40 -40.5 -68t-72.5 -28zM441 769q17 0 31.5 13t17.5 31q3 17 -7 30t-26 13q-17 0 -31.5 -12.5t-18.5 -30.5q-3 -18 7 -31t27 -13zM0 0l379 670h87l131 -670h-103l-39 198h-241 l-110 -198h-104zM266 288h172l-39 255z" />
<glyph unicode="&#xc6;" horiz-adv-x="806" d="M-20 0l574 670h334l-17 -90h-228l-37 -197h228l-16 -90h-228l-38 -203h228l-16 -90h-326l34 186h-221l-157 -186h-114zM332 276h157l46 248z" />
<glyph unicode="&#xc7;" horiz-adv-x="710" d="M246 -149h53q1 -30 33 -30q17 0 30 11t17 30q3 15 -6.5 25t-26.5 10q-16 0 -35 -13l-27 32l41 75q-122 20 -187.5 118t-41.5 228q27 144 146 245t263 101q99 0 169.5 -47.5t104.5 -136.5h-118q-61 94 -171 94q-103 0 -189.5 -75t-106.5 -182q-20 -106 39.5 -183 t159.5 -77q107 0 199 89h120q-52 -70 -129 -118q-43 -27 -98 -44t-100 -17q-5 0 -11 1l-24 -43q8 1 20 1q37 0 57.5 -23.5t13.5 -58.5q-7 -41 -41 -68.5t-78 -27.5q-40 0 -59.5 21.5t-16.5 62.5z" />
<glyph unicode="&#xc8;" horiz-adv-x="471" d="M399 724l-163 99l53 66l157 -103zM67 0l124 670h362l-17 -90h-264l-37 -197h264l-16 -90h-264l-38 -203h264l-16 -90h-362z" />
<glyph unicode="&#xc9;" horiz-adv-x="471" d="M372 724l-25 62l195 103l29 -66zM67 0l124 670h362l-17 -90h-264l-37 -197h264l-16 -90h-264l-38 -203h264l-16 -90h-362z" />
<glyph unicode="&#xca;" horiz-adv-x="471" d="M219 739l151 128h91l102 -128h-103l-58 69l-79 -69h-104zM67 0l124 670h362l-17 -90h-264l-37 -197h264l-16 -90h-264l-38 -203h264l-16 -90h-362z" />
<glyph unicode="&#xcb;" horiz-adv-x="471" d="M426 747l21 111h94l-21 -111h-94zM265 747l21 111h94l-21 -111h-94zM67 0l124 670h362l-17 -90h-264l-37 -197h264l-16 -90h-264l-38 -203h264l-16 -90h-362z" />
<glyph unicode="&#xcc;" horiz-adv-x="232" d="M263 724l-150 99l53 66l143 -103zM67 0l124 670h98l-124 -670h-98z" />
<glyph unicode="&#xcd;" horiz-adv-x="232" d="M248 724l-25 62l181 103l29 -66zM67 0l124 670h98l-124 -670h-98z" />
<glyph unicode="&#xce;" horiz-adv-x="232" d="M103 739l135 128h90l85 -128h-100l-43 69l-67 -69h-100zM67 0l124 670h98l-124 -670h-98z" />
<glyph unicode="&#xcf;" horiz-adv-x="232" d="M280 747l21 111h88l-21 -111h-88zM147 747l21 111h88l-21 -111h-88zM67 0l124 670h98l-124 -670h-98z" />
<glyph unicode="&#xd0;" horiz-adv-x="661" d="M67 0l54 293h-64l16 87h64l54 290h237q137 0 208 -90q37 -47 51 -112.5t1 -136.5q-12 -66 -46 -127.5t-81 -105.5q-107 -98 -286 -98h-208zM181 90h79q133 0 215 56q93 66 115 186q20 108 -38 181q-54 67 -160 67h-120l-37 -200h167l-16 -87h-167z" />
<glyph unicode="&#xd1;" horiz-adv-x="667" d="M370 740l-29 57l11 10l18 15q36 31 71 31q20 0 64 -18q33 -14 57 -14q15 0 28 6.5t44 30.5l28 -58q-56 -55 -109 -55q-33 0 -79 22q-24 10 -34 10q-25 0 -60 -29q-2 -2 -10 -8zM67 0l124 670h107l233 -510l95 510h98l-124 -670h-101l-238 518l-96 -518h-98z" />
<glyph unicode="&#xd2;" horiz-adv-x="764" d="M530 724l-163 99l53 66l157 -103zM96 335q26 145 146.5 246.5t265.5 101.5q148 0 230 -101.5t54 -251.5q-26 -140 -148 -241.5t-265 -101.5q-144 0 -227 102t-56 246zM234 149q57 -72 163 -72q104 0 188 72q41 35 70.5 85t38.5 98q18 102 -31 176q-58 85 -172 85 q-113 0 -201 -85q-79 -76 -96 -173q-10 -50 1 -100t39 -86z" />
<glyph unicode="&#xd3;" horiz-adv-x="764" d="M507 724l-25 62l195 103l29 -66zM96 335q26 145 146.5 246.5t265.5 101.5q148 0 230 -101.5t54 -251.5q-26 -140 -148 -241.5t-265 -101.5q-144 0 -227 102t-56 246zM234 149q57 -72 163 -72q104 0 188 72q41 35 70.5 85t38.5 98q18 102 -31 176q-58 85 -172 85 q-113 0 -201 -85q-79 -76 -96 -173q-10 -50 1 -100t39 -86z" />
<glyph unicode="&#xd4;" horiz-adv-x="764" d="M353 739l151 128h91l102 -128h-103l-58 69l-79 -69h-104zM96 335q26 145 146.5 246.5t265.5 101.5q148 0 230 -101.5t54 -251.5q-26 -140 -148 -241.5t-265 -101.5q-144 0 -227 102t-56 246zM234 149q57 -72 163 -72q104 0 188 72q41 35 70.5 85t38.5 98q18 102 -31 176 q-58 85 -172 85q-113 0 -201 -85q-79 -76 -96 -173q-10 -50 1 -100t39 -86z" />
<glyph unicode="&#xd5;" horiz-adv-x="764" d="M422 740l-29 57l11 10l18 15q36 31 71 31q20 0 64 -18q33 -14 57 -14q15 0 28 6.5t44 30.5l28 -58q-56 -55 -109 -55q-33 0 -79 22q-24 10 -34 10q-25 0 -60 -29q-2 -2 -10 -8zM96 335q26 145 146.5 246.5t265.5 101.5q148 0 230 -101.5t54 -251.5q-26 -140 -148 -241.5 t-265 -101.5q-144 0 -227 102t-56 246zM234 149q57 -72 163 -72q104 0 188 72q41 35 70.5 85t38.5 98q18 102 -31 176q-58 85 -172 85q-113 0 -201 -85q-79 -76 -96 -173q-10 -50 1 -100t39 -86z" />
<glyph unicode="&#xd6;" horiz-adv-x="764" d="M557 747l21 111h94l-21 -111h-94zM396 747l21 111h94l-21 -111h-94zM96 335q26 145 146.5 246.5t265.5 101.5q148 0 230 -101.5t54 -251.5q-26 -140 -148 -241.5t-265 -101.5q-144 0 -227 102t-56 246zM234 149q57 -72 163 -72q104 0 188 72q41 35 70.5 85t38.5 98 q18 102 -31 176q-58 85 -172 85q-113 0 -201 -85q-79 -76 -96 -173q-10 -50 1 -100t39 -86z" />
<glyph unicode="&#xd7;" d="M144 152l-41 49l160 135l-110 135l59 50l110 -135l160 135l41 -50l-160 -135l111 -137l-59 -49l-111 137z" />
<glyph unicode="&#xd8;" horiz-adv-x="764" d="M81 -5l78 87q-90 106 -63 253q27 146 147.5 247t266.5 101q45 0 74 -7.5t92 -35.5l77 82l55 -45l-79 -86q44 -48 60.5 -115.5t3.5 -140.5q-27 -144 -148 -246t-265 -102q-97 0 -168 48l-78 -86zM228 156l376 407q-23 17 -44.5 23.5t-60.5 6.5q-122 0 -209 -84 q-79 -79 -97 -174q-18 -100 35 -179zM282 108q41 -31 116 -31q104 0 187 72q89 78 110 186q21 111 -39 179z" />
<glyph unicode="&#xd9;" horiz-adv-x="570" d="M435 724l-163 99l53 66l157 -103zM97 205l87 465h98l-84 -452q-12 -66 17 -104q29 -37 84 -37q57 0 101 38q23 20 33.5 41.5t18.5 61.5l84 452h98l-87 -465q-17 -92 -89 -151q-82 -67 -177 -67q-94 0 -147.5 63t-36.5 155z" />
<glyph unicode="&#xda;" horiz-adv-x="570" d="M422 724l-25 62l195 103l29 -66zM97 205l87 465h98l-84 -452q-12 -66 17 -104q29 -37 84 -37q57 0 101 38q23 20 33.5 41.5t18.5 61.5l84 452h98l-87 -465q-17 -92 -89 -151q-82 -67 -177 -67q-94 0 -147.5 63t-36.5 155z" />
<glyph unicode="&#xdb;" horiz-adv-x="570" d="M259 739l151 128h91l102 -128h-103l-58 69l-79 -69h-104zM97 205l87 465h98l-84 -452q-12 -66 17 -104q29 -37 84 -37q57 0 101 38q23 20 33.5 41.5t18.5 61.5l84 452h98l-87 -465q-17 -92 -89 -151q-82 -67 -177 -67q-94 0 -147.5 63t-36.5 155z" />
<glyph unicode="&#xdc;" horiz-adv-x="570" d="M463 747l21 111h94l-21 -111h-94zM302 747l21 111h94l-21 -111h-94zM97 205l87 465h98l-84 -452q-12 -66 17 -104q29 -37 84 -37q57 0 101 38q23 20 33.5 41.5t18.5 61.5l84 452h98l-87 -465q-17 -92 -89 -151q-82 -67 -177 -67q-94 0 -147.5 63t-36.5 155z" />
<glyph unicode="&#xdd;" horiz-adv-x="513" d="M397 724l-25 62l195 103l29 -66zM208 0l44 241l-128 429h110l88 -315l206 315h109l-287 -429l-44 -241h-98z" />
<glyph unicode="&#xde;" horiz-adv-x="519" d="M67 0l124 670h98l-18 -94h135q87 0 132 -56t29 -144q-15 -82 -79 -139q-40 -37 -84.5 -52t-111.5 -15h-96l-31 -170h-98zM213 260h101q64 0 101 29q44 34 54 87q10 49 -20 82q-15 17 -34.5 22.5t-60.5 5.5h-99z" />
<glyph unicode="&#xdf;" horiz-adv-x="574" d="M57 0l86 468q17 92 78 149q71 66 159 66q82 0 130 -58.5t33 -140.5q-12 -66 -72 -107q31 -8 49.5 -20t32.5 -34q39 -56 26 -125q-16 -91 -87 -151t-160 -60q-69 0 -114 39q-24 21 -33.5 38t-13.5 48l-20 -112h-94zM184 176h76q-2 -47 23 -75t68 -28q46 0 84.5 33.5 t47.5 82.5q11 59 -32 91q-29 22 -86 22h-65l16 83q50 1 86 26q40 30 48 79q8 45 -16.5 76t-68.5 31q-49 0 -82 -33.5t-45 -95.5z" />
<glyph unicode="&#xe0;" horiz-adv-x="625" d="M454 560l-141 109l58 60l135 -114zM78 250q18 100 97 177q92 89 215 89q56 0 102.5 -24t63.5 -62l14 73h87l-93 -503h-87l14 79q-75 -92 -206 -92q-109 0 -168.5 75.5t-38.5 187.5zM172 250q-13 -73 27.5 -125t110.5 -52q71 0 131.5 51.5t73.5 122.5q14 77 -26 130 t-113 53q-71 0 -131 -52.5t-73 -127.5z" />
<glyph unicode="&#xe1;" horiz-adv-x="625" d="M407 560l-33 55l179 114l34 -60zM78 250q18 100 97 177q92 89 215 89q56 0 102.5 -24t63.5 -62l14 73h87l-93 -503h-87l14 79q-75 -92 -206 -92q-109 0 -168.5 75.5t-38.5 187.5zM172 250q-13 -73 27.5 -125t110.5 -52q71 0 131.5 51.5t73.5 122.5q14 77 -26 130t-113 53 q-71 0 -131 -52.5t-73 -127.5z" />
<glyph unicode="&#xe2;" horiz-adv-x="625" d="M275 573l139 136h91l90 -136h-96l-48 76l-80 -76h-96zM78 250q18 100 97 177q92 89 215 89q56 0 102.5 -24t63.5 -62l14 73h87l-93 -503h-87l14 79q-75 -92 -206 -92q-109 0 -168.5 75.5t-38.5 187.5zM172 250q-13 -73 27.5 -125t110.5 -52q71 0 131.5 51.5t73.5 122.5 q14 77 -26 130t-113 53q-71 0 -131 -52.5t-73 -127.5z" />
<glyph unicode="&#xe3;" horiz-adv-x="625" d="M318 582l-28 54q2 2 7 6q4 3 4 4l17 15q34 32 70 32q24 0 63 -19q33 -15 55 -15q29 0 70 38l25 -55q-50 -56 -105 -56q-29 0 -75 23q-23 11 -35 11q-23 0 -58 -30q-5 -5 -10 -8zM78 250q18 100 97 177q92 89 215 89q56 0 102.5 -24t63.5 -62l14 73h87l-93 -503h-87l14 79 q-75 -92 -206 -92q-109 0 -168.5 75.5t-38.5 187.5zM172 250q-13 -73 27.5 -125t110.5 -52q71 0 131.5 51.5t73.5 122.5q14 77 -26 130t-113 53q-71 0 -131 -52.5t-73 -127.5z" />
<glyph unicode="&#xe4;" horiz-adv-x="625" d="M472 583l20 111h91l-20 -111h-91zM317 583l20 111h91l-20 -111h-91zM78 250q18 100 97 177q92 89 215 89q56 0 102.5 -24t63.5 -62l14 73h87l-93 -503h-87l14 79q-75 -92 -206 -92q-109 0 -168.5 75.5t-38.5 187.5zM172 250q-13 -73 27.5 -125t110.5 -52q71 0 131.5 51.5 t73.5 122.5q14 77 -26 130t-113 53q-71 0 -131 -52.5t-73 -127.5z" />
<glyph unicode="&#xe5;" horiz-adv-x="625" d="M435 556q-40 0 -63 28t-16 68t40.5 67.5t74.5 27.5q38 0 61 -28.5t16 -66.5q-7 -40 -40.5 -68t-72.5 -28zM444 606q17 0 32.5 13.5t19.5 32.5q3 18 -7.5 31.5t-27.5 13.5q-18 0 -33.5 -13t-19.5 -32q-3 -19 7.5 -32.5t28.5 -13.5zM78 250q18 100 97 177q92 89 215 89 q56 0 102.5 -24t63.5 -62l14 73h87l-93 -503h-87l14 79q-75 -92 -206 -92q-109 0 -168.5 75.5t-38.5 187.5zM172 250q-13 -73 27.5 -125t110.5 -52q71 0 131.5 51.5t73.5 122.5q14 77 -26 130t-113 53q-71 0 -131 -52.5t-73 -127.5z" />
<glyph unicode="&#xe6;" horiz-adv-x="1020" d="M79 254q20 111 110.5 186.5t202.5 75.5q111 0 166 -73l11 60h86l-11 -60q79 74 182 74q106 0 166.5 -77.5t40.5 -186.5q-1 -13 -11 -43h-419q1 -59 40.5 -98t99.5 -39q46 0 89.5 23t71.5 63h97q-32 -58 -92 -106q-37 -29 -88 -47.5t-96 -18.5q-47 0 -81 16t-72 55 l-10 -58h-86l10 58q-49 -39 -91.5 -55t-97.5 -16q-113 0 -176 77t-42 190zM618 282h326q5 47 -9 77q-16 34 -49.5 53t-75.5 19q-88 0 -148 -66q-30 -34 -44 -83zM172 253q-14 -77 25 -128.5t112 -51.5t133.5 51.5t74.5 126.5q14 77 -26.5 128t-115.5 51q-73 0 -131 -50 t-72 -127z" />
<glyph unicode="&#xe7;" horiz-adv-x="561" d="M142 38q-41 38 -58 94.5t-6 119.5q21 111 109.5 187.5t197.5 76.5q86 0 147.5 -52t65.5 -129h-104q-20 51 -48.5 73t-75.5 22q-71 0 -127.5 -50.5t-70.5 -127.5q-13 -73 24.5 -126t103.5 -53q45 0 89 25.5t73 67.5h104q-40 -79 -117 -129t-159 -50l-24 -41l19 1 q34 1 52.5 -21.5t12.5 -56.5q-7 -39 -38 -65t-69 -26t-59.5 23.5t-16.5 57.5h50q6 -29 32 -29q17 0 29.5 11t15.5 27t-5.5 26t-25.5 10q-16 0 -33 -14l-26 29l42 71q-62 10 -104 48z" />
<glyph unicode="&#xe8;" horiz-adv-x="577" d="M410 560l-141 109l58 60l135 -114zM78 252q21 112 111 190t197 78q105 0 165.5 -77t40.5 -185q-2 -18 -12 -48h-415q4 -62 42 -99.5t98 -37.5q93 0 158 85h95q-44 -79 -117.5 -125t-155.5 -46q-105 0 -166 78t-41 187zM178 282h326q8 62 -31.5 107t-103.5 45 q-73 0 -133 -55q-37 -33 -58 -97z" />
<glyph unicode="&#xe9;" horiz-adv-x="577" d="M396 560l-33 55l179 114l34 -60zM78 252q21 112 111 190t197 78q105 0 165.5 -77t40.5 -185q-2 -18 -12 -48h-415q4 -62 42 -99.5t98 -37.5q93 0 158 85h95q-44 -79 -117.5 -125t-155.5 -46q-105 0 -166 78t-41 187zM178 282h326q8 62 -31.5 107t-103.5 45 q-73 0 -133 -55q-37 -33 -58 -97z" />
<glyph unicode="&#xea;" horiz-adv-x="577" d="M248 573l139 136h91l90 -136h-96l-48 76l-80 -76h-96zM78 252q21 112 111 190t197 78q105 0 165.5 -77t40.5 -185q-2 -18 -12 -48h-415q4 -62 42 -99.5t98 -37.5q93 0 158 85h95q-44 -79 -117.5 -125t-155.5 -46q-105 0 -166 78t-41 187zM178 282h326q8 62 -31.5 107 t-103.5 45q-73 0 -133 -55q-37 -33 -58 -97z" />
<glyph unicode="&#xeb;" horiz-adv-x="577" d="M442 583l20 111h91l-20 -111h-91zM287 583l20 111h91l-20 -111h-91zM78 252q21 112 111 190t197 78q105 0 165.5 -77t40.5 -185q-2 -18 -12 -48h-415q4 -62 42 -99.5t98 -37.5q93 0 158 85h95q-44 -79 -117.5 -125t-155.5 -46q-105 0 -166 78t-41 187zM178 282h326 q8 62 -31.5 107t-103.5 45q-73 0 -133 -55q-37 -33 -58 -97z" />
<glyph unicode="&#xec;" horiz-adv-x="214" d="M222 558l-126 111l56 58l122 -114zM60 0l93 503h94l-93 -503h-94z" />
<glyph unicode="&#xed;" horiz-adv-x="214" d="M208 560l-33 55l166 114l33 -60zM60 0l93 503h94l-93 -503h-94z" />
<glyph unicode="&#xee;" horiz-adv-x="214" d="M73 573l126 136h90l78 -136h-94l-38 76l-69 -76h-93zM60 0l93 503h94l-93 -503h-94z" />
<glyph unicode="&#xef;" horiz-adv-x="214" d="M240 583l20 111h86l-20 -111h-86zM111 583l20 111h86l-20 -111h-86zM60 0l93 503h94l-93 -503h-94z" />
<glyph unicode="&#xf0;" horiz-adv-x="606" d="M131 56q-35 38 -48.5 91t-3.5 107q20 105 109.5 181t194.5 76q71 0 116 -38q-8 56 -38 108l-73 -31l-21 45l72 31q-19 32 -30 46l63 33q2 -2 4 -3.5t3 -3t2 -2.5t2 -1q5 -10 17 -24l11 -14l78 32l21 -44l-74 -32q49 -79 74 -182t11 -176q-21 -112 -115 -190.5t-206 -78.5 q-108 0 -169 70zM172 252q-13 -74 29 -127t115 -53q72 0 134.5 52.5t75.5 125.5q14 76 -28 128.5t-116 52.5q-73 0 -134.5 -52.5t-75.5 -126.5z" />
<glyph unicode="&#xf1;" horiz-adv-x="562" d="M282 582l-28 54q2 2 7 6q4 3 4 4l17 15q34 32 70 32q24 0 63 -19q33 -15 55 -15q29 0 70 38l25 -55q-50 -56 -105 -56q-29 0 -75 23q-23 11 -35 11q-23 0 -58 -30q-5 -5 -10 -8zM60 0l93 503h87l-10 -53q62 67 161 67q94 0 141 -57.5t30 -151.5l-57 -308h-94l50 274 q13 72 -1 106q-10 23 -36 37t-60 14q-61 0 -103.5 -42t-55.5 -115l-50 -274h-95z" />
<glyph unicode="&#xf2;" horiz-adv-x="606" d="M418 560l-141 109l58 60l135 -114zM79 254q19 108 113 185t205 77q114 0 178.5 -77t44.5 -188q-10 -52 -43 -104t-80 -89q-88 -71 -197 -71q-112 0 -177 78.5t-44 188.5zM172 252q-14 -74 28.5 -126.5t115.5 -52.5q72 0 134 52.5t76 124.5q14 76 -28 128t-116 52 q-73 0 -134.5 -52t-75.5 -126z" />
<glyph unicode="&#xf3;" horiz-adv-x="606" d="M404 560l-33 55l179 114l34 -60zM79 254q19 108 113 185t205 77q114 0 178.5 -77t44.5 -188q-10 -52 -43 -104t-80 -89q-88 -71 -197 -71q-112 0 -177 78.5t-44 188.5zM172 252q-14 -74 28.5 -126.5t115.5 -52.5q72 0 134 52.5t76 124.5q14 76 -28 128t-116 52 q-73 0 -134.5 -52t-75.5 -126z" />
<glyph unicode="&#xf4;" horiz-adv-x="606" d="M255 573l139 136h91l90 -136h-96l-48 76l-80 -76h-96zM79 254q19 108 113 185t205 77q114 0 178.5 -77t44.5 -188q-10 -52 -43 -104t-80 -89q-88 -71 -197 -71q-112 0 -177 78.5t-44 188.5zM172 252q-14 -74 28.5 -126.5t115.5 -52.5q72 0 134 52.5t76 124.5 q14 76 -28 128t-116 52q-73 0 -134.5 -52t-75.5 -126z" />
<glyph unicode="&#xf5;" horiz-adv-x="606" d="M316 582l-28 54q2 2 7 6q4 3 4 4l17 15q34 32 70 32q24 0 63 -19q33 -15 55 -15q29 0 70 38l25 -55q-50 -56 -105 -56q-29 0 -75 23q-23 11 -35 11q-23 0 -58 -30q-5 -5 -10 -8zM79 254q19 108 113 185t205 77q114 0 178.5 -77t44.5 -188q-10 -52 -43 -104t-80 -89 q-88 -71 -197 -71q-112 0 -177 78.5t-44 188.5zM172 252q-14 -74 28.5 -126.5t115.5 -52.5q72 0 134 52.5t76 124.5q14 76 -28 128t-116 52q-73 0 -134.5 -52t-75.5 -126z" />
<glyph unicode="&#xf6;" horiz-adv-x="606" d="M446 583l20 111h91l-20 -111h-91zM291 583l20 111h91l-20 -111h-91zM79 254q19 108 113 185t205 77q114 0 178.5 -77t44.5 -188q-10 -52 -43 -104t-80 -89q-88 -71 -197 -71q-112 0 -177 78.5t-44 188.5zM172 252q-14 -74 28.5 -126.5t115.5 -52.5q72 0 134 52.5 t76 124.5q14 76 -28 128t-116 52q-73 0 -134.5 -52t-75.5 -126z" />
<glyph unicode="&#xf7;" d="M287 429l18 97h87l-18 -97h-87zM95 298l13 74h422l-13 -74h-422zM234 144l18 97h87l-18 -97h-87z" />
<glyph unicode="&#xf8;" horiz-adv-x="606" d="M82 -21l55 69q-80 88 -59 206q20 108 114 185t205 77q56 0 115 -25l57 68l48 -36l-57 -68q40 -36 55.5 -89t4.5 -112q-20 -110 -114 -188.5t-205 -78.5q-67 0 -113 26l-57 -69zM202 123l245 293q-29 14 -64 14q-74 0 -135.5 -52t-75.5 -126q-14 -73 30 -129zM252 89 q26 -16 62 -16q74 0 136 52t76 126q15 79 -30 128z" />
<glyph unicode="&#xf9;" horiz-adv-x="562" d="M400 560l-141 109l58 60l135 -114zM93 195l57 308h94l-51 -274q-13 -71 1 -106q11 -23 36.5 -37t59.5 -14q61 0 103.5 42t55.5 115l51 274h94l-93 -503h-87l9 53q-59 -67 -160 -67q-94 0 -141 57.5t-29 151.5z" />
<glyph unicode="&#xfa;" horiz-adv-x="562" d="M392 560l-33 55l179 114l34 -60zM93 195l57 308h94l-51 -274q-13 -71 1 -106q11 -23 36.5 -37t59.5 -14q61 0 103.5 42t55.5 115l51 274h94l-93 -503h-87l9 53q-59 -67 -160 -67q-94 0 -141 57.5t-29 151.5z" />
<glyph unicode="&#xfb;" horiz-adv-x="562" d="M233 573l139 136h91l90 -136h-96l-48 76l-80 -76h-96zM93 195l57 308h94l-51 -274q-13 -71 1 -106q11 -23 36.5 -37t59.5 -14q61 0 103.5 42t55.5 115l51 274h94l-93 -503h-87l9 53q-59 -67 -160 -67q-94 0 -141 57.5t-29 151.5z" />
<glyph unicode="&#xfc;" horiz-adv-x="562" d="M426 583l20 111h91l-20 -111h-91zM271 583l20 111h91l-20 -111h-91zM93 195l57 308h94l-51 -274q-13 -71 1 -106q11 -23 36.5 -37t59.5 -14q61 0 103.5 42t55.5 115l51 274h94l-93 -503h-87l9 53q-59 -67 -160 -67q-94 0 -141 57.5t-29 151.5z" />
<glyph unicode="&#xfd;" horiz-adv-x="498" d="M364 560l-33 55l179 114l34 -60zM93 -168l106 178l-108 493h102l74 -391l225 391h101l-403 -671h-97z" />
<glyph unicode="&#xfe;" horiz-adv-x="619" d="M28 -168l156 838h94l-46 -244q76 90 190 90q110 0 170 -78t39 -194q-20 -109 -107.5 -183.5t-194.5 -74.5q-57 0 -101 23.5t-61 62.5l-45 -240h-94zM198 252q-14 -76 26 -128t111 -52q70 0 129 51.5t73 123.5q14 76 -26.5 129.5t-111.5 53.5q-70 0 -128.5 -52t-72.5 -126 z" />
<glyph unicode="&#xff;" horiz-adv-x="498" d="M399 583l20 111h91l-20 -111h-91zM244 583l20 111h91l-20 -111h-91zM93 -168l106 178l-108 493h102l74 -391l225 391h101l-403 -671h-97z" />
<glyph unicode="&#x152;" horiz-adv-x="991" d="M152 81q-39 46 -54.5 113.5t-2.5 136.5q13 70 56 141.5t100 118.5q54 44 123.5 68.5t137.5 24.5q77 0 137 -30t86 -82l18 98h320l-17 -90h-223l-37 -197h223l-16 -90h-223l-38 -203h223l-16 -90h-320l17 96q-47 -53 -116.5 -81.5t-148.5 -28.5q-71 0 -131.5 25t-97.5 70z M193 330q-20 -109 37.5 -181.5t164.5 -72.5t190.5 72t103.5 182q22 116 -34.5 190t-165.5 74q-104 0 -190 -76t-106 -188z" />
<glyph unicode="&#x153;" horiz-adv-x="1032" d="M78 252q21 113 111.5 189t204.5 76q151 0 205 -120q105 119 236 119q110 0 171 -76.5t40 -189.5q-1 -7 -10 -40h-424q0 -60 39.5 -98.5t101.5 -38.5q103 0 166 87h95q-39 -70 -99 -113q-84 -60 -178 -60q-65 0 -115.5 31.5t-75.5 89.5q-44 -57 -108.5 -89t-134.5 -32 q-118 0 -182 76t-43 189zM172 252q-14 -77 26 -128t114 -51q76 0 137 50.5t75 125.5q14 79 -27 130.5t-118 51.5q-75 0 -134 -51t-73 -128zM625 282h333q5 58 -20 94q-39 54 -119 54q-86 0 -146 -60q-31 -31 -48 -88z" />
<glyph unicode="&#x178;" horiz-adv-x="513" d="M434 747l21 111h94l-21 -111h-94zM273 747l21 111h94l-21 -111h-94zM208 0l44 241l-128 429h110l88 -315l206 315h109l-287 -429l-44 -241h-98z" />
<glyph unicode="&#x2c6;" d="M197 573l139 136h91l90 -136h-96l-48 76l-80 -76h-96z" />
<glyph unicode="&#x2dc;" d="M241 582l-28 54q2 2 7 6q4 3 4 4l17 15q34 32 70 32q24 0 63 -19q33 -15 55 -15q29 0 70 38l25 -55q-50 -56 -105 -56q-29 0 -75 23q-23 11 -35 11q-23 0 -58 -30q-5 -5 -10 -8z" />
<glyph unicode="&#x2013;" d="M83 211l17 94h416l-17 -94h-416z" />
<glyph unicode="&#x2014;" horiz-adv-x="759" d="M39 211l17 94h759l-17 -94h-759z" />
<glyph unicode="&#x2018;" horiz-adv-x="214" d="M142 444l19 101q10 55 38 85t79 40l-11 -56q-36 -13 -43 -51q-1 -2 -1 -8h33l-20 -111h-94z" />
<glyph unicode="&#x2019;" horiz-adv-x="214" d="M142 444l10 56q37 13 44 51v8h-33l21 111h94l-19 -101q-20 -106 -117 -125z" />
<glyph unicode="&#x201a;" horiz-adv-x="214" d="M60 0l20 111h94l-19 -101q-19 -106 -117 -125l11 56q36 13 43 51q0 1 0.5 3.5t0.5 4.5h-33z" />
<glyph unicode="&#x201c;" horiz-adv-x="355" d="M283 444l19 101q10 55 38 85t79 40l-11 -56q-36 -13 -43 -51q-1 -2 -1 -8h33l-20 -111h-94zM142 444l19 101q10 55 38 85t79 40l-11 -56q-36 -13 -43 -51q-1 -2 -1 -8h33l-20 -111h-94z" />
<glyph unicode="&#x201d;" horiz-adv-x="355" d="M283 444l10 56q37 13 44 51v8h-33l21 111h94l-19 -101q-20 -106 -117 -125zM142 444l10 56q37 13 44 51v8h-33l21 111h94l-19 -101q-20 -106 -117 -125z" />
<glyph unicode="&#x201e;" horiz-adv-x="355" d="M190 -59q36 13 43 51q0 1 0.5 3.5t0.5 4.5h-33l20 111h94l-19 -101q-19 -106 -117 -125zM60 0l20 111h94l-19 -101q-19 -106 -117 -125l11 56q36 13 43 51q0 1 0.5 3.5t0.5 4.5h-33z" />
<glyph unicode="&#x2022;" horiz-adv-x="670" d="M374 201q-58 0 -92 41t-23 98q11 59 60 99.5t108 40.5q56 0 89 -41.5t23 -98.5q-11 -57 -59.5 -98t-105.5 -41z" />
<glyph unicode="&#x2026;" horiz-adv-x="643" d="M489 0l20 111h94l-20 -111h-94zM274 0l20 111h94l-20 -111h-94zM60 0l20 111h94l-20 -111h-94z" />
<glyph unicode="&#x2039;" horiz-adv-x="211" d="M179 89l-101 121l18 94l146 123l-19 -103l-80 -66l55 -68z" />
<glyph unicode="&#x203a;" horiz-adv-x="211" d="M63 89l19 103l79 66l-54 68l19 101l100 -121l-17 -94z" />
<glyph unicode="&#x20ac;" horiz-adv-x="724" d="M78 236l48 77h53q2 19 3 25q2 10 5 19h-86l47 77h66q53 112 157.5 181t219.5 69q131 0 210 -81l-59 -97q-58 88 -165 88q-76 0 -147 -43.5t-113 -116.5h382l-47 -77h-367q-3 -9 -5 -21q-3 -14 -2 -23h348l-49 -77h-295q18 -73 71 -116t127 -43q106 0 199 88l-23 -127 q-90 -51 -194 -51q-113 0 -193 70t-90 179h-101z" />
<glyph unicode="&#x2122;" horiz-adv-x="783" d="M335 288l71 382h99l68 -282l175 282h99l-71 -382h-66l56 304l-190 -304h-41l-78 304l-56 -304h-66zM152 288l60 325h-79l11 57h223l-11 -57h-78l-60 -325h-66z" />
<glyph unicode="&#xe000;" horiz-adv-x="505" d="M0 505h505v-505h-505v505z" />
<glyph unicode="&#xfb01;" horiz-adv-x="499" d="M448 559l21 111h94l-21 -111h-94zM74 0l77 417h-45l16 86h45l4 23q12 66 70 109q28 20 55.5 27.5t72.5 7.5h11l-16 -82q-41 -1 -59 -10q-34 -18 -40 -52l-4 -23h88l-16 -86h-88l-77 -417h-94zM345 0l93 503h94l-93 -503h-94z" />
<glyph unicode="&#xfb02;" horiz-adv-x="499" d="M345 0l124 670h94l-124 -670h-94zM74 0l77 417h-45l16 86h45l4 23q12 66 70 109q28 20 55.5 27.5t72.5 7.5h11l-16 -82q-41 -1 -59 -10q-34 -18 -40 -52l-4 -23h88l-16 -86h-88l-77 -417h-94z" />
<glyph unicode="&#xfb03;" horiz-adv-x="771" d="M720 559l21 111h94l-21 -111h-94zM74 0l77 417h-45l16 86h45l4 23q12 66 70 109q28 20 55.5 27.5t72.5 7.5h11l-16 -82q-41 -1 -59 -10q-34 -18 -40 -52l-4 -23h177l4 23q12 66 70 109q28 20 55.5 27.5t73.5 7.5h11l-16 -82q-43 -1 -59 -10q-34 -17 -41 -52l-4 -23h89 l-16 -86h-89l-77 -417h-94l77 417h-177l-77 -417h-94zM617 0l93 503h94l-93 -503h-94z" />
<glyph unicode="&#xfb04;" horiz-adv-x="771" d="M617 0l124 670h94l-124 -670h-94zM74 0l77 417h-45l16 86h45l4 23q12 66 70 109q28 20 55.5 27.5t72.5 7.5h11l-16 -82q-41 -1 -59 -10q-34 -18 -40 -52l-4 -23h177l4 23q12 66 70 109q28 20 55.5 27.5t73.5 7.5h11l-16 -82q-43 -1 -59 -10q-34 -17 -41 -52l-4 -23h89 l-16 -86h-89l-77 -417h-94l77 417h-177l-77 -417h-94z" />
</font>
</defs>
</svg>
