<?xml version="1.0" standalone="no"?>
<!DOCTYPE svg PUBLIC "-//W3C//DTD SVG 1.1//EN" "http://www.w3.org/Graphics/SVG/1.1/DTD/svg11.dtd" >
<svg xmlns="http://www.w3.org/2000/svg">
<metadata>
This is a custom SVG webfont generated by Fontspring.
</metadata>
<defs>
<font id="AvalonDemiOblique" horiz-adv-x="503" >
<font-face units-per-em="1000" ascent="750" descent="-250" />
<missing-glyph horiz-adv-x="251" />
<glyph unicode=" "  horiz-adv-x="251" />
<glyph unicode="&#x09;" horiz-adv-x="251" />
<glyph unicode="&#xa0;" horiz-adv-x="251" />
<glyph unicode="!" horiz-adv-x="261" d="M101 171l93 499h121l-93 -499h-121zM70 0l21 115h121l-21 -115h-121z" />
<glyph unicode="&#x22;" horiz-adv-x="243" d="M232 461l31 209h76l-47 -209h-60zM121 461l31 209h76l-47 -209h-60z" />
<glyph unicode="#" d="M101 62l49 151h-86l26 80h87l27 84h-87l26 80h87l49 151h79l-49 -151h90l50 151h79l-50 -151h84l-27 -80h-83l-27 -84h84l-27 -80h-83l-49 -151h-79l49 151h-90l-50 -151h-79zM256 293h90l27 84h-90z" />
<glyph unicode="$" d="M119 79q-28 25 -40 61.5t-5 73.5l2 12h120q-4 -35 14 -56.5t52 -21.5t61 22.5t33 55.5q8 45 -22 64q-12 9 -61 23q-59 17 -93 53q-43 46 -28 126q11 62 52.5 107t102.5 61l21 116h114l-22 -118q46 -14 71 -57.5t18 -97.5h-114q-6 55 -50 55q-25 0 -46 -18t-26 -44 q-6 -33 20 -54q19 -13 77 -31q134 -45 107 -185q-12 -67 -58 -117t-113 -67l-22 -120h-114l22 119q-45 13 -73 38z" />
<glyph unicode="%" horiz-adv-x="814" d="M262 356q-68 0 -106.5 48t-25.5 118q13 66 69.5 113.5t123.5 47.5q68 0 107 -48t26 -115q-13 -68 -70 -116t-124 -48zM223 0l402 670h87l-402 -670h-87zM281 455q25 0 47 19t27 46t-9.5 46.5t-40.5 19.5q-25 0 -47 -19.5t-27 -45.5q-5 -28 9.5 -47t40.5 -19zM480 153 q12 66 69.5 114t124.5 48q68 0 107 -48t26 -116q-12 -67 -69 -115.5t-125 -48.5t-107 48t-26 118zM580 152q-5 -29 9.5 -48.5t41.5 -19.5q26 0 48.5 20t26.5 47q5 28 -9.5 47.5t-40.5 19.5t-49 -19.5t-27 -46.5z" />
<glyph unicode="&#x26;" horiz-adv-x="619" d="M70 199q11 61 49 105.5t112 83.5q-27 39 -33.5 63.5t-0.5 58.5q13 74 71 123.5t132 49.5q73 0 114.5 -47.5t28.5 -117.5q-20 -106 -137 -165l49 -69l86 111h134l-154 -202l95 -129l-102 -77l-73 100q-92 -101 -190 -101q-91 0 -144 62.5t-37 150.5zM345 436l16 7 q59 27 66 69q5 26 -8 41.5t-40 15.5q-23 0 -42.5 -16t-23.5 -40q-6 -29 32 -77zM190 193q-7 -39 14.5 -64.5t61.5 -25.5q28 0 52 17t55 58l-83 114q-88 -37 -100 -99z" />
<glyph unicode="'" horiz-adv-x="132" d="M121 461l31 209h76l-47 -209h-60z" />
<glyph unicode="(" horiz-adv-x="311" d="M131 -98q-88 150 -51 348q20 107 76 208.5t134 168.5q47 42 124 77l-24 -129q-71 -56 -119.5 -140.5t-66.5 -183.5q-18 -97 0.5 -187t65.5 -136l-24 -129q-41 17 -65.5 39.5t-49.5 63.5z" />
<glyph unicode=")" horiz-adv-x="311" d="M13 -72q71 56 119.5 140t66.5 184q18 97 -0.5 187t-65.5 136l24 129q41 -17 65.5 -39t49.5 -64q88 -150 51 -349q-20 -107 -76 -208t-133 -168q-54 -46 -125 -77z" />
<glyph unicode="*" horiz-adv-x="439" d="M214 340l-56 49l88 93l-104 34l39 77l102 -39l19 116h83l-25 -117l115 39l12 -77l-116 -34l52 -92l-75 -49l-50 96z" />
<glyph unicode="+" d="M228 121l31 169h-169l17 90h169l31 170h90l-31 -170h170l-17 -90h-170l-31 -169h-90z" />
<glyph unicode="," horiz-adv-x="235" d="M57 0l22 121h121l-24 -128q-11 -59 -55 -92q-39 -28 -81 -28h-6l11 61q30 5 44 16.5t19 34.5q0 3 2 15h-53z" />
<glyph unicode="-" horiz-adv-x="251" d="M38 208l19 101h251l-19 -101h-251z" />
<glyph unicode="." horiz-adv-x="235" d="M57 0l22 121h121l-22 -121h-121z" />
<glyph unicode="/" horiz-adv-x="415" d="M30 -168h-85l468 838h86z" />
<glyph unicode="0" d="M90 63q-40 55 -22 154l44 241q22 114 108 173q73 52 157 52q97 0 148 -63.5t33 -161.5l-45 -247q-18 -97 -92 -160.5t-170 -63.5q-107 0 -161 76zM272 101q46 0 79.5 31.5t43.5 83.5l45 243q8 43 -17 76.5t-66 33.5q-44 0 -79.5 -32.5t-44.5 -80.5l-44 -235 q-10 -55 12.5 -87.5t70.5 -32.5z" />
<glyph unicode="1" d="M213 0l103 556h-84l21 114h205l-124 -670h-121z" />
<glyph unicode="2" d="M37 0l21 114l280 223q88 71 99 133q8 43 -14.5 71.5t-65.5 28.5q-29 0 -56 -15.5t-44 -41.5q-16 -22 -25 -73h-121l3 22q13 92 90.5 157t170.5 65t145 -64t35 -156q-16 -88 -87 -155q-48 -46 -84 -73l-158 -122h265l-21 -114h-433z" />
<glyph unicode="3" d="M50 202h121q-4 -43 21.5 -72t67.5 -29q43 0 81 32.5t46 76.5q10 51 -20.5 81t-92.5 30h-19l21 114h21q38 0 64 19t32 52q5 28 -9 45.5t-42 17.5q-48 0 -66 -61h-121q11 42 25.5 67.5t40.5 48.5q65 59 144 59q75 0 119 -53.5t30 -127.5q-14 -72 -80 -118q28 -13 42 -27 t24 -40q20 -49 8 -107q-18 -95 -96.5 -159t-175.5 -64q-92 0 -145.5 61.5t-40.5 153.5z" />
<glyph unicode="4" d="M20 101l18 98l396 471h102l-85 -455h71l-21 -114h-71l-18 -101h-121l18 101h-289zM170 215h160l47 252z" />
<glyph unicode="5" d="M46 199h120q1 -46 24.5 -72t64.5 -26q48 0 87.5 34.5t48.5 84.5q9 48 -18 83t-73 35q-51 0 -99 -48l-102 29l128 351h304l-21 -114h-213l-45 -124q46 20 89 20q88 0 138.5 -68.5t32.5 -162.5q-18 -98 -98.5 -166t-177.5 -68q-90 0 -146.5 63t-43.5 149z" />
<glyph unicode="6" d="M60 224q15 80 70 145l254 301h142l-191 -227q28 2 33 2q81 0 127.5 -64t30.5 -153q-19 -100 -99.5 -170.5t-177.5 -70.5t-152 69t-37 168zM180 219q-9 -49 17 -83.5t72 -34.5q47 0 86 33.5t48 81.5q9 49 -18 83.5t-74 34.5q-46 0 -84 -33.5t-47 -81.5z" />
<glyph unicode="7" d="M78 0l353 556h-269l21 114h395l-21 -114l-345 -556h-134z" />
<glyph unicode="8" d="M65 209q12 64 62 117q29 30 69 47q-26 33 -35 61.5t-2 64.5q14 75 78.5 129.5t139.5 54.5q77 0 121.5 -53.5t30.5 -129.5q-14 -74 -83 -127q32 -21 47 -42q33 -49 20 -125q-17 -90 -95 -154.5t-171 -64.5t-146 65t-36 157zM330 426q30 0 55 21t31 50q5 29 -12 50t-45 21 q-31 0 -56 -20.5t-30 -49.5q-6 -30 11 -51t46 -21zM185 205q-8 -44 16.5 -74t67.5 -30t78.5 30.5t43.5 72.5t-16.5 72.5t-65.5 30.5q-44 0 -80 -29.5t-44 -72.5z" />
<glyph unicode="9" d="M100 0l189 226q-20 -2 -24 -2q-88 0 -134.5 63t-29.5 157q19 102 97.5 171t176.5 69q103 0 160 -76q48 -64 31 -157q-16 -86 -90 -174l-234 -277h-142zM311 333q48 0 88 34t49 81q8 47 -19 81t-73 34q-48 0 -88.5 -33.5t-48.5 -80.5q-9 -48 18 -82t74 -34z" />
<glyph unicode=":" horiz-adv-x="235" d="M127 382l23 121h121l-23 -121h-121zM57 0l22 121h121l-22 -121h-121z" />
<glyph unicode=";" horiz-adv-x="235" d="M127 382l23 121h121l-23 -121h-121zM57 0l22 121h121l-24 -128q-11 -59 -55 -92q-39 -28 -81 -28h-6l11 61q30 5 44 16.5t19 34.5q0 3 2 15h-53z" />
<glyph unicode="&#x3c;" d="M87 291l19 101l477 219l-22 -119l-336 -151l280 -150l-22 -119z" />
<glyph unicode="=" d="M106 373l15 84h429l-15 -84h-429zM76 213l16 84h429l-16 -84h-429z" />
<glyph unicode="&#x3e;" d="M47 71l22 120l336 150l-280 151l22 119l395 -219l-19 -102z" />
<glyph unicode="?" horiz-adv-x="456" d="M186 169q0 4 4 26q12 68 56 127q16 19 29.5 31t62.5 47q45 33 53 77q7 38 -12 61.5t-57 23.5q-47 0 -74 -32q-14 -17 -27 -56h-121q23 83 69 131q33 34 83 56t96 22q84 0 131.5 -61.5t31.5 -148.5q-8 -43 -36 -80t-85 -81q-40 -31 -56.5 -54t-22.5 -58q-5 -25 -5 -31 h-120zM155 0l22 121h121l-22 -121h-121z" />
<glyph unicode="@" horiz-adv-x="764" d="M152 4q-87 102 -59 253q28 148 150 250.5t271 102.5q137 0 211.5 -84t51.5 -212q-17 -92 -80 -162.5t-127 -70.5q-30 0 -48 16.5t-18 44.5q-58 -69 -141 -69q-60 0 -92 45t-20 113q15 81 79 141t135 60q70 0 91 -58l18 47h79l-74 -194q-10 -25 -15 -45q-3 -17 2.5 -27 t18.5 -10q34 0 72.5 53t50.5 116q18 100 -38.5 163t-165.5 63q-119 0 -215 -82t-119 -203q-22 -118 40 -197q60 -75 189 -75q105 0 196 33l5 -70q-94 -33 -214 -33q-155 0 -234 91zM342 235q-7 -37 9.5 -59.5t48.5 -22.5q38 0 73 35.5t43 81.5q7 36 -9 58t-48 22 q-38 0 -73.5 -34.5t-43.5 -80.5z" />
<glyph unicode="A" horiz-adv-x="655" d="M-1 0l403 670h97l157 -670h-137l-39 173h-238l-106 -173h-137zM308 289h144l-34 206z" />
<glyph unicode="B" horiz-adv-x="527" d="M62 0l124 670h132q77 0 113 -7t64 -27q32 -23 47 -62t7 -80q-16 -85 -99 -129q108 -40 84 -166q-18 -103 -117 -161q-67 -38 -176 -38h-179zM261 409h41q52 0 79 14q35 19 42 58q7 35 -15 54t-68 19h-52zM207 116h63q126 0 141 87q8 43 -19.5 66.5t-86.5 23.5h-65z" />
<glyph unicode="C" horiz-adv-x="711" d="M94 338q26 142 147 243.5t264 101.5q123 0 206 -78q30 -30 46 -57t26 -69h-141q-60 88 -163 88q-88 0 -166 -68.5t-95 -162.5t36.5 -163.5t143.5 -69.5q48 0 90 19t93 64h144q-54 -89 -150 -144t-197 -55q-143 0 -226.5 103.5t-57.5 247.5z" />
<glyph unicode="D" horiz-adv-x="631" d="M62 0l124 670h152q152 0 227 -51q60 -40 86 -118t10 -168q-17 -94 -77.5 -174.5t-143.5 -118.5q-89 -40 -223 -40h-155zM207 116h26q108 0 170 33q52 28 88 76.5t46 106.5q11 60 -8 111.5t-62 79.5q-48 31 -155 31h-24z" />
<glyph unicode="E" horiz-adv-x="462" d="M62 0l124 670h361l-22 -116h-237l-30 -163h227l-22 -116h-227l-29 -159h237l-21 -116h-361z" />
<glyph unicode="F" horiz-adv-x="428" d="M62 0l124 670h341l-22 -116h-217l-30 -163h207l-22 -116h-207l-50 -275h-124z" />
<glyph unicode="G" horiz-adv-x="777" d="M94 335q26 143 150 245.5t271 102.5q106 0 188 -60t98 -149h-148q-22 44 -64.5 68.5t-97.5 24.5q-101 0 -178 -69q-35 -31 -61.5 -76t-34.5 -89q-18 -97 38.5 -163.5t156.5 -66.5q63 0 122 32.5t98 89.5h-281l22 116h437q-22 -119 -103 -207q-62 -68 -147.5 -107.5 t-170.5 -39.5q-149 0 -235.5 101.5t-59.5 246.5z" />
<glyph unicode="H" horiz-adv-x="611" d="M62 0l124 670h124l-51 -273h240l51 273h124l-124 -670h-124l52 281h-240l-52 -281h-124z" />
<glyph unicode="I" horiz-adv-x="247" d="M62 0l124 670h124l-124 -670h-124z" />
<glyph unicode="J" horiz-adv-x="423" d="M52 48q-30 39 -23 110h124q2 -55 50 -55q28 0 47.5 21.5t26.5 58.5l91 487h124l-89 -479q-17 -86 -64 -136q-65 -68 -157 -68q-85 0 -130 61z" />
<glyph unicode="K" horiz-adv-x="537" d="M62 0l124 670h124l-54 -290l265 290h146l-314 -329l190 -341h-146l-157 294l-54 -294h-124z" />
<glyph unicode="L" horiz-adv-x="407" d="M62 0l124 670h124l-103 -554h204l-21 -116h-328z" />
<glyph unicode="M" horiz-adv-x="824" d="M62 0l124 670h172l85 -508l271 508h172l-124 -670h-124l93 502l-267 -502h-104l-81 502l-93 -502h-124z" />
<glyph unicode="N" horiz-adv-x="668" d="M62 0l124 670h141l188 -488l91 488h124l-124 -670h-139l-191 487l-90 -487h-124z" />
<glyph unicode="O" horiz-adv-x="763" d="M94 339q26 140 148.5 242t266.5 102q145 0 228.5 -102t57.5 -246q-27 -144 -148.5 -246t-266.5 -102q-147 0 -230 102t-56 250zM218 337q-18 -98 36 -166t149 -68q93 0 171.5 68t96.5 164q17 96 -36 164t-147 68q-93 0 -173 -68t-97 -162z" />
<glyph unicode="P" horiz-adv-x="508" d="M62 0l124 670h169q72 0 104 -6.5t59 -26.5q78 -57 58 -170q-10 -55 -42.5 -102.5t-79.5 -76.5q-33 -20 -66.5 -26t-111.5 -6h-43l-47 -256h-124zM254 372h40q56 0 85 10q27 9 47.5 32.5t25.5 51.5t-6.5 49.5t-35.5 30.5q-23 8 -77 8h-45z" />
<glyph unicode="Q" horiz-adv-x="776" d="M94 336q27 146 148.5 246.5t269.5 100.5t234.5 -101.5t60.5 -244.5q-13 -68 -39.5 -116t-81.5 -104q30 -19 69 -19l20 2l-21 -113q-8 -1 -17 -1q-79 0 -148 55q-88 -54 -202 -54q-149 0 -234.5 101.5t-58.5 247.5zM214 303q45 12 98 12q107 0 206 -64q57 -38 81 -66 q69 67 84 150q18 96 -38 164t-152 68q-93 0 -175.5 -68.5t-99.5 -160.5q-3 -15 -4 -35zM234 205q56 -102 174 -102q49 0 92 22q-103 89 -205 89q-25 0 -61 -9z" />
<glyph unicode="R" horiz-adv-x="542" d="M62 0l124 670h205q113 0 161 -51q59 -61 42 -156q-8 -47 -35 -91.5t-65 -73.5q-45 -34 -115 -50l136 -248h-150l-132 256l-47 -256h-124zM250 350h79q56 0 93 27.5t46 75.5q8 46 -19 73.5t-81 27.5h-80z" />
<glyph unicode="S" horiz-adv-x="485" d="M73 69q-29 51 -21 123h130q-7 -41 13.5 -65.5t61.5 -24.5q39 0 69 23.5t37 60.5q7 36 -9.5 58.5t-63.5 40.5q-68 27 -89.5 38.5t-38.5 32.5q-45 54 -30 137q14 78 82.5 134t149.5 56q94 0 142 -73q30 -49 21 -117h-128q3 35 -13 54.5t-47 19.5q-32 0 -54 -18.5t-28 -49.5 q-6 -32 16 -53q20 -18 79 -40q74 -28 103 -62q51 -57 35 -141q-16 -89 -89 -150q-79 -66 -168 -66q-51 0 -94 22t-66 60z" />
<glyph unicode="T" horiz-adv-x="391" d="M133 0l102 554h-124l22 116h372l-22 -116h-124l-102 -554h-124z" />
<glyph unicode="U" horiz-adv-x="589" d="M109 86q-28 54 -9 158l79 426h124l-79 -426q-11 -63 3 -94q23 -48 85 -48q65 0 104 47q27 31 39 95l79 426h124l-79 -426q-20 -109 -77 -167q-88 -91 -209 -91q-61 0 -110 27t-74 73z" />
<glyph unicode="V" horiz-adv-x="609" d="M254 0l-137 670h131l85 -510l276 510h130l-383 -670h-102z" />
<glyph unicode="W" horiz-adv-x="833" d="M208 0l-72 670h127l30 -468l203 468h90l27 -468l205 468h127l-319 -670h-99l-27 443l-194 -443h-98z" />
<glyph unicode="X" horiz-adv-x="595" d="M-7 0l292 334l-168 336h147l113 -234l205 234h144l-295 -336l171 -334h-144l-119 232l-199 -232h-147z" />
<glyph unicode="Y" horiz-adv-x="552" d="M213 0l45 247l-141 423h136l89 -308l203 308h137l-300 -423l-45 -247h-124z" />
<glyph unicode="Z" horiz-adv-x="459" d="M22 0l18 102l341 452h-243l22 116h387l-20 -108l-337 -446h272l-21 -116h-419z" />
<glyph unicode="[" horiz-adv-x="311" d="M81 -94q-32 71 -8 198l60 323q24 128 108 204q30 27 60.5 43t80.5 30l-23 -126q-50 -19 -70 -54q-26 -47 -40 -122l-59 -319q-12 -61 -2 -105q9 -37 49 -54l-23 -125q-51 12 -82.5 37t-50.5 70z" />
<glyph unicode="\" horiz-adv-x="415" d="M321 -168l-157 838h86l156 -838h-85z" />
<glyph unicode="]" horiz-adv-x="311" d="M45 -75q51 20 70 54q25 44 39 122l59 319q11 60 2 104q-5 22 -15.5 33.5t-33.5 21.5l23 125q51 -13 82.5 -38t50.5 -70q31 -73 8 -198l-60 -323q-24 -127 -108 -204q-54 -47 -141 -72z" />
<glyph unicode="^" d="M71 342l225 332h158l103 -332h-126l-73 236l-161 -236h-126z" />
<glyph unicode="_" horiz-adv-x="500" d="M0 -49h500v-109h-500v109z" />
<glyph unicode="`" d="M381 550l-153 133l72 78l147 -145z" />
<glyph unicode="a" horiz-adv-x="616" d="M77 254q21 113 107 189.5t193 76.5q48 0 90.5 -22.5t63.5 -58.5l12 64h111l-93 -503h-111l11 62q-11 -12 -46 -34q-74 -45 -144 -45q-106 0 -161 77t-33 194zM197 249q-13 -66 22 -111t98 -45t113 45t63 113q13 69 -20.5 113.5t-97.5 44.5q-63 0 -114.5 -46.5 t-63.5 -113.5z" />
<glyph unicode="b" horiz-adv-x="615" d="M55 0l124 670h121l-40 -213q72 63 169 63q105 0 164.5 -78.5t38.5 -190.5q-21 -113 -107.5 -190.5t-192.5 -77.5q-98 0 -155 77l-11 -60h-111zM216 254q-13 -68 22 -114t100 -46q62 0 111 45t62 113q13 67 -21 112t-97 45q-62 0 -113.5 -45t-63.5 -110z" />
<glyph unicode="c" horiz-adv-x="566" d="M77 254q20 110 113 188t203 78q105 0 169 -73q38 -42 49 -111h-136q-15 39 -39.5 56.5t-63.5 17.5q-64 0 -113 -45t-62 -113t22 -113t100 -45q68 0 124 70h136q-41 -77 -106 -122q-83 -59 -179 -59q-110 0 -174 79.5t-43 191.5z" />
<glyph unicode="d" horiz-adv-x="615" d="M75 251q20 110 109.5 189.5t193.5 79.5q42 0 81.5 -17t62.5 -45l40 212h121l-124 -670h-110l11 61q-86 -78 -188 -78q-100 0 -158.5 79.5t-38.5 188.5zM196 253q-12 -66 23 -112.5t97 -46.5q61 0 113.5 46.5t64.5 110.5t-24 111t-97 47q-59 0 -112 -46.5t-65 -109.5z" />
<glyph unicode="e" horiz-adv-x="585" d="M76 251q21 113 113 192.5t202 79.5q106 0 169 -78t43 -186q-4 -19 -19 -61h-391q4 -45 37 -74.5t79 -29.5q72 0 124 65h133q-37 -76 -115 -126t-160 -50q-110 0 -173 78t-42 190zM208 295h283q-2 54 -34 85.5t-85 31.5q-52 0 -97 -32.5t-67 -84.5z" />
<glyph unicode="f" horiz-adv-x="282" d="M74 0l72 392h-43l21 111h43q21 78 63 120q58 60 134 60q21 0 34 -1l-22 -117q-44 0 -61 -12t-27 -50h70l-21 -111h-70l-72 -392h-121z" />
<glyph unicode="g" horiz-adv-x="621" d="M30 -38h137q39 -56 113 -56q65 0 117 44t68 114q-82 -81 -181 -81q-106 0 -167 80t-40 193q20 109 110 186.5t196 77.5t153 -79l12 62h111l-76 -411q-23 -123 -97 -197q-102 -99 -233 -99q-86 0 -146.5 45t-76.5 121zM198 254q-13 -67 22 -114t98 -47q59 0 110 46t63 110 q12 67 -22.5 113.5t-96.5 46.5q-61 0 -111.5 -45t-62.5 -110z" />
<glyph unicode="h" horiz-adv-x="552" d="M55 0l124 670h121l-38 -202q65 52 140 52q44 0 84 -22.5t59 -59.5q27 -51 8 -154l-52 -284h-121l47 257q15 78 -3 115t-71 37q-55 0 -93 -50q-24 -33 -37 -104l-47 -255h-121z" />
<glyph unicode="i" horiz-adv-x="231" d="M158 559l21 111h121l-21 -111h-121zM55 0l93 503h121l-93 -503h-121z" />
<glyph unicode="j" horiz-adv-x="231" d="M158 561l21 109h121l-21 -109h-121zM-5 -51q33 5 44.5 18t19.5 57l89 479h121l-90 -482q-16 -84 -72 -136t-134 -53z" />
<glyph unicode="k" horiz-adv-x="494" d="M55 0l124 670h121l-75 -404l206 237h139l-227 -246l157 -257h-152l-129 235l-43 -235h-121z" />
<glyph unicode="l" horiz-adv-x="231" d="M55 0l124 670h121l-124 -670h-121z" />
<glyph unicode="m" horiz-adv-x="861" d="M55 0l93 503h111l-8 -43q56 60 144 60q93 0 130 -79q70 79 177 79q113 0 153 -82q27 -52 9 -145l-54 -293h-121l51 278q14 71 -7 99q-21 32 -64 32q-55 0 -93 -49q-23 -31 -38 -109l-46 -251h-121l51 278q13 64 -7 96q-21 35 -69 35q-57 0 -91 -53q-20 -35 -33 -105 l-46 -251h-121z" />
<glyph unicode="n" horiz-adv-x="554" d="M55 0l93 503h112l-8 -44q74 61 148 61q45 0 83.5 -20.5t57.5 -54.5q33 -56 11 -173l-50 -272h-121l45 248q18 95 -6 128q-20 33 -65 33q-25 0 -50.5 -13t-41.5 -34q-26 -32 -43 -123l-44 -239h-121z" />
<glyph unicode="o" horiz-adv-x="595" d="M77 256q19 107 113.5 185.5t204.5 78.5q111 0 174 -78t42 -190q-21 -113 -114 -191t-205 -78q-110 0 -173 80t-42 193zM197 253q-12 -68 22 -113.5t96 -45.5t112.5 45t62.5 111q12 65 -22.5 112t-94.5 47q-59 0 -111.5 -46t-64.5 -110z" />
<glyph unicode="p" horiz-adv-x="612" d="M23 -168l125 671h111l-11 -59q74 76 179 76q107 0 163 -78q59 -79 39 -188q-21 -113 -109.5 -192t-193.5 -79q-48 0 -79 14t-63 50l-40 -215h-121zM215 253q-12 -67 21.5 -113t95.5 -46q61 0 112 46t63 111q12 66 -21.5 112t-93.5 46q-62 0 -113 -45.5t-64 -110.5z" />
<glyph unicode="q" horiz-adv-x="613" d="M76 256q19 107 109 185.5t194 78.5q53 0 88 -19t61 -62l12 64h110l-125 -671h-121l40 216q-70 -65 -165 -65q-106 0 -165 80t-38 193zM196 253q-12 -68 21.5 -113.5t96.5 -45.5q60 0 111.5 46t63.5 111q12 64 -23 111t-95 47q-61 0 -111.5 -45t-63.5 -111z" />
<glyph unicode="r" horiz-adv-x="293" d="M55 0l93 503h111l-9 -45q34 36 59.5 49t61.5 13h10l-22 -118q-46 -2 -77 -23q-42 -29 -54 -97l-52 -282h-121z" />
<glyph unicode="s" horiz-adv-x="406" d="M58 54q-20 37 -15 104h123q2 -34 15 -49.5t39 -15.5q23 0 41 14.5t22 36.5q5 22 -10.5 36t-62.5 30q-40 14 -54.5 22t-30.5 25q-38 41 -26 107q12 65 69.5 110.5t127.5 45.5q77 0 116 -58q28 -42 19 -96h-118q2 43 -39 43q-20 0 -35.5 -12t-19.5 -31q-3 -16 7 -26.5 t37 -19.5q84 -27 108 -47q49 -41 36 -114t-77 -124.5t-140 -51.5q-43 0 -79 19.5t-53 51.5z" />
<glyph unicode="t" horiz-adv-x="278" d="M67 0l72 392h-59l21 111h59l31 167h121l-31 -167h72l-21 -111h-72l-72 -392h-121z" />
<glyph unicode="u" horiz-adv-x="554" d="M122 38q-29 31 -36 69.5t4 100.5l55 295h121l-48 -257q-29 -152 76 -152q49 0 82.5 39t47.5 113l48 257h121l-93 -503h-111l9 50q-36 -37 -67.5 -52t-75.5 -15q-84 0 -133 55z" />
<glyph unicode="v" horiz-adv-x="493" d="M199 0l-110 503h131l60 -334l178 334h132l-296 -503h-95z" />
<glyph unicode="w" horiz-adv-x="711" d="M184 0l-88 503h129l35 -307l141 307h96l25 -307l150 307h129l-277 -503h-74l-35 326l-157 -326h-74z" />
<glyph unicode="x" horiz-adv-x="487" d="M-7 0l227 260l-111 243h135l64 -152l120 152h135l-201 -243l133 -260h-144l-77 172l-137 -172h-144z" />
<glyph unicode="y" horiz-adv-x="502" d="M55 -168l133 215l-99 456h138l54 -323l181 323h137l-414 -671h-130z" />
<glyph unicode="z" horiz-adv-x="414" d="M17 0l20 109l274 283h-197l21 111h342l-20 -109l-275 -283h238l-20 -111h-383z" />
<glyph unicode="{" horiz-adv-x="311" d="M70 -28l28 148q8 43 -0.5 63.5t-36.5 27.5l16 89q30 7 46 26t23 55l28 151q14 76 55 110t118 30l37 -2h17l-19 -103h-9q-44 0 -63 -12q-11 -8 -15.5 -18t-10.5 -41l-22 -123q-11 -59 -39 -88q-14 -15 -49 -34q29 -39 35 -48.5t8 -21.5q3 -26 -3 -63l-20 -112 q-6 -33 -5 -43.5t11 -17.5q12 -10 54 -10h10l-19 -103h-17l-37 -2q-74 -5 -109 35q-26 30 -12 107z" />
<glyph unicode="|" d="M159 -168l156 838h121l-156 -838h-121z" />
<glyph unicode="}" horiz-adv-x="311" d="M21 -65h9q43 0 62 12q11 7 15.5 17t10.5 42l22 123q11 59 39 88q14 15 49 34q-29 39 -35 48.5t-8 21.5q-4 22 3 63l20 112q6 33 5 43.5t-10 17.5q-13 10 -55 10h-9l19 103h17l36 2q74 5 109 -35q26 -30 12 -107l-28 -148q-8 -43 1 -63.5t37 -27.5l-16 -89q-31 -7 -47 -26 t-23 -55l-28 -151q-14 -76 -55 -110t-118 -30q-12 2 -37 2h-16z" />
<glyph unicode="~" horiz-adv-x="670" d="M263 567l-59 44q8 14 11 16q46 68 80.5 94t83.5 26q31 0 100 -28q59 -25 85 -25q24 0 42.5 11.5t41.5 42.5l62 -40q-51 -76 -90 -101q-46 -29 -92 -29q-18 0 -40 7t-98 38q-21 8 -41 8q-25 0 -42.5 -13t-43.5 -51z" />
<glyph unicode="&#xa1;" horiz-adv-x="261" d="M141 388l22 115h121l-22 -115h-121zM38 -168l93 500h121l-93 -500h-121z" />
<glyph unicode="&#xa2;" d="M204 36l19 99q-55 11 -90 57q-50 66 -34 155q13 75 71 134.5t131 74.5l17 92h114l-17 -92q55 -15 88.5 -57t35.5 -98h-128q-8 19 -29.5 31t-46.5 12q-41 0 -75 -29t-42 -72q-8 -42 15.5 -70t66.5 -28q37 0 84 36h133q-38 -62 -80.5 -96.5t-99.5 -49.5l-19 -99h-114z" />
<glyph unicode="&#xa3;" d="M28 0l21 114h126q21 27 29 65q5 27 -2 49.5t-30 52.5h-120l21 114h42q-8 39 -1 73q17 87 93 151t164 64q120 0 167 -112q18 -43 12 -80h-122q-2 34 -23 54.5t-55 20.5q-41 0 -74.5 -30t-41.5 -75q-7 -37 13 -66h188l-21 -114h-98q2 -9 3 -10q14 -47 5 -98q-5 -27 -21 -59 q36 0 60 12q20 11 36 32.5t20 44.5q3 15 0 45h120q6 -16 1 -47q-7 -40 -33.5 -82t-61.5 -68q-69 -51 -160 -51h-257z" />
<glyph unicode="&#xa4;" horiz-adv-x="596" d="M101 77l-38 48l90 76q-34 59 -20 136q12 70 69 133l-60 73l57 47l59 -73q71 45 143 45q77 0 126 -45l90 76l39 -48l-90 -75q32 -61 19 -133q-13 -73 -69 -136l60 -74l-57 -47l-59 73q-72 -44 -144 -44q-74 0 -125 44zM332 193q58 0 106 42t59 102q11 58 -22 100t-89 42 q-55 0 -103.5 -42t-59.5 -99q-11 -61 20.5 -103t88.5 -42z" />
<glyph unicode="&#xa5;" d="M190 0l32 178h-133l18 95h130l-26 90h-107l17 95h62l-61 212h121l76 -294l188 294h121l-142 -212h63l-17 -95h-108l-60 -90h131l-18 -95h-134l-32 -178h-121z" />
<glyph unicode="&#xa6;" d="M251 324l64 346h121l-64 -346h-121zM159 -168l60 322h121l-60 -322h-121z" />
<glyph unicode="&#xa7;" d="M54 49h120q-5 -28 -1 -40q6 -20 26 -32t48 -12q34 0 60 17t31 42q4 21 -6 34.5t-45 33.5l-136 79q-82 49 -64 143q14 80 97 133q-18 43 -10 85q13 68 71 110t139 42q83 0 123.5 -44t33.5 -127h-113q0 32 -17 46t-55 14q-28 0 -47 -12t-23 -32q-7 -33 47 -64l135 -76 q69 -40 53 -126q-14 -76 -93 -127q36 -46 25 -109q-14 -74 -78 -122t-149 -48q-90 0 -137.5 53.5t-34.5 138.5zM237 265l126 -72q42 27 48 59q3 17 -6 29t-37 28l-125 71q-18 -11 -32 -27.5t-17 -30.5q-6 -30 43 -57z" />
<glyph unicode="&#xa8;" d="M389 573l22 121h117l-22 -121h-117zM208 573l22 121h117l-22 -121h-117z" />
<glyph unicode="&#xa9;" horiz-adv-x="788" d="M108 339q26 140 148.5 242t264.5 102q143 0 226.5 -102.5t57.5 -245.5q-27 -143 -148.5 -245.5t-264.5 -102.5q-146 0 -228.5 102.5t-55.5 249.5zM148 338q-24 -131 49.5 -223t201.5 -92q126 0 234 92t131 219q24 128 -50 220.5t-200 92.5t-234.5 -92t-131.5 -217z M234 343q16 85 94 146.5t170 61.5q82 0 135 -47q36 -32 49 -81h-97q-38 53 -103 53q-56 0 -104 -40t-58 -94t24.5 -94.5t89.5 -40.5t116 50h99q-36 -57 -97.5 -91t-129.5 -34q-93 0 -148.5 62.5t-39.5 148.5z" />
<glyph unicode="&#xaa;" horiz-adv-x="411" d="M231 258q-69 0 -105.5 46.5t-23.5 116.5q13 68 68 114t125 46q58 0 97 -42l6 32h77l-56 -303h-77l6 32q-60 -42 -117 -42zM261 330q39 0 69.5 26t37.5 64q7 40 -13.5 65t-60.5 25q-39 0 -70 -26.5t-39 -64.5q-7 -37 15.5 -63t60.5 -26z" />
<glyph unicode="&#xab;" horiz-adv-x="387" d="M256 213l17 91l148 118l-21 -112l-70 -51l51 -53l-21 -112zM180 94l-104 119l17 91l148 118l-21 -112l-70 -51l51 -53z" />
<glyph unicode="&#xac;" d="M62 156l21 113h436l-49 -269h-121l28 156h-315z" />
<glyph unicode="&#xad;" horiz-adv-x="251" d="M38 208l19 101h251l-19 -101h-251z" />
<glyph unicode="&#xae;" horiz-adv-x="788" d="M108 339q26 140 148.5 242t264.5 102q143 0 226.5 -102.5t57.5 -245.5q-27 -143 -148.5 -245.5t-264.5 -102.5q-146 0 -228.5 102.5t-55.5 249.5zM148 338q-24 -131 49.5 -223t201.5 -92q126 0 234 92t131 219q24 128 -50 220.5t-200 92.5t-234.5 -92t-131.5 -217z M287 141l74 402h135q73 0 105 -31q41 -38 30 -95q-9 -49 -44 -82.5t-90 -46.5l90 -147h-104l-84 144l-26 -144h-86zM412 354h47q34 0 57 15.5t28 42.5q4 25 -13 40.5t-50 15.5h-48z" />
<glyph unicode="&#xaf;" d="M209 587l15 80h308l-15 -80h-308z" />
<glyph unicode="&#xb0;" horiz-adv-x="385" d="M266 398q-61 0 -95.5 42t-23.5 103q11 57 61.5 98.5t109.5 41.5q61 0 96 -41.5t24 -100.5t-62 -101t-110 -42zM278 462q33 0 61 23.5t34 55.5t-13.5 55t-53.5 23q-32 0 -60 -23t-34 -54q-6 -34 13 -57t53 -23z" />
<glyph unicode="&#xb1;" d="M228 121l31 169h-169l17 90h169l31 170h90l-31 -170h170l-17 -90h-170l-31 -169h-90zM37 0l16 90h429l-16 -90h-429z" />
<glyph unicode="&#xb2;" horiz-adv-x="341" d="M79 268l14 72l178 132q53 40 60 76q5 25 -9 40.5t-40 15.5q-37 0 -59 -32q-10 -14 -16 -45h-84q0 4 1 9.5t1 6.5q10 57 59 96t110 39t95.5 -39t24.5 -95q-12 -67 -109 -136l-92 -66h164l-14 -74h-284z" />
<glyph unicode="&#xb3;" horiz-adv-x="341" d="M210 260q-62 0 -97.5 38.5t-25.5 95.5h84q-3 -26 12 -43t42 -17q26 0 49.5 18t27.5 43q5 28 -14 45t-57 17h-16l14 74h17q50 0 57 39q3 15 -5.5 24.5t-25.5 9.5q-29 0 -39 -36h-84q13 47 44 74q44 36 94 36q49 0 78.5 -32.5t21.5 -77.5q-9 -46 -47 -69q28 -13 40.5 -40.5 t5.5 -62.5q-10 -58 -61 -97t-115 -39z" />
<glyph unicode="&#xb4;" d="M322 550l-39 66l201 145l42 -78z" />
<glyph unicode="&#xb5;" d="M159 53l-42 -226h-121l122 656h121l-48 -258q-9 -49 -6.5 -74t18.5 -43q23 -29 64 -29q46 0 80 36t48 114l47 254h121l-89 -483h-121l11 61q-49 -72 -117 -72q-61 0 -88 64z" />
<glyph unicode="&#xb6;" d="M161 -94l77 415h-11q-66 0 -98 47.5t-18 123.5q19 105 97 150q50 28 133 28h246l-15 -77h-51l-127 -687h-82l127 687h-69l-127 -687h-82z" />
<glyph unicode="&#xb7;" horiz-adv-x="235" d="M93 198l23 121h121l-23 -121h-121z" />
<glyph unicode="&#xb8;" d="M175 -97l61 97h42l-33 -53q18 7 28 7q34 0 54.5 -27t13.5 -64q-7 -38 -38 -64.5t-69 -26.5q-35 0 -57 21.5t-20 55.5h54q6 -27 31 -27q16 0 28.5 12t15.5 29q3 16 -5.5 27t-22.5 11q-18 0 -39 -22z" />
<glyph unicode="&#xb9;" horiz-adv-x="341" d="M192 268l61 328h-54l14 74h138l-75 -402h-84z" />
<glyph unicode="&#xba;" horiz-adv-x="398" d="M244 258q-71 0 -113 48t-29 116q12 65 72.5 112.5t132.5 47.5t114 -47.5t29 -114.5q-12 -67 -72 -114.5t-134 -47.5zM260 330q38 0 68.5 26t37.5 63t-14.5 64t-58.5 27t-68.5 -26.5t-38.5 -62.5q-7 -39 14 -65t60 -26z" />
<glyph unicode="&#xbb;" horiz-adv-x="387" d="M241 94l21 112l71 53l-52 51l21 112l104 -118l-17 -91zM61 94l21 112l71 53l-52 51l21 112l104 -118l-17 -91z" />
<glyph unicode="&#xbc;" horiz-adv-x="834" d="M240 0l402 670h75l-401 -670h-76zM192 268l61 328h-54l14 74h138l-75 -402h-84zM510 59l12 63l251 280h70l-50 -269h46l-14 -74h-46l-10 -59h-84l10 59h-185zM614 130h98l26 143z" />
<glyph unicode="&#xbd;" horiz-adv-x="834" d="M240 0l402 670h75l-401 -670h-76zM192 268l61 328h-54l14 74h138l-75 -402h-84zM522 0l13 72l179 132q53 40 60 76q5 25 -8.5 40.5t-39.5 15.5q-37 0 -61 -32q-10 -12 -15 -45h-84q0 4 0.5 9.5t0.5 6.5q11 57 60 96t110 39t96 -39t25 -95q-13 -67 -110 -136l-92 -66h164 l-13 -74h-285z" />
<glyph unicode="&#xbe;" horiz-adv-x="834" d="M210 260q-62 0 -97.5 38.5t-25.5 95.5h84q-3 -26 12 -43t42 -17q26 0 49.5 18t27.5 43q5 28 -14 45t-57 17h-16l14 74h17q50 0 57 39q3 15 -5.5 24.5t-25.5 9.5q-29 0 -39 -36h-84q13 47 44 74q44 36 94 36q49 0 78.5 -32.5t21.5 -77.5q-9 -46 -47 -69q28 -13 40.5 -40.5 t5.5 -62.5q-10 -58 -61 -97t-115 -39zM240 0l401 670h76l-402 -670h-75zM510 59l12 63l251 280h70l-50 -269h45l-14 -74h-45l-10 -59h-84l10 59h-185zM614 130h98l26 143z" />
<glyph unicode="&#xbf;" horiz-adv-x="456" d="M251 382l23 121h121l-23 -121h-121zM37 30q8 43 36 80.5t85 79.5q40 30 56.5 53t22.5 59q2 9 5 31h120q-2 -19 -4 -26q-12 -71 -56 -127q-16 -19 -29.5 -30.5t-61.5 -46.5q-46 -33 -54 -77q-8 -39 11 -62.5t58 -23.5q46 0 74 33q13 13 27 56h121q-23 -85 -68 -131 q-34 -35 -84 -57t-96 -22q-84 0 -131.5 61.5t-31.5 149.5z" />
<glyph unicode="&#xc0;" horiz-adv-x="655" d="M468 717l-186 109l64 92l181 -121zM-1 0l403 670h97l157 -670h-137l-39 173h-238l-106 -173h-137zM308 289h144l-34 206z" />
<glyph unicode="&#xc1;" horiz-adv-x="655" d="M449 717l-29 80l227 121l30 -92zM-1 0l403 670h97l157 -670h-137l-39 173h-238l-106 -173h-137zM308 289h144l-34 206z" />
<glyph unicode="&#xc2;" horiz-adv-x="655" d="M289 734l146 125h111l102 -125h-132l-38 58l-58 -58h-131zM-1 0l403 670h97l157 -670h-137l-39 173h-238l-106 -173h-137zM308 289h144l-34 206z" />
<glyph unicode="&#xc3;" horiz-adv-x="655" d="M345 729l-25 79q48 42 106 42q30 0 69 -14q33 -12 56 -12q42 0 78 32l25 -75q-53 -48 -106 -48q-20 0 -88 21q-25 8 -36 8q-36 0 -79 -33zM-1 0l403 670h97l157 -670h-137l-39 173h-238l-106 -173h-137zM308 289h144l-34 206z" />
<glyph unicode="&#xc4;" horiz-adv-x="655" d="M501 740l22 121h121l-22 -121h-121zM314 740l22 121h121l-22 -121h-121zM-1 0l403 670h97l157 -670h-137l-39 173h-238l-106 -173h-137zM308 289h144l-34 206z" />
<glyph unicode="&#xc5;" horiz-adv-x="655" d="M463 717q-43 0 -67.5 30t-16.5 74q7 42 43.5 72t79.5 30t67 -30t16 -73q-7 -43 -43 -73t-79 -30zM475 779q16 0 29.5 12t16.5 29q4 16 -5.5 28.5t-25.5 12.5t-30 -12t-17 -28q-4 -18 5.5 -30t26.5 -12zM-1 0l403 670h97l157 -670h-137l-39 173h-238l-106 -173h-137z M308 289h144l-34 206z" />
<glyph unicode="&#xc6;" horiz-adv-x="768" d="M-23 0l567 670h309l-22 -116h-200l-30 -163h190l-22 -116h-190l-29 -159h200l-21 -116h-324l32 173h-178l-136 -173h-146zM354 289h104l33 177z" />
<glyph unicode="&#xc7;" horiz-adv-x="711" d="M192 48q-63 52 -88.5 128t-9.5 161q26 143 147 244.5t264 101.5q123 0 206 -78q30 -30 46 -57t26 -69h-141q-60 88 -163 88q-88 0 -166 -69t-95 -162q-18 -94 35.5 -164t143.5 -70q48 0 90.5 19.5t93.5 64.5h144q-52 -89 -152.5 -145.5t-200.5 -54.5l-25 -38q20 7 30 7 q35 0 56.5 -29t14.5 -67q-8 -40 -41.5 -69t-73.5 -29t-62 23t-19 62h55q5 -31 35 -31q17 0 30.5 12.5t16.5 31.5q4 17 -4.5 28t-24.5 11q-24 0 -43 -24l-47 26l56 90q-58 14 -82.5 25t-51.5 33z" />
<glyph unicode="&#xc8;" horiz-adv-x="462" d="M409 717l-186 109l64 92l181 -121zM62 0l124 670h361l-22 -116h-237l-30 -163h227l-22 -116h-227l-29 -159h237l-21 -116h-361z" />
<glyph unicode="&#xc9;" horiz-adv-x="462" d="M360 717l-29 80l227 121l30 -92zM62 0l124 670h361l-22 -116h-237l-30 -163h227l-22 -116h-227l-29 -159h237l-21 -116h-361z" />
<glyph unicode="&#xca;" horiz-adv-x="462" d="M201 734l146 125h111l102 -125h-132l-38 58l-58 -58h-131zM62 0l124 670h361l-22 -116h-237l-30 -163h227l-22 -116h-227l-29 -159h237l-21 -116h-361z" />
<glyph unicode="&#xcb;" horiz-adv-x="462" d="M415 740l22 121h121l-22 -121h-121zM228 740l22 121h121l-22 -121h-121zM62 0l124 670h361l-22 -116h-237l-30 -163h227l-22 -116h-227l-29 -159h237l-21 -116h-361z" />
<glyph unicode="&#xcc;" horiz-adv-x="247" d="M267 717l-163 112l70 85l155 -120zM62 0l124 670h124l-124 -670h-124z" />
<glyph unicode="&#xcd;" horiz-adv-x="247" d="M252 717l-33 77l200 120l38 -85zM62 0l124 670h124l-124 -670h-124z" />
<glyph unicode="&#xce;" horiz-adv-x="247" d="M95 734l133 125h111l88 -125h-128l-27 65l-49 -65h-128zM61 0l124 670h124l-124 -670h-124z" />
<glyph unicode="&#xcf;" horiz-adv-x="247" d="M289 740l22 121h114l-22 -121h-114zM125 740l22 121h114l-22 -121h-114zM62 0l124 670h124l-124 -670h-124z" />
<glyph unicode="&#xd0;" horiz-adv-x="631" d="M62 0l52 285h-64l20 104h64l52 281h152q152 0 227 -51q60 -40 86.5 -118t9.5 -167q-17 -95 -77.5 -175.5t-143.5 -118.5q-87 -40 -223 -40h-155zM207 116h26q108 0 170 33q52 28 88 76.5t46 106.5q11 61 -7.5 112t-62.5 79q-48 31 -155 31h-24l-30 -165h160l-20 -104 h-160z" />
<glyph unicode="&#xd1;" horiz-adv-x="668" d="M355 729l-25 79q48 42 106 42q30 0 69 -14q33 -12 56 -12q42 0 78 32l25 -75q-53 -48 -106 -48q-20 0 -88 21q-25 8 -36 8q-36 0 -79 -33zM62 0l124 670h141l188 -488l91 488h124l-124 -670h-139l-191 487l-90 -487h-124z" />
<glyph unicode="&#xd2;" horiz-adv-x="763" d="M522 717l-186 109l64 92l181 -121zM94 339q26 140 148.5 242t266.5 102q145 0 228.5 -102t57.5 -246q-27 -144 -148.5 -246t-266.5 -102q-147 0 -230 102t-56 250zM218 337q-18 -98 36 -166t149 -68q93 0 171.5 68t96.5 164q17 96 -36 164t-147 68q-93 0 -173 -68 t-97 -162z" />
<glyph unicode="&#xd3;" horiz-adv-x="763" d="M507 717l-29 80l227 121l30 -92zM94 339q26 140 148.5 242t266.5 102q145 0 228.5 -102t57.5 -246q-27 -144 -148.5 -246t-266.5 -102q-147 0 -230 102t-56 250zM218 337q-18 -98 36 -166t149 -68q93 0 171.5 68t96.5 164q17 96 -36 164t-147 68q-93 0 -173 -68t-97 -162 z" />
<glyph unicode="&#xd4;" horiz-adv-x="763" d="M344 734l146 125h111l102 -125h-132l-38 58l-58 -58h-131zM94 339q26 140 148.5 242t266.5 102q145 0 228.5 -102t57.5 -246q-27 -144 -148.5 -246t-266.5 -102q-147 0 -230 102t-56 250zM218 337q-18 -98 36 -166t149 -68q93 0 171.5 68t96.5 164q17 96 -36 164t-147 68 q-93 0 -173 -68t-97 -162z" />
<glyph unicode="&#xd5;" horiz-adv-x="763" d="M403 729l-25 79q48 42 106 42q30 0 69 -14q33 -12 56 -12q42 0 78 32l25 -75q-53 -48 -106 -48q-20 0 -88 21q-25 8 -36 8q-36 0 -79 -33zM94 339q26 140 148.5 242t266.5 102q145 0 228.5 -102t57.5 -246q-27 -144 -148.5 -246t-266.5 -102q-147 0 -230 102t-56 250z M218 337q-18 -98 36 -166t149 -68q93 0 171.5 68t96.5 164q17 96 -36 164t-147 68q-93 0 -173 -68t-97 -162z" />
<glyph unicode="&#xd6;" horiz-adv-x="763" d="M555 740l22 121h121l-22 -121h-121zM368 740l22 121h121l-22 -121h-121zM94 339q26 140 148.5 242t266.5 102q145 0 228.5 -102t57.5 -246q-27 -144 -148.5 -246t-266.5 -102q-147 0 -230 102t-56 250zM218 337q-18 -98 36 -166t149 -68q93 0 171.5 68t96.5 164 q17 96 -36 164t-147 68q-93 0 -173 -68t-97 -162z" />
<glyph unicode="&#xd7;" d="M145 141l-52 62l157 132l-108 132l75 63l108 -132l156 132l51 -62l-156 -134l107 -131l-75 -63l-107 133z" />
<glyph unicode="&#xd8;" horiz-adv-x="763" d="M86 -2l75 82q-45 42 -63 110.5t-4 145.5q26 142 147.5 244.5t263.5 102.5q71 0 155 -36l85 92l69 -62l-81 -87q49 -78 62 -131.5t0 -122.5q-27 -145 -149 -247t-269 -102q-80 0 -143 36l-79 -87zM249 180l323 366q-35 21 -82 21q-95 0 -175 -67.5t-97 -163.5 q-18 -95 31 -156zM320 119q40 -16 81 -16q94 0 173 68t96 163q17 90 -27 153z" />
<glyph unicode="&#xd9;" horiz-adv-x="589" d="M445 717l-186 109l64 92l181 -121zM109 86q-28 54 -9 158l79 426h124l-79 -426q-11 -63 3 -94q23 -48 85 -48q65 0 104 47q27 31 39 95l79 426h124l-79 -426q-20 -109 -77 -167q-88 -91 -209 -91q-61 0 -110 27t-74 73z" />
<glyph unicode="&#xda;" horiz-adv-x="589" d="M422 717l-29 80l227 121l30 -92zM109 86q-28 54 -9 158l79 426h124l-79 -426q-11 -63 3 -94q23 -48 85 -48q65 0 104 47q27 31 39 95l79 426h124l-79 -426q-20 -109 -77 -167q-88 -91 -209 -91q-61 0 -110 27t-74 73z" />
<glyph unicode="&#xdb;" horiz-adv-x="589" d="M260 734l146 125h111l102 -125h-132l-38 58l-58 -58h-131zM109 86q-28 54 -9 158l79 426h124l-79 -426q-11 -63 3 -94q23 -48 85 -48q65 0 104 47q27 31 39 95l79 426h124l-79 -426q-20 -109 -77 -167q-88 -91 -209 -91q-61 0 -110 27t-74 73z" />
<glyph unicode="&#xdc;" horiz-adv-x="589" d="M471 740l22 121h121l-22 -121h-121zM284 740l22 121h121l-22 -121h-121zM109 86q-28 54 -9 158l79 426h124l-79 -426q-11 -63 3 -94q23 -48 85 -48q65 0 104 47q27 31 39 95l79 426h124l-79 -426q-20 -109 -77 -167q-88 -91 -209 -91q-61 0 -110 27t-74 73z" />
<glyph unicode="&#xdd;" horiz-adv-x="552" d="M407 717l-29 80l227 121l30 -92zM213 0l45 247l-141 423h136l89 -308l203 308h137l-300 -423l-45 -247h-124z" />
<glyph unicode="&#xde;" horiz-adv-x="510" d="M62 0l124 670h124l-18 -94h45q71 0 103.5 -7t59.5 -27q37 -29 52.5 -74.5t5.5 -97.5t-42.5 -99.5t-79.5 -76.5q-54 -34 -178 -34h-43l-29 -160h-124zM238 281h40q56 0 84 9q27 8 47 30t25 49t-6.5 48t-36.5 30q-22 8 -76 8h-45z" />
<glyph unicode="&#xdf;" horiz-adv-x="566" d="M52 0l81 442q15 81 58 141q34 46 85.5 73.5t105.5 27.5q83 0 129 -55t31 -135q-17 -89 -83 -124q67 -16 96 -62t16 -114q-16 -92 -87.5 -151.5t-165.5 -59.5q-108 0 -143 83l-12 -66h-111zM204 172h78q0 -34 19.5 -56t49.5 -22q34 0 62 26t36 64q11 61 -35 86 q-31 16 -110 16h-11l19 107h11q33 0 61.5 27t35.5 66q7 40 -9.5 63.5t-51.5 23.5q-81 0 -102 -117z" />
<glyph unicode="&#xe0;" horiz-adv-x="616" d="M435 550l-153 133l72 78l147 -145zM77 254q21 113 107 189.5t193 76.5q48 0 90.5 -22.5t63.5 -58.5l12 64h111l-93 -503h-111l11 62q-11 -12 -46 -34q-74 -45 -144 -45q-106 0 -161 77t-33 194zM197 249q-13 -66 22 -111t98 -45t113 45t63 113q13 69 -20.5 113.5 t-97.5 44.5q-63 0 -114.5 -46.5t-63.5 -113.5z" />
<glyph unicode="&#xe1;" horiz-adv-x="616" d="M389 550l-39 66l201 145l42 -78zM77 254q21 113 107 189.5t193 76.5q48 0 90.5 -22.5t63.5 -58.5l12 64h111l-93 -503h-111l11 62q-11 -12 -46 -34q-74 -45 -144 -45q-106 0 -161 77t-33 194zM197 249q-13 -66 22 -111t98 -45t113 45t63 113q13 69 -20.5 113.5 t-97.5 44.5q-63 0 -114.5 -46.5t-63.5 -113.5z" />
<glyph unicode="&#xe2;" horiz-adv-x="616" d="M252 570l143 132h108l91 -132h-122l-36 65l-63 -65h-121zM77 254q21 113 107 189.5t193 76.5q48 0 90.5 -22.5t63.5 -58.5l12 64h111l-93 -503h-111l11 62q-11 -12 -46 -34q-74 -45 -144 -45q-106 0 -161 77t-33 194zM197 249q-13 -66 22 -111t98 -45t113 45t63 113 q13 69 -20.5 113.5t-97.5 44.5q-63 0 -114.5 -46.5t-63.5 -113.5z" />
<glyph unicode="&#xe3;" horiz-adv-x="616" d="M310 577l-26 71q48 39 95 39q37 0 72 -12q25 -9 54 -9q37 0 71 27l24 -73q-42 -41 -103 -41q-16 0 -80 17q-32 8 -44 8q-32 0 -63 -27zM77 254q21 113 107 189.5t193 76.5q48 0 90.5 -22.5t63.5 -58.5l12 64h111l-93 -503h-111l11 62q-11 -12 -46 -34q-74 -45 -144 -45 q-106 0 -161 77t-33 194zM197 249q-13 -66 22 -111t98 -45t113 45t63 113q13 69 -20.5 113.5t-97.5 44.5q-63 0 -114.5 -46.5t-63.5 -113.5z" />
<glyph unicode="&#xe4;" horiz-adv-x="616" d="M457 573l22 121h117l-22 -121h-117zM276 573l22 121h117l-22 -121h-117zM77 254q21 113 107 189.5t193 76.5q48 0 90.5 -22.5t63.5 -58.5l12 64h111l-93 -503h-111l11 62q-11 -12 -46 -34q-74 -45 -144 -45q-106 0 -161 77t-33 194zM197 249q-13 -66 22 -111t98 -45 t113 45t63 113q13 69 -20.5 113.5t-97.5 44.5q-63 0 -114.5 -46.5t-63.5 -113.5z" />
<glyph unicode="&#xe5;" horiz-adv-x="616" d="M422 556q-42 0 -66 29.5t-17 71.5q7 40 43 69.5t77 29.5t65 -29.5t16 -70.5t-42.5 -70.5t-75.5 -29.5zM432 614q17 0 31 12.5t17 29.5t-6.5 29.5t-25.5 12.5q-17 0 -31.5 -12.5t-17.5 -28.5q-3 -18 6.5 -30.5t26.5 -12.5zM77 254q21 113 107 189.5t193 76.5 q48 0 90.5 -22.5t63.5 -58.5l12 64h111l-93 -503h-111l11 62q-11 -12 -46 -34q-74 -45 -144 -45q-106 0 -161 77t-33 194zM197 249q-13 -66 22 -111t98 -45t113 45t63 113q13 69 -20.5 113.5t-97.5 44.5q-63 0 -114.5 -46.5t-63.5 -113.5z" />
<glyph unicode="&#xe6;" horiz-adv-x="988" d="M76 252q20 110 112.5 189t201.5 79q86 0 138 -63l9 46h111l-9 -46q71 63 162 63q103 0 164.5 -77t41.5 -182q-5 -25 -20 -63h-390q7 -47 38 -75.5t77 -28.5q69 0 127 65h131q-20 -41 -56 -75q-104 -101 -218 -101q-96 0 -132 67l-9 -50h-111l9 50q-67 -67 -165 -67 q-108 0 -170 79.5t-42 189.5zM613 295h275q-4 44 -20 68q-32 46 -95 46q-60 0 -113 -47q-26 -22 -47 -67zM198 256q-13 -67 20.5 -114.5t93.5 -47.5q61 0 112 46t63 113q12 65 -22 110.5t-94 45.5q-59 0 -110.5 -45.5t-62.5 -107.5z" />
<glyph unicode="&#xe7;" horiz-adv-x="566" d="M192 -97l53 85q-95 23 -141 95.5t-27 170.5q20 110 113 188t203 78q105 0 169 -73q38 -42 49 -111h-136q-15 39 -39.5 56.5t-63.5 17.5q-64 0 -113 -45t-62 -113t22 -113t100 -45q68 0 124 70h136q-51 -94 -133 -139q-74 -42 -149 -42h-12l-22 -36q18 7 28 7 q34 0 54.5 -27t13.5 -64q-7 -38 -38 -64.5t-69 -26.5q-35 0 -57 21.5t-20 55.5h54q6 -27 31 -27q16 0 28.5 12t15.5 29q3 16 -5.5 27t-22.5 11q-19 0 -40 -22z" />
<glyph unicode="&#xe8;" horiz-adv-x="585" d="M409 550l-153 133l72 78l147 -145zM76 251q21 113 113 192.5t202 79.5q106 0 169 -78t43 -186q-4 -19 -19 -61h-391q4 -45 37 -74.5t79 -29.5q72 0 124 65h133q-37 -76 -115 -126t-160 -50q-110 0 -173 78t-42 190zM208 295h283q-2 54 -34 85.5t-85 31.5q-52 0 -97 -32.5 t-67 -84.5z" />
<glyph unicode="&#xe9;" horiz-adv-x="585" d="M394 550l-39 66l201 145l42 -78zM76 251q21 113 113 192.5t202 79.5q106 0 169 -78t43 -186q-4 -19 -19 -61h-391q4 -45 37 -74.5t79 -29.5q72 0 124 65h133q-37 -76 -115 -126t-160 -50q-110 0 -173 78t-42 190zM208 295h283q-2 54 -34 85.5t-85 31.5q-52 0 -97 -32.5 t-67 -84.5z" />
<glyph unicode="&#xea;" horiz-adv-x="585" d="M240 570l143 132h108l91 -132h-122l-36 65l-63 -65h-121zM76 251q21 113 113 192.5t202 79.5q106 0 169 -78t43 -186q-4 -19 -19 -61h-391q4 -45 37 -74.5t79 -29.5q72 0 124 65h133q-37 -76 -115 -126t-160 -50q-110 0 -173 78t-42 190zM208 295h283q-2 54 -34 85.5 t-85 31.5q-52 0 -97 -32.5t-67 -84.5z" />
<glyph unicode="&#xeb;" horiz-adv-x="585" d="M441 573l22 121h117l-22 -121h-117zM260 573l22 121h117l-22 -121h-117zM76 251q21 113 113 192.5t202 79.5q106 0 169 -78t43 -186q-4 -19 -19 -61h-391q4 -45 37 -74.5t79 -29.5q72 0 124 65h133q-37 -76 -115 -126t-160 -50q-110 0 -173 78t-42 190zM208 295h283 q-2 54 -34 85.5t-85 31.5q-52 0 -97 -32.5t-67 -84.5z" />
<glyph unicode="&#xec;" horiz-adv-x="231" d="M226 550l-139 120l71 77l133 -131zM55 0l93 503h121l-93 -503h-121z" />
<glyph unicode="&#xed;" horiz-adv-x="231" d="M217 550l-39 66l181 131l43 -77zM55 0l93 503h121l-93 -503h-121z" />
<glyph unicode="&#xee;" horiz-adv-x="231" d="M69 570l126 132h108l74 -132h-118l-23 65l-49 -65h-118zM54 0l93 503h121l-93 -503h-121z" />
<glyph unicode="&#xef;" horiz-adv-x="231" d="M248 573l22 121h107l-22 -121h-107zM94 573l22 121h107l-22 -121h-107zM55 0l93 503h121l-93 -503h-121z" />
<glyph unicode="&#xf0;" horiz-adv-x="595" d="M76 250q20 109 106.5 182.5t194.5 73.5q24 0 63 -12q-8 24 -11 30l-13 26l-6 15l-67 -30l-29 55l69 31q-11 14 -12 17q-13 22 -14 23l-12 12l79 42l32 -37l13 -17l74 34l31 -55l-74 -35q63 -107 81 -154q46 -115 29 -208q-20 -107 -113.5 -183.5t-205.5 -76.5 q-111 0 -173.5 77.5t-41.5 189.5zM197 252q-12 -67 22 -112.5t96 -45.5q61 0 111.5 43.5t62.5 107.5q11 63 -23 109t-94 46t-112 -44t-63 -104z" />
<glyph unicode="&#xf1;" horiz-adv-x="554" d="M273 577l-26 71q48 39 95 39q37 0 72 -12q25 -9 54 -9q37 0 71 27l24 -73q-42 -41 -103 -41q-16 0 -80 17q-32 8 -44 8q-32 0 -63 -27zM55 0l93 503h112l-8 -44q74 61 148 61q45 0 83.5 -20.5t57.5 -54.5q33 -56 11 -173l-50 -272h-121l45 248q18 95 -6 128 q-20 33 -65 33q-25 0 -50.5 -13t-41.5 -34q-26 -32 -43 -123l-44 -239h-121z" />
<glyph unicode="&#xf2;" horiz-adv-x="595" d="M407 550l-153 133l72 78l147 -145zM77 256q19 107 113.5 185.5t204.5 78.5q111 0 174 -78t42 -190q-21 -113 -114 -191t-205 -78q-110 0 -173 80t-42 193zM197 253q-12 -68 22 -113.5t96 -45.5t112.5 45t62.5 111q12 65 -22.5 112t-94.5 47q-59 0 -111.5 -46t-64.5 -110z " />
<glyph unicode="&#xf3;" horiz-adv-x="595" d="M395 550l-39 66l201 145l42 -78zM77 256q19 107 113.5 185.5t204.5 78.5q111 0 174 -78t42 -190q-21 -113 -114 -191t-205 -78q-110 0 -173 80t-42 193zM197 253q-12 -68 22 -113.5t96 -45.5t112.5 45t62.5 111q12 65 -22.5 112t-94.5 47q-59 0 -111.5 -46t-64.5 -110z " />
<glyph unicode="&#xf4;" horiz-adv-x="595" d="M238 570l143 132h108l91 -132h-122l-36 65l-63 -65h-121zM77 256q19 107 113.5 185.5t204.5 78.5q111 0 174 -78t42 -190q-21 -113 -114 -191t-205 -78q-110 0 -173 80t-42 193zM197 253q-12 -68 22 -113.5t96 -45.5t112.5 45t62.5 111q12 65 -22.5 112t-94.5 47 q-59 0 -111.5 -46t-64.5 -110z" />
<glyph unicode="&#xf5;" horiz-adv-x="595" d="M302 577l-26 71q48 39 95 39q37 0 72 -12q25 -9 54 -9q37 0 71 27l24 -73q-42 -41 -103 -41q-16 0 -80 17q-32 8 -44 8q-32 0 -63 -27zM77 256q19 107 113.5 185.5t204.5 78.5q111 0 174 -78t42 -190q-21 -113 -114 -191t-205 -78q-110 0 -173 80t-42 193zM197 253 q-12 -68 22 -113.5t96 -45.5t112.5 45t62.5 111q12 65 -22.5 112t-94.5 47q-59 0 -111.5 -46t-64.5 -110z" />
<glyph unicode="&#xf6;" horiz-adv-x="595" d="M442 573l22 121h117l-22 -121h-117zM261 573l22 121h117l-22 -121h-117zM77 256q19 107 113.5 185.5t204.5 78.5q111 0 174 -78t42 -190q-21 -113 -114 -191t-205 -78q-110 0 -173 80t-42 193zM197 253q-12 -68 22 -113.5t96 -45.5t112.5 45t62.5 111q12 65 -22.5 112 t-94.5 47q-59 0 -111.5 -46t-64.5 -110z" />
<glyph unicode="&#xf7;" d="M279 451l20 107h111l-20 -107h-111zM92 300l17 90h429l-17 -90h-429zM220 133l20 107h111l-20 -107h-111z" />
<glyph unicode="&#xf8;" horiz-adv-x="595" d="M68 1l53 60q-31 34 -43 85.5t-2 106.5q21 111 115.5 189t207.5 78q60 0 101 -26l53 62l62 -48l-53 -62q72 -69 49 -196q-21 -111 -114.5 -189t-205.5 -78q-56 0 -107 27l-58 -59zM209 158l207 241q-18 10 -39 10q-63 0 -115.5 -46t-64.5 -113q-11 -53 12 -92zM266 104 q26 -10 49 -10q61 0 112 45t63 110q8 48 -12 99z" />
<glyph unicode="&#xf9;" horiz-adv-x="554" d="M388 550l-153 133l72 78l147 -145zM122 38q-29 31 -36 69.5t4 100.5l55 295h121l-48 -257q-29 -152 76 -152q49 0 82.5 39t47.5 113l48 257h121l-93 -503h-111l9 50q-36 -37 -67.5 -52t-75.5 -15q-84 0 -133 55z" />
<glyph unicode="&#xfa;" horiz-adv-x="554" d="M379 550l-39 66l201 145l42 -78zM122 38q-29 31 -36 69.5t4 100.5l55 295h121l-48 -257q-29 -152 76 -152q49 0 82.5 39t47.5 113l48 257h121l-93 -503h-111l9 50q-36 -37 -67.5 -52t-75.5 -15q-84 0 -133 55z" />
<glyph unicode="&#xfb;" horiz-adv-x="554" d="M218 570l143 132h108l91 -132h-122l-36 65l-63 -65h-121zM122 38q-29 31 -36 69.5t4 100.5l55 295h121l-48 -257q-29 -152 76 -152q49 0 82.5 39t47.5 113l48 257h121l-93 -503h-111l9 50q-36 -37 -67.5 -52t-75.5 -15q-84 0 -133 55z" />
<glyph unicode="&#xfc;" horiz-adv-x="554" d="M420 573l22 121h117l-22 -121h-117zM239 573l22 121h117l-22 -121h-117zM122 38q-29 31 -36 69.5t4 100.5l55 295h121l-48 -257q-29 -152 76 -152q49 0 82.5 39t47.5 113l48 257h121l-93 -503h-111l9 50q-36 -37 -67.5 -52t-75.5 -15q-84 0 -133 55z" />
<glyph unicode="&#xfd;" horiz-adv-x="502" d="M352 550l-39 66l201 145l42 -78zM55 -168l133 215l-99 456h138l54 -323l181 323h137l-414 -671h-130z" />
<glyph unicode="&#xfe;" horiz-adv-x="612" d="M23 -168l156 838h111l-44 -233q42 44 84 63.5t96 19.5q108 0 164 -78q59 -79 39 -188q-22 -114 -110 -192.5t-194 -78.5q-49 0 -80 16t-59 55l-42 -222h-121zM215 253q-12 -65 22 -109t96 -44q61 0 112 44.5t62 106.5q12 63 -22.5 107.5t-93.5 44.5q-62 0 -113 -43.5 t-63 -106.5z" />
<glyph unicode="&#xff;" horiz-adv-x="502" d="M396 573l22 121h117l-22 -121h-117zM215 573l22 121h117l-22 -121h-117zM55 -168l133 215l-99 456h138l54 -323l181 323h137l-414 -671h-130z" />
<glyph unicode="&#x152;" horiz-adv-x="950" d="M94 335q27 146 143 247.5t257 101.5q66 0 121 -23.5t82 -63.5l14 73h323l-22 -116h-199l-30 -163h189l-22 -116h-189l-29 -159h199l-21 -116h-323l13 72q-42 -38 -106.5 -61.5t-128.5 -23.5q-140 0 -219 101.5t-52 246.5zM218 337q-18 -98 32.5 -166t141.5 -68t167 66.5 t94 161.5q18 98 -33.5 167.5t-142.5 69.5q-89 0 -165.5 -68.5t-93.5 -162.5z" />
<glyph unicode="&#x153;" horiz-adv-x="984" d="M76 252q20 110 113 189t202 79q122 0 181 -104q56 56 105 80t109 24q110 0 173 -75.5t43 -183.5q-6 -35 -17 -63h-389q8 -48 38.5 -76t76.5 -28q31 0 67.5 18.5t58.5 46.5h129q-39 -77 -117 -126.5t-159 -49.5q-61 0 -108 28t-71 78q-33 -39 -67 -62q-68 -44 -155 -44 q-109 0 -171 78.5t-42 190.5zM611 295h273q-2 52 -33.5 83t-82.5 31q-102 0 -157 -114zM198 255q-13 -67 21 -114t95 -47t112 46t63 111t-22.5 111.5t-94.5 46.5t-111.5 -45.5t-62.5 -108.5z" />
<glyph unicode="&#x178;" horiz-adv-x="552" d="M452 740l22 121h121l-22 -121h-121zM265 740l22 121h121l-22 -121h-121zM213 0l45 247l-141 423h136l89 -308l203 308h137l-300 -423l-45 -247h-124z" />
<glyph unicode="&#x2c6;" d="M185 570l143 132h108l91 -132h-122l-36 65l-63 -65h-121z" />
<glyph unicode="&#x2dc;" d="M236 577l-26 71q48 39 95 39q37 0 72 -12q25 -9 54 -9q37 0 71 27l24 -73q-42 -41 -103 -41q-16 0 -80 17q-32 8 -44 8q-32 0 -63 -27z" />
<glyph unicode="&#x2013;" d="M72 208l19 101h436l-19 -101h-436z" />
<glyph unicode="&#x2014;" horiz-adv-x="755" d="M37 204l20 107h755l-20 -107h-755z" />
<glyph unicode="&#x2018;" horiz-adv-x="235" d="M135 422l23 128q13 74 78 105q30 15 65 15l-12 -61q-30 -6 -44 -17.5t-18 -33.5q-2 -8 -2 -15h53l-22 -121h-121z" />
<glyph unicode="&#x2019;" horiz-adv-x="235" d="M136 422l11 61q30 5 44 16.5t18 34.5q2 6 2 15h-53l23 121h121l-24 -128q-11 -59 -55 -92q-39 -28 -81 -28h-6z" />
<glyph unicode="&#x201a;" horiz-adv-x="235" d="M57 0l22 121h121l-24 -128q-11 -59 -55 -92q-39 -28 -81 -28h-6l11 61q30 5 44 16.5t19 34.5q0 3 2 15h-53z" />
<glyph unicode="&#x201c;" horiz-adv-x="422" d="M323 422l23 128q13 74 77 105q30 15 65 15l-12 -61q-29 -5 -43 -17t-18 -34l-3 -15h53l-22 -121h-120zM135 422l23 128q13 74 78 105q30 15 65 15l-12 -61q-30 -6 -44 -17.5t-18 -33.5q-2 -8 -2 -15h53l-22 -121h-121z" />
<glyph unicode="&#x201d;" horiz-adv-x="422" d="M324 422l11 61q29 5 43 17t18 34l3 15h-53l23 121h120l-24 -128q-11 -59 -55 -92q-37 -28 -80 -28h-6zM136 422l11 61q30 5 44 16.5t18 34.5q2 6 2 15h-53l23 121h121l-24 -128q-11 -59 -55 -92q-39 -28 -81 -28h-6z" />
<glyph unicode="&#x201e;" horiz-adv-x="422" d="M233 -66q30 5 43.5 16.5t18.5 34.5l3 15h-53l22 121h120l-24 -128q-11 -59 -55 -92q-37 -28 -80 -28h-6zM57 0l22 121h121l-24 -128q-11 -59 -55 -92q-39 -28 -81 -28h-6l11 61q30 5 44 16.5t19 34.5q0 3 2 15h-53z" />
<glyph unicode="&#x2022;" horiz-adv-x="670" d="M374 201q-58 0 -91.5 41t-22.5 98q11 59 59.5 99.5t107.5 40.5q56 0 89 -41.5t23 -98.5q-11 -57 -59.5 -98t-105.5 -41z" />
<glyph unicode="&#x2026;" horiz-adv-x="704" d="M526 0l22 121h121l-22 -121h-121zM292 0l22 121h121l-22 -121h-121zM57 0l22 121h121l-22 -121h-121z" />
<glyph unicode="&#x2039;" horiz-adv-x="207" d="M180 94l-104 119l17 91l148 118l-21 -112l-70 -51l51 -53z" />
<glyph unicode="&#x203a;" horiz-adv-x="207" d="M61 94l21 112l71 53l-52 51l21 112l104 -118l-17 -91z" />
<glyph unicode="&#x20ac;" horiz-adv-x="715" d="M73 247l41 66h58q0 5 3 26q4 15 5 18h-86l40 66h68q53 116 159.5 188.5t223.5 72.5q132 0 213 -84l-75 -121q-22 32 -42 48q-51 41 -121 41q-64 0 -127.5 -40.5t-100.5 -104.5h357l-40 -66h-345q-3 -9 -5 -21q-3 -12 -3 -23h326l-41 -66h-281q15 -65 64.5 -104.5 t114.5 -39.5q84 0 159 63l-27 -146q-75 -33 -152 -33q-116 0 -197.5 73t-91.5 187h-97z" />
<glyph unicode="&#x2122;" horiz-adv-x="783" d="M338 288l71 382h113l56 -278l160 278h112l-71 -382h-84l49 267l-151 -267h-69l-53 267l-49 -267h-84zM147 288l57 310h-77l14 72h237l-14 -72h-76l-57 -310h-84z" />
<glyph unicode="&#xe000;" horiz-adv-x="505" d="M0 505h505v-505h-505v505z" />
<glyph unicode="&#xfb01;" horiz-adv-x="512" d="M74 0l72 392h-43l21 111h43q21 78 63 120q58 60 134 60q21 0 34 -1l-22 -117q-44 0 -61 -12t-27 -50h70l-21 -111h-70l-72 -392h-121zM439 559l21 111h121l-21 -111h-121zM336 0l93 503h121l-93 -503h-121z" />
<glyph unicode="&#xfb02;" horiz-adv-x="512" d="M74 0l72 392h-43l21 111h43q21 78 63 120q58 60 134 60q21 0 34 -1l-22 -117q-44 0 -61 -12t-27 -50h70l-21 -111h-70l-72 -392h-121zM336 0l124 670h121l-124 -670h-121z" />
<glyph unicode="&#xfb03;" horiz-adv-x="775" d="M74 0l72 392h-43l21 111h43q21 78 63 120q58 60 135 60q20 0 33 -1l-22 -117q-44 0 -61 -12t-27 -50h142q21 78 63 120q58 60 134 60q20 0 33 -1l-22 -117q-43 0 -60 -12t-27 -50h70l-21 -111h-70l-72 -392h-121l72 392h-142l-72 -392h-121zM702 559l21 111h121l-21 -111 h-121zM599 0l93 503h121l-93 -503h-121z" />
<glyph unicode="&#xfb04;" horiz-adv-x="775" d="M74 0l72 392h-43l21 111h43q21 78 63 120q58 60 135 60q20 0 33 -1l-22 -117q-44 0 -61 -12t-27 -50h142q21 78 63 120q58 60 134 60q20 0 33 -1l-22 -117q-43 0 -60 -12t-27 -50h70l-21 -111h-70l-72 -392h-121l72 392h-142l-72 -392h-121zM599 0l124 670h121l-124 -670 h-121z" />
</font>
</defs>
</svg>
